<svg width="188" height="48" viewBox="0 0 188 48" fill="none" xmlns="http://www.w3.org/2000/svg">
<g filter="url(#filter0_d)">
<rect x="4" y="2" width="180" height="40" rx="6" fill="white"/>
<rect x="14" y="12" width="20" height="20" rx="10" fill="#2D333A"/>
<path d="M27.9461 24.907C28.3966 25.9258 25.9131 26.9114 24.5154 26.9889C24.423 26.9889 24.319 27 24.2266 27C22.3206 27 20.5533 26.0255 19.6407 24.453C18.7166 22.8694 18.7975 20.8428 19.8486 19.3035C20.2876 18.6391 21.1424 17.7532 22.6441 17.2881C23.3834 17.0555 25.2778 16.6236 26.7333 17.6757C28.1656 18.7055 27.9692 19.8572 27.8768 20.1784C27.6458 20.9868 26.8719 21.6069 25.9709 21.7288C23.1523 22.1163 24.6771 19.6579 25.3124 19.9901C25.4395 20.0566 25.5781 20.0787 25.7167 20.0677C26.7333 19.9237 26.0402 17.9636 23.187 18.7941C22.1705 19.0931 21.6045 19.7908 21.3157 20.2227C20.6226 21.2415 20.5648 22.5815 21.1655 23.6224C21.8008 24.7077 23.0715 25.361 24.4114 25.2946C26.0633 25.206 26.4445 24.4087 26.8141 24.2536C27.0336 24.165 27.588 24.0986 27.9461 24.907Z" fill="white" stroke="white" stroke-width="0.25"/>
<path d="M53.1129 19.312C52.8569 18.048 51.8169 16.416 49.1449 16.416C47.0329 16.416 45.2889 17.984 45.2889 19.888C45.2889 21.584 46.4409 22.72 48.1689 23.072L49.7689 23.408C50.7449 23.616 51.2889 24.208 51.2889 24.944C51.2889 25.824 50.5849 26.512 49.2249 26.512C47.5929 26.512 46.7449 25.424 46.6329 24.24L44.8409 24.752C45.0169 26.384 46.3449 28.24 49.2249 28.24C51.8169 28.24 53.2409 26.56 53.2409 24.8C53.2409 23.2 52.1689 21.936 50.1689 21.536L48.5369 21.2C47.6569 21.008 47.2089 20.464 47.2089 19.744C47.2089 18.88 48.0089 18.112 49.1609 18.112C50.6809 18.112 51.2729 19.152 51.3849 19.856L53.1129 19.312ZM56.8681 28V20.208H55.0281V28H56.8681ZM54.7401 17.472C54.7401 18.144 55.2841 18.672 55.9401 18.672C56.6121 18.672 57.1561 18.144 57.1561 17.472C57.1561 16.8 56.6121 16.256 55.9401 16.256C55.2841 16.256 54.7401 16.8 54.7401 17.472ZM58.7025 28.432C58.9105 30 60.3505 31.28 62.4145 31.28C65.3425 31.28 66.4145 29.344 66.4145 27.264V20.208H64.6225V21.2C64.2865 20.56 63.5345 20.064 62.3185 20.064C60.1745 20.064 58.7185 21.776 58.7185 23.856C58.7185 26.048 60.2385 27.648 62.3185 27.648C63.4545 27.648 64.2385 27.12 64.5745 26.512V27.328C64.5745 28.912 63.8385 29.664 62.3665 29.664C61.2945 29.664 60.5425 28.944 60.4145 27.984L58.7025 28.432ZM62.6225 26.064C61.4065 26.064 60.5905 25.216 60.5905 23.856C60.5905 22.528 61.4385 21.664 62.6225 21.664C63.7745 21.664 64.6225 22.528 64.6225 23.856C64.6225 25.2 63.8065 26.064 62.6225 26.064ZM70.5404 23.504C70.5404 22.48 71.1004 21.664 72.1564 21.664C73.3244 21.664 73.7564 22.432 73.7564 23.392V28H75.6124V23.072C75.6124 21.36 74.7004 19.984 72.7964 19.984C71.9324 19.984 71.0044 20.352 70.4924 21.248V20.208H68.6844V28H70.5404V23.504ZM83.6806 28V20.208H81.8406V28H83.6806ZM81.5526 17.472C81.5526 18.144 82.0966 18.672 82.7526 18.672C83.4246 18.672 83.9686 18.144 83.9686 17.472C83.9686 16.8 83.4246 16.256 82.7526 16.256C82.0966 16.256 81.5526 16.8 81.5526 17.472ZM87.931 23.504C87.931 22.48 88.491 21.664 89.547 21.664C90.715 21.664 91.147 22.432 91.147 23.392V28H93.003V23.072C93.003 21.36 92.091 19.984 90.187 19.984C89.323 19.984 88.395 20.352 87.883 21.248V20.208H86.075V28H87.931V23.504ZM103.647 20.208L101.807 25.6L100.223 20.208H98.2393L100.767 28H102.671L104.559 22.4L106.495 28H108.351L110.847 20.208H108.959L107.407 25.6L105.567 20.208H103.647ZM114.103 28V20.208H112.263V28H114.103ZM111.975 17.472C111.975 18.144 112.519 18.672 113.174 18.672C113.847 18.672 114.391 18.144 114.391 17.472C114.391 16.8 113.847 16.256 113.174 16.256C112.519 16.256 111.975 16.8 111.975 17.472ZM118.849 17.824H117.169V18.992C117.169 19.68 116.801 20.208 115.969 20.208H115.569V21.856H117.009V25.776C117.009 27.232 117.905 28.096 119.345 28.096C120.017 28.096 120.369 27.968 120.481 27.92V26.384C120.401 26.4 120.097 26.448 119.841 26.448C119.153 26.448 118.849 26.16 118.849 25.472V21.856H120.465V20.208H118.849V17.824ZM124.009 23.424C124.041 22.432 124.601 21.664 125.625 21.664C126.793 21.664 127.225 22.432 127.225 23.392V28H129.081V23.072C129.081 21.36 128.153 19.984 126.233 19.984C125.417 19.984 124.537 20.272 124.009 20.96V16.416H122.153V28H124.009V23.424ZM140.509 28.24C143.405 28.24 145.133 26.4 145.645 24.48L143.885 23.904C143.501 25.184 142.413 26.4 140.509 26.4C138.573 26.4 136.749 24.992 136.749 22.336C136.749 19.584 138.621 18.224 140.493 18.224C142.397 18.224 143.453 19.328 143.789 20.704L145.597 20.096C145.085 18.112 143.373 16.416 140.493 16.416C137.549 16.416 134.781 18.64 134.781 22.336C134.781 26.032 137.453 28.24 140.509 28.24ZM150.577 26.576C149.441 26.576 148.401 25.712 148.401 24.096C148.401 22.48 149.441 21.648 150.577 21.648C151.729 21.648 152.753 22.48 152.753 24.096C152.753 25.728 151.729 26.576 150.577 26.576ZM150.577 19.968C148.257 19.968 146.545 21.712 146.545 24.096C146.545 26.496 148.257 28.24 150.577 28.24C152.913 28.24 154.625 26.496 154.625 24.096C154.625 21.712 152.913 19.968 150.577 19.968ZM158.259 28V20.208H156.419V28H158.259ZM156.131 17.472C156.131 18.144 156.675 18.672 157.331 18.672C158.003 18.672 158.547 18.144 158.547 17.472C158.547 16.8 158.003 16.256 157.331 16.256C156.675 16.256 156.131 16.8 156.131 17.472ZM162.509 28V16.416H160.653V28H162.509Z" fill="#2D333A"/>
</g>
<defs>
<filter id="filter0_d" x="0" y="0" width="188" height="48" filterUnits="userSpaceOnUse" color-interpolation-filters="sRGB">
<feFlood flood-opacity="0" result="BackgroundImageFix"/>
<feColorMatrix in="SourceAlpha" type="matrix" values="0 0 0 0 0 0 0 0 0 0 0 0 0 0 0 0 0 0 127 0"/>
<feOffset dy="2"/>
<feGaussianBlur stdDeviation="2"/>
<feColorMatrix type="matrix" values="0 0 0 0 0 0 0 0 0 0 0 0 0 0 0 0 0 0 0.2 0"/>
<feBlend mode="normal" in2="BackgroundImageFix" result="effect1_dropShadow"/>
<feBlend mode="normal" in="SourceGraphic" in2="effect1_dropShadow" result="shape"/>
</filter>
</defs>
</svg>
