<svg id="Layer_1" data-name="Layer 1" xmlns="http://www.w3.org/2000/svg" viewBox="0 0 219.12 69.27">
    <defs>
        <style>
            .cls-1 {
                fill: #231f20;
            }
        </style>
    </defs>
    <title>THE FAITHFUL</title>
    <path class="cls-1"
        d="M91.3,26V25.9c0-.59,1.16-.63,1.16-1.76V5.36H88.18c-1.6,0-1.79,3.39-2.7,3.39H85.2c-.32,0-.48-.18-.41-.62l.5-3.43a.71.71,0,0,1,.79-.7h15.63a.75.75,0,0,1,.82.7l.69,3.46c.1.41-.09.59-.37.59h-.32c-.91,0-1.32-3.39-2.89-3.39H95.3V24.14c0,1.13,1.22,1.17,1.22,1.76V26c0,.25-.25.37-.66.37H91.93C91.55,26.34,91.3,26.22,91.3,26Z"
        transform="translate(-5.8 -4)" />
    <path class="cls-1"
        d="M105.45,26V25.9c0-.59,1.14-.63,1.14-1.76V6.21c0-1.14-1.14-1.17-1.14-1.77V4.38c0-.25.25-.38.63-.38H110c.37,0,.62.13.62.38v.06c0,.6-1.19.63-1.19,1.77l0,8.05h12.36l0-8c0-1.14-1.13-1.17-1.13-1.77V4.38c0-.25.25-.38.63-.38h3.93c.41,0,.66.13.66.38v.06c0,.6-1.23.63-1.23,1.77V24.14c0,1.13,1.23,1.17,1.23,1.76V26c0,.25-.25.37-.66.37h-3.93c-.38,0-.63-.12-.63-.37V25.9c0-.59,1.13-.63,1.13-1.76l0-8.49H109.45v8.49c0,1.13,1.19,1.17,1.19,1.76V26c0,.25-.25.37-.62.37h-3.94C105.7,26.34,105.45,26.22,105.45,26Z"
        transform="translate(-5.8 -4)" />
    <path class="cls-1"
        d="M129.55,26V25.9c0-.59,1.16-.59,1.16-1.79V6.24c0-1.2-1.16-1.23-1.16-1.8V4.35c0-.22.22-.35.57-.35h13.34c.5,0,.69.26.78.7L145,7.81c.09.44-.07.63-.38.63h-.16c-1,0-1.73-3.15-3.36-3.15h-6.67c-.57,0-.88.32-.88,1.07v7.9h5.72c1.2,0,1.17-1.86,1.83-1.86h.12c.25,0,.41.19.41.54v3.87c0,.31-.16.53-.41.53h-.12c-.66,0-.63-1.79-1.83-1.79h-5.72l0,8.15a1.2,1.2,0,0,0,1.17,1.35h7.39c1.67,0,2.2-3.24,3.31-3.24h.18c.29,0,.44.29.38.63l-.75,3.18c-.1.47-.32.72-.82.72H130.21C129.83,26.34,129.55,26.22,129.55,26Z"
        transform="translate(-5.8 -4)" />
    <path class="cls-1"
        d="M5.8,72.22v-.09c0-.9,1.76-.95,1.76-2.66v-27c0-1.75-1.76-1.75-1.76-2.65v-.1c0-.38.34-.57.86-.57h20c.76,0,1,.38,1.18,1.09L29,44.89c.14.62-.14,1-.61,1h-.19c-1.52,0-2.61-4.79-5.13-4.79H13.25c-.85,0-1.37.47-1.37,1.52V56h8.78c1.61,0,1.75-2.8,2.7-2.8h.29c.38,0,.61.29.61.81v5.84c0,.47-.23.8-.61.8h-.29c-.95,0-1.09-2.65-2.7-2.65H11.88V69.47c0,1.71,1.85,1.76,1.85,2.66v.09c0,.38-.38.57-1,.57h-6C6.23,72.79,5.8,72.6,5.8,72.22Z"
        transform="translate(-5.8 -4)" />
    <path class="cls-1"
        d="M58.48,72.13v.09c0,.38-.34.57-.91.57H50.88c-.57,0-.9-.19-.9-.57v-.09c0-.9,2.23-1,1.62-2.66l-2.28-5.6H33.94l-2.09,5.6c-.66,1.66,1.62,1.76,1.62,2.66v.09c0,.38-.38.57-1,.57H28c-.61,0-.95-.19-.95-.57v-.09c0-.9,1.57-.85,2.23-2.66l10.54-26.9c.57-1.43-1.47-2-1.47-2.8v-.15c0-.28.19-.52.66-.52h2.75A2.15,2.15,0,0,1,44,40.67L56.2,69.47C57,71.23,58.48,71.23,58.48,72.13Zm-10-10.3-7.12-17.6-6.64,17.6Z"
        transform="translate(-5.8 -4)" />
    <path class="cls-1"
        d="M61.32,72.13c0-.85,1.71-.9,1.71-2.61V42.42c0-1.71-1.71-1.75-1.71-2.65v-.1c0-.38.38-.57,1-.57H68.2c.57,0,1,.19,1,.57v.1c0,.9-1.8.94-1.8,2.65v27.1c0,1.71,1.8,1.76,1.8,2.61v.09c0,.38-.38.57-1,.57H62.27c-.57,0-1-.19-1-.57Z"
        transform="translate(-5.8 -4)" />
    <path class="cls-1"
        d="M82.29,72.22v-.09c0-.9,1.76-.95,1.76-2.66V41.14H77.6c-2.43,0-2.71,5.13-4.09,5.13h-.42c-.48,0-.72-.29-.62-1l.76-5.17a1.06,1.06,0,0,1,1.19-1H98a1.13,1.13,0,0,1,1.23,1l1,5.22c.14.61-.14.9-.57.9h-.48c-1.37,0-2-5.13-4.36-5.13H88.32V69.47c0,1.71,1.85,1.76,1.85,2.66v.09c0,.38-.38.57-1,.57H83.24C82.67,72.79,82.29,72.6,82.29,72.22Z"
        transform="translate(-5.8 -4)" />
    <path class="cls-1"
        d="M103.65,72.22v-.09c0-.9,1.7-.95,1.7-2.66v-27c0-1.71-1.7-1.75-1.7-2.65v-.1c0-.38.37-.57.94-.57h5.94c.57,0,1,.19,1,.57v.1c0,.9-1.81.94-1.81,2.65l0,12.15h18.65l0-12.15c0-1.71-1.71-1.75-1.71-2.65v-.1c0-.38.38-.57,1-.57h5.93c.62,0,1,.19,1,.57v.1c0,.9-1.86.94-1.86,2.65V69.47c0,1.71,1.86,1.76,1.86,2.66v.09c0,.38-.38.57-1,.57h-5.93c-.57,0-1-.19-1-.57v-.09c0-.9,1.71-.95,1.71-2.66l0-12.81h-18.6V69.47c0,1.71,1.81,1.76,1.81,2.66v.09c0,.38-.38.57-1,.57h-5.94C104,72.79,103.65,72.6,103.65,72.22Z"
        transform="translate(-5.8 -4)" />
    <path class="cls-1"
        d="M140,72.22v-.09c0-.9,1.76-.95,1.76-2.66v-27c0-1.75-1.76-1.75-1.76-2.65v-.1c0-.38.33-.57.86-.57h20c.76,0,1.05.38,1.19,1.09l1.14,4.7c.14.62-.14,1-.62,1h-.19c-1.52,0-2.61-4.79-5.12-4.79h-9.78c-.85,0-1.37.47-1.37,1.52V56h8.78c1.61,0,1.75-2.8,2.7-2.8h.28c.38,0,.62.29.62.81v5.84c0,.47-.24.8-.62.8h-.28c-1,0-1.09-2.65-2.7-2.65h-8.78V69.47c0,1.71,1.85,1.76,1.85,2.66v.09c0,.38-.38.57-.95.57h-6C140.42,72.79,140,72.6,140,72.22Z"
        transform="translate(-5.8 -4)" />
    <path class="cls-1"
        d="M167.94,59.7V42.42c0-1.66-1.71-1.75-1.71-2.61v-.14c0-.38.38-.57,1-.57h6c.57,0,1,.19,1,.57v.14c0,.86-1.8.95-1.8,2.61V59.7c0,7,3.93,11.53,9.87,11.53,5,0,9.44-4,9.44-11.53V42.42c0-1.66-1.8-1.75-1.8-2.61v-.14c0-.38.42-.57,1-.57H195c.57,0,1,.19,1,.57v.14c0,.86-2,.95-2,2.61V59.74c0,8.21-5.22,13.53-12.67,13.53C173.45,73.27,167.94,68,167.94,59.7Z"
        transform="translate(-5.8 -4)" />
    <path class="cls-1"
        d="M200.92,72.22v-.09c0-.9,1.71-1,1.71-2.66v-27c0-1.75-1.71-1.71-1.71-2.65v-.1c0-.38.38-.57,1-.57h6c.57,0,1,.19,1,.57v.1c0,.94-1.85.9-1.85,2.65V69c0,1.09.52,1.85,1.51,1.85H219c2.75,0,3.32-5.22,5-5.22h.38c.43,0,.67.28.52.85L223.7,71.7c-.15.71-.48,1.09-1.19,1.09H201.87C201.3,72.79,200.92,72.56,200.92,72.22Z"
        transform="translate(-5.8 -4)" />
</svg>