<svg id="Layer_1" data-name="Layer 1" xmlns="http://www.w3.org/2000/svg" viewBox="0 0 326.93 80">
<defs><style>.cls-1{fill:#231f20;}</style></defs><path class="cls-1" d="M11.62,56.16v-.09c0-.88,1.72-.93,1.72-2.6V25.78H7c-2.37,0-2.65,5-4,5H2.62c-.47,0-.7-.28-.6-.93l.74-5.06a1,1,0,0,1,1.16-1H27a1.1,1.1,0,0,1,1.21,1l1,5.1c.14.61-.14.89-.56.89h-.46c-1.34,0-1.95-5-4.27-5h-6.4V53.47c0,1.67,1.81,1.72,1.81,2.6v.09c0,.37-.37.56-1,.56h-5.8C12,56.72,11.62,56.53,11.62,56.16Z"/><path class="cls-1" d="M32.49,56.16v-.09c0-.88,1.67-.93,1.67-2.6V27c0-1.67-1.67-1.72-1.67-2.6v-.09c0-.37.37-.56.93-.56h5.8c.56,0,.93.19.93.56v.09c0,.88-1.77.93-1.77,2.6l0,11.88H56.57l0-11.88c0-1.67-1.67-1.72-1.67-2.6v-.09c0-.37.38-.56.93-.56h5.8c.6,0,1,.19,1,.56v.09c0,.88-1.8.93-1.8,2.6V53.47c0,1.67,1.8,1.72,1.8,2.6v.09c0,.37-.37.56-1,.56h-5.8c-.55,0-.93-.19-.93-.56v-.09c0-.88,1.67-.93,1.67-2.6l0-12.52H38.38V53.47c0,1.67,1.77,1.72,1.77,2.6v.09c0,.37-.37.56-.93.56h-5.8C32.86,56.72,32.49,56.53,32.49,56.16Z"/><path class="cls-1" d="M68,56.16v-.09c0-.88,1.71-.88,1.71-2.64V27.08c0-1.77-1.71-1.81-1.71-2.65v-.14c0-.32.32-.51.83-.51H88.53c.74,0,1,.37,1.16,1l1.12,4.59c.13.65-.1.93-.56.93H90c-1.44,0-2.56-4.64-5-4.64H75.22c-.84,0-1.3.47-1.3,1.58V38.91h8.44c1.76,0,1.72-2.74,2.69-2.74h.19c.37,0,.6.28.6.79v5.7c0,.47-.23.79-.6.79h-.19c-1,0-.93-2.64-2.69-2.64H73.92l0,12a1.77,1.77,0,0,0,1.72,2h10.9C89,54.82,89.74,50,91.36,50h.28c.42,0,.65.42.56.93l-1.12,4.68c-.14.7-.46,1.07-1.2,1.07H69C68.44,56.72,68,56.53,68,56.16Z"/><path class="cls-1" d="M111.4,56.11V56c0-.88,1.71-.92,1.71-2.59V27c0-1.71-1.71-1.71-1.71-2.59v-.09c0-.37.32-.56.83-.56h19.51c.74,0,1,.37,1.15,1.07L134,29.43c.14.6-.13.93-.6.93h-.18c-1.48,0-2.55-4.68-5-4.68h-9.54c-.83,0-1.34.46-1.34,1.48V40.32h8.57c1.57,0,1.71-2.73,2.64-2.73h.28c.37,0,.6.27.6.78v5.7c0,.46-.23.79-.6.79h-.28c-.93,0-1.07-2.6-2.64-2.6h-8.57V53.43c0,1.67,1.81,1.71,1.81,2.59v.09c0,.37-.38.56-.93.56h-5.84C111.82,56.67,111.4,56.48,111.4,56.11Z"/><path class="cls-1" d="M162.82,56v.09c0,.37-.33.56-.88.56H155.4c-.55,0-.88-.19-.88-.56V56c0-.88,2.18-1,1.58-2.59L153.88,48h-15l-2,5.47c-.65,1.62,1.57,1.71,1.57,2.59v.09c0,.37-.37.56-1,.56H133c-.6,0-.93-.19-.93-.56V56c0-.88,1.53-.83,2.18-2.59l10.28-26.27c.56-1.39-1.43-2-1.43-2.73v-.14c0-.28.18-.51.65-.51h2.68a2.08,2.08,0,0,1,2.18,1.53l12,28.12C161.33,55.14,162.82,55.14,162.82,56ZM153.09,46l-7-17.19L139.65,46Z"/><path class="cls-1" d="M165.59,56c0-.83,1.67-.88,1.67-2.55V27c0-1.66-1.67-1.71-1.67-2.59v-.09c0-.37.37-.56.93-.56h5.79c.55,0,.92.19.92.56v.09c0,.88-1.76.93-1.76,2.59V53.47c0,1.67,1.76,1.72,1.76,2.55v.09c0,.37-.37.56-.92.56h-5.79c-.56,0-.93-.19-.93-.56Z"/><path class="cls-1" d="M186.06,56.11V56c0-.88,1.72-.92,1.72-2.59V25.77h-6.3c-2.36,0-2.64,5-4,5h-.41c-.47,0-.7-.28-.6-.93l.74-5.05a1,1,0,0,1,1.15-1h23a1.1,1.1,0,0,1,1.2,1l1,5.1c.14.6-.14.88-.56.88h-.46c-1.34,0-1.94-5-4.26-5H192V53.43c0,1.67,1.8,1.71,1.8,2.59v.09c0,.37-.37.56-1,.56H187C186.43,56.67,186.06,56.48,186.06,56.11Z"/><path class="cls-1" d="M206.91,56.11V56c0-.88,1.66-.92,1.66-2.59V27c0-1.66-1.66-1.71-1.66-2.59v-.09c0-.37.37-.56.92-.56h5.79c.56,0,.93.19.93.56v.09c0,.88-1.76.93-1.76,2.59l0,11.86H231l0-11.86c0-1.66-1.67-1.71-1.67-2.59v-.09c0-.37.37-.56.93-.56H236c.6,0,1,.19,1,.56v.09c0,.88-1.8.93-1.8,2.59V53.43c0,1.67,1.8,1.71,1.8,2.59v.09c0,.37-.37.56-1,.56h-5.79c-.56,0-.93-.19-.93-.56V56c0-.88,1.67-.92,1.67-2.59l0-12.51H212.79V53.43c0,1.67,1.76,1.71,1.76,2.59v.09c0,.37-.37.56-.93.56h-5.79C207.28,56.67,206.91,56.48,206.91,56.11Z"/><path class="cls-1" d="M242.39,56.11V56c0-.88,1.71-.92,1.71-2.59V27c0-1.71-1.71-1.71-1.71-2.59v-.09c0-.37.32-.56.83-.56h19.5c.74,0,1,.37,1.16,1.07L265,29.43c.14.6-.14.93-.6.93h-.19c-1.48,0-2.54-4.68-5-4.68h-9.54c-.84,0-1.35.46-1.35,1.48V40.32h8.57c1.58,0,1.72-2.73,2.64-2.73h.28c.37,0,.6.27.6.78v5.7c0,.46-.23.79-.6.79h-.28c-.92,0-1.06-2.6-2.64-2.6h-8.57V53.43c0,1.67,1.81,1.71,1.81,2.59v.09c0,.37-.37.56-.93.56h-5.83C242.8,56.67,242.39,56.48,242.39,56.11Z"/><path class="cls-1" d="M269.67,43.88V27c0-1.62-1.67-1.71-1.67-2.54v-.14c0-.37.37-.56.92-.56h5.84c.56,0,.93.19.93.56v.14c0,.83-1.76.92-1.76,2.54V43.88c0,6.86,3.84,11.26,9.63,11.26,4.87,0,9.22-3.89,9.22-11.26V27c0-1.62-1.76-1.71-1.76-2.54v-.14c0-.37.42-.56,1-.56h4.08c.56,0,1,.19,1,.56v.14c0,.83-1.9.92-1.9,2.54V43.93c0,8-5.09,13.2-12.36,13.2C275,57.13,269.67,52,269.67,43.88Z"/><path class="cls-1" d="M301.86,56.11V56c0-.88,1.66-1,1.66-2.59V27c0-1.71-1.66-1.66-1.66-2.59v-.09c0-.37.37-.56.92-.56h5.84c.56,0,.93.19.93.56v.09c0,.93-1.81.88-1.81,2.59V53c0,1.07.51,1.81,1.48,1.81h10.29c2.68,0,3.24-5.1,4.86-5.1h.37c.42,0,.65.28.51.84l-1.16,5.09c-.14.7-.46,1.07-1.16,1.07H302.78C302.23,56.67,301.86,56.44,301.86,56.11Z"/></svg>
