<svg width="460.913" height="232.048" viewBox="0 0 121.95 61.396" xmlns="http://www.w3.org/2000/svg"><defs><clipPath id="a"><path transform="scale(1 -1)" fill="#00f" fill-rule="evenodd" stroke-width=".75" d="M-85.218 25.266h345.67v174.04h-345.67z"/></clipPath></defs><path transform="matrix(.35278 0 0 -.35278 30.063 -8.913)" d="M-101.85 4.426v-251.56h381.78V4.426h-381.78M7.26-7.027v-1.636H5.59v1.636h1.67m160.01 0v-1.636h-1.67v1.636h1.67m-190.26-.205v-1.431h-2.712v-6.954l-.215-2.535-1.663-.328v9.817h-2.712v1.431h7.302m2.712 0v-3.476c1.19.94 3.508 1.609 4.082-.41.614-2.161.09-5.12.09-7.362h-1.669v4.908c-.001 1.16-1.053 3.707-2.257 1.614-.686-1.192.672-6.344-1.089-6.48-1.378-.106-1.035 1.763-1.035 2.617v8.59h1.878m19.193 0v-4.705C.688-10.03 1.401-7.234 4.34-7.232l-2.834-4.645 3.251-6.603c-2.753.002-3.633 2.656-4.59 4.908H-.25l-.834-4.908h-1.67v11.249h1.67m56.954 0v-1.432L53.49-8.99l-.335-2.535v-6.954H51.28v9.817h-2.712v1.432h7.301m2.713 0v-3.477c1.27 1.02 3.565 1.649 4.245-.412.693-2.105.136-5.153.136-7.36h-1.877c0 1.836.077 3.689-.004 5.522-.029.647-.236 1.553-1.043 1.652-.785.097-1.292-.817-1.41-1.447-.335-1.804-.047-3.894-.047-5.727h-1.669v11.25h1.67m19.401-6.545c0-2.016.802-4.695-1.877-4.704V-7.23c1.598 0 4.277.502 5.61-.515 1.669-1.27 1.598-4.449-.206-5.574-1.022-.638-2.372-.456-3.527-.456m54.242 6.545v-1.432l-2.378-.328-.334-2.535v-6.954h-1.67v6.954l-.333 2.535-2.587.328v1.432h7.302m2.712 0v-3.477c5.343 3.885 4.381-4.965 4.381-7.772h-1.67c0 1.808.19 3.73-.06 5.522-.085.618-.258 1.518-.995 1.687-.862.198-1.479-.786-1.608-1.482-.336-1.804-.048-3.894-.048-5.727h-1.67v11.25h1.67m19.402-6.545c0-2.016.8-4.695-1.878-4.704V-7.23c1.638 0 4.233.487 5.612-.543 1.598-1.195 1.502-4.48-.206-5.546-1.025-.638-2.372-.456-3.528-.456m0 5.318c0-.929-.399-3.01.215-3.763 1.333-1.639 4.658 2.407 1.658 3.58-.584.228-1.258.181-1.873.183m-76.565-.41v-3.272c3.985-1.155 4.125 4.468 0 3.273m-86.161-5.522h-4.381c0-.407-.02-.823.022-1.228.371-3.576 2.797-.018 4.359 0-.11-2.367-2.772-4.192-4.963-2.515-1.117.856-1.308 2.657-1.292 3.947.033 2.588 3.149 6.8 5.69 3.455.772-1.016.565-2.471.565-3.66m23.366-4.09c-2.536.03-1.66 3.264-1.67 5.113-.004.772.007 2.012-1.05 2.114-2.157.21-1.444-4.38-1.453-5.59-.006-.797-.218-2.056-1.394-1.513-.77.356-.483 1.864-.483 2.535 0 1.925-.968 5.9 1.669 5.93v-.817c5.595 3.268 4.38-4.45 4.38-7.772m6.468 7.976c.14.642 1.07.937 1.391.182.278-.651.07-1.733.07-2.431 0-2.041.74-5.831-.522-7.562-.824-1.13-2.8-1.33-4.068-.88-.57.202-1.786 1.1-1.304 1.829.65.982 1.784-.5 2.347-.682 1.72-.558 1.878 1.506 1.878 2.59-5.195-4.17-6.492 7.753-1.878 7.699.758-.01 1.432-.417 2.086-.745m49.235-3.886c-1.078 0-3.184.396-4.105-.21-.95-.626-.202-2.489.77-2.704 1.45-.32 1.406 2.035 3.336 1.482-.583-2.18-3.513-4.348-5.498-2.001-1.142 1.35-.949 3.66-.723 5.274.343 2.456 3.372 3.95 5.339 1.999.985-.979.881-2.57.881-3.84m15.647 4.636c4.801.77 5.255-8.275 1.252-8.887-4.942-.757-5.527 8.2-1.252 8.887m6.885-8.113v-3.477c-.565.002-1.45-.128-1.752.474-.924 1.842-.126 5.854-.126 7.911 0 .747-.218 1.908.126 2.594.401.8 1.392.404 1.752-.14 6.505 4.484 5.995-12.053 0-7.362m12.1 3.477c-1.078 0-3.185.396-4.106-.21-.95-.626-.202-2.49.771-2.704 1.45-.321 1.406 2.035 3.335 1.482-.573-2.143-3.232-4.224-5.342-2.17-.931.908-1.176 2.778-1.087 4.01.19 2.605 3.08 6.515 5.696 3.25.782-.975.732-2.484.733-3.658m41.725 0h-4.59c.004-.41-.004-.823.063-1.229.603-3.588 2.773.3 4.527-.203-.613-2.296-3.578-4.311-5.526-1.83-.976 1.245-.883 3.414-.693 4.898.303 2.377 3.345 4.206 5.326 2.203.975-.984.893-2.573.893-3.84m17.524 2.864c-3.502-.04-2.503-4.541-2.503-6.954h-1.67c0 2.482-.393 5.315.032 7.76.24 1.383 1.554.653 1.638-.397 1.225 1.43 2.495 1.794 2.503-.41m6.259-6.953c-.505.002-1.306-.115-1.663.328-.375.465-.215 1.37-.215 1.922 0 1.555-.578 4.466.126 5.866.436.866 1.333.28 1.543-.344 3.946 2.303 4.59-.797 4.59-4.09 0-.802.382-2.921-.334-3.472-.502-.386-1.3-.152-1.477.434-.55 1.818.553 4.116-.22 5.878-.428.97-1.613.852-2.104 0-.528-.916-.246-2.438-.246-3.454v-3.068m11.892 5.726h-1.877c-.257 2.246-2.2 1.721-2.554-.204-.198-1.077-.253-2.473.296-3.473.983-1.8 2.189-.231 2.466 1.019h1.67c-.456-2.298-3.045-4.905-5.308-2.408-1.102 1.214-1.083 3.342-.916 4.862.438 3.993 5.664 4.255 6.223.205m7.302-1.637h-4.59c.004-.41-.004-.822.063-1.228.603-3.588 2.772.3 4.527-.203-.58-2.17-3.325-4.244-5.343-2.018-1.11 1.226-1.05 3.349-.88 4.881.269 2.413 3.217 4.545 5.33 2.407.974-.984.893-2.573.893-3.839m6.885 2.045h-1.67c-.496 1.417-2.837 1.573-2.226.022.852-2.169 4.824-1.167 3.806-4.722-.895-3.124-5.687-1.693-5.752 1.224h1.46c.376-1.817 3.207-1.913 2.627-.209-.705 2.077-4.521 1.22-3.979 4.3.587 3.323 5.197 2.052 5.733-.614m6.885.204c-1.37-.393-2.958 1.918-3.787.583-.565-.91.58-1.515 1.284-1.796 1.715-.686 2.987-1.661 2.413-3.694-.88-3.108-5.724-1.715-5.752 1.226h1.46c.445-1.666 3.178-2.03 2.605-.208-.664 2.1-4.563 1.157-3.99 4.298.579 3.165 5.179 2.235 5.767-.409m-196.52-6.34h-1.67v8.59l1.456-.328.214-2.33v-5.932m160.01 0h-1.67v6.545c0 .67-.187 1.984.835 1.984 1.023 0 .835-1.315.835-1.984v-6.545m-179.19 7.354c-1.794-.933-.297-2.924 1.371-2.117 1.199.58-.076 2.791-1.371 2.117m78.003-2.036h2.712c-.03 2.69-2.573 2.613-2.712 0m34.632 0h2.712c-.025 2.697-2.573 2.617-2.712 0m44.437-.205c-.002.402.03.829-.048 1.225-.509 2.6-3.617.008-2.328-1.015.538-.427 1.727-.21 2.376-.21m41.328 2.294c-1.988-.697-.686-2.807 1.18-2.229 1.244.386.128 2.686-1.18 2.229m-167.11-.2c-1.785-.67-1.461-6.464.79-5.619 1.777.667 1.495 6.477-.79 5.62m66.99.002c-1.592-.674-1.43-6.865.96-5.995 1.852.675 1.504 7.04-.96 5.995m7.697-.06c-1.505-.761-1.385-6.729.976-5.796 1.712.677 1.25 6.92-.976 5.795M55.443-44.452c1.94.085 3.497 3.839 4.379 5.318.477.8.894 2.05 2.077 1.602 1.14-.433.74-1.716.543-2.625-.542-2.496-2.287-4.458-3.282-6.75-1.713-3.944-.353-7.919-1.455-11.861-.909-3.25-3.803-5.516-4.46-8.999-.242-1.283-.669-3.002-.579-4.295.114-1.62.938-3.053.155-4.704-1.746-3.68-7.693-3.335-8.226-7.362-1.666 0-3.25.408-4.527 1.54-.722.639-1.06 1.489-1.94 1.936.827-4.496 7.558-5.218 11.265-4.346 1.516.357 2.847 1.224 4.381 1.483-.59-3.077-2.764-7.375-2.294-10.43h.417l2.462 8.794.25 3.068h.208c0-4.477.75-15.965-6.884-13.907l.834 1.227c-1.853.433-3.067-.674-4.794-.642-.582.011-2.335 1.183-2.792 1.584-1.396 1.223-1.997 4.138-2.678 5.807-2.068 5.07-6.188 13.791.876 17.384-.12-1.35-1.858-4.291-.417-5.113.433 2.05.938 5.25 2.712 6.545l-.626-7.772c1.096.895.964 2.376 1.062 3.681.184 2.453.543 4.824 1.336 7.159 1.452 4.268 2.762 8.373 3.2 12.885.327 3.373-.456 6.896.353 10.226.597 2.454 2.314 4.854 3.656 6.953 1.538 2.406 2.864 5.166 4.85 7.264 1.982 2.096 3.542-.314 2.676-2.355-1.73-4.078-5.46-7.07-6.943-11.248-.36-1.016 2.345-3.215 3.302-2.802 2 .865-2.007 2.963-1.84 3.833.45 2.339 3.134 4.604 4.409 6.535.583.883.97 2.262 1.804 2.942 1.939 1.577 2.378-2.1 2.073-3.146-1.01-3.473-3.743-6.34-5.543-9.408m41.099 11.658c-2.453-.251-4.256 3.418-6.885 2.634-2.468-.736-4.372-2.304-6.467-3.68-7.113-4.67-12.644-12.176-15.687-20.02-1.208-3.113-2.86-5.96-2.663-9.407.192-3.349 2.783-7.245 4.184-10.226.94-2 1.658-5.966 3.257-7.472.626-.589 1.208.528 1.53.925 1.388 1.718 3.445 2.865 5.415 3.838 7.047 3.478 12.44 2.396 19.402-.563 2.17-.922 3.765-2.264 5.424-3.886.488-.477 1.272-1.56 2.078-1.243 1.334.523 2.247 2.965 2.932 4.106 1.612 2.684 3.319 5.144 4.662 7.977.672 1.417.791 3.194 1.594 4.499.566-1.497-.281-2.645-.713-4.09-1.123-3.757-2.923-7.74-5.066-11.044-.605-.936-1.744-3.53-2.978-3.699-.817-.111-1.786 1.168-2.3 1.656-1.558 1.478-3.267 3.297-5.216 4.267-6.553 3.264-16.015 3.805-21.905-1.064-1.81-1.497-3.04-3.656-4.173-5.66-1.332.375-1.814 1.774-2.49 2.863-1.676 2.698-3.213 5.561-4.653 8.386-2.135 4.186-3.543 8.976-2.555 13.703.781 3.737 2.74 7.068 4.457 10.43.57 1.116.775 2.395 1.402 3.476 2.104 3.626 4.723 6.54 7.559 9.613 2.73 2.957 5.825 4.875 9.424 6.668 1.915.955 3.156 1.967 5.424 1.69 2.915-.356 6.082-2.734 8.172-4.598 5.3-4.729 8.62-10.214 11.773-16.44 1.085-2.142 2.115-4.45 2.795-6.75.16-.54.697-1.777.207-2.272-.547-.55-1 .738-1.11 1.046-.655 1.808-1.28 3.654-2.266 5.317-2.597 4.38-5.044 8.99-8.397 12.885-1.711 1.988-5.211 3.768-6.167 6.136m9.597-48.266h-.417c-5.587 6.275-15.376 10.198-23.574 7.063C79.91-74.85 77.642-76 75.68-77.36c-1.093-.759-1.925-1.918-3.13-2.472-.708 1.801-1.539 3.535-2.291 5.317-.268.634-.77 1.502-.286 2.144 1.87 2.48 6.275 3.745 9.045 4.928 1.38.588 3.24 1.264 3.826 2.746.637 1.613.595 3.614.823 5.317.738 5.503.567 11.02.567 16.566 0 2.515-.617 6.717.63 8.99 2.157 3.929 7.738 2.912 10.36.295.67-.669.356-1.507.294-2.332-.133-1.782-.227-3.527-.227-5.317 0-5.716-.417-11.44-.417-17.18 0-1.9-.819-4.744-.083-6.533.535-1.3 3.078-1.164 4.255-1.476 3.279-.87 6.629-2.333 9.388-4.262.75-.524 2.537-1.453 2.587-2.473.04-.79-.839-1.61-1.243-2.231-1.231-1.883-2.569-3.755-3.639-5.727M52.731-31.156l-1.46-2.454h-.208l1.669 2.454m44.02-3.272c5.133-4.621 8.872-9.355 12.28-15.34 1.533-2.693 3.315-5.473 3.784-8.589-1.798 0-4.433.153-6.046-.704-1.05-.557-1.733-1.972-.582-2.825.86-.637 2.114-.277 3.082-.187 1.683.157 3.33-.165 5.007-.17.888-3.769-1.644-6.276-2.295-9.816-1.888.716-3.462 2.4-5.216 3.424-3.203 1.869-7.32 3.442-11.057 3.734 0 7.214.234 14.469.414 21.679.062 2.457-.683 6.645.63 8.794m-13.145-.205c-.16-7.643.846-16.222-.695-23.724-.394-1.916.1-4.865-1.127-6.501-1.047-1.394-3.528-2.018-5.062-2.752-2.053-.983-3.975-1.826-5.841-3.135-.498-.349-1.35-1.118-2.004-.736-.912.532-.974 2.213-1.244 3.103-.9 2.96-2.366 5.208-1.623 8.385 1.655 7.081 6.11 14.753 11.06 20.101 1.89 2.043 3.885 4.18 6.537 5.26m55.076-32.315c-1.852.186-4.414 2.137-6.256 1.68-1.628-.405-2.756-3.18-3.795-4.339-1.538-1.711-3.649-2.827-5.013-4.704-1.33-1.828-1.298-4.137-2.176-6.135-.553-1.26-1.786-2.044-2.37-3.273l2.086 1.841h.208c.002-4.347-.49-7.883-1.877-12.067l-1.878 1.227.835 6.136c-1.323-.758-1.064-4.275-1.252-5.727l-2.295.614c.142 6.487 3.338 12.923 3.075 19.429-.136 3.298-1.673 6.783-2.866 9.817l.834.204c.657-1.978.678-5.927 2.575-7.207 1.279-.863 3.553.416 4.573-1.224.644-1.035-1.129-4.044-2.535-3.406-1.214.55-1.168 2.669-1.9 3.657-.73-4.572 4.495-5.822 5.007-.818 1.91.178 3.822 3.617 5.215 4.89.39.356 1.625 1.07 1.506 1.698-.112.581-1.254.816-1.715.991-1.45.55-3.323 1.476-4.145-.422-.657-1.521-.753-3.323-1.28-4.908-1.745.354-2.657.562-4.38 0 .705 1.366 2.666 5.891 1.54 7.3-.81 1.016-2.702.677-3.835.676-3.263 0-6.53.205-9.805.205.709 1.263 2.476.955 3.755 1.04 1.932.13 3.901.353 5.841.128 1.409-.162 3.278-.714 4.571.077 1.181.723.872 2.085 1.079 3.254.52 2.919 1.012 5.628 1.13 8.59.028.655 1.083 3.512 1.805 3.57 2.026.16 1.7-2.435 1.471-3.57-.594-2.939-1.498-5.778-1.502-8.794-.002-.979-.355-2.183.21-3.056.708-1.092 2.38-1.213 3.545-1.53 2.994-.817 10.001-2.146 10.014-5.845M75.263-88.832l-2.086 1.84c3.54 10.85 16.681 12.747 26.078 7.747 1.93-1.027 3.664-2.96 5.216-4.474 1.507-1.47 4.1-1.799 4.83-3.886.998-2.854-.45-6.91-2.563-8.96-.734-.712-1.862-.888-2.483-1.702-1.822-2.389-1.9-5.85-3.83-8.145-2.715-3.232-8.76-3.287-12.644-3.28-1.492.001-3.43.11-4.763.838-3.06 1.672-3.627 5.682-5.294 8.365-1.062 1.71-2.073.812-3.273 1.874-1.186 1.05-1.225 2.677-1.713 4.057-.495 1.405-1.413 2.548-1.435 4.09-.01.714.003 2.437.889 2.702 1.047.313 2.024-1.025 3.07-1.066m-21.07 11.453c.634-1.661.243-3.114-.418-4.704h-.208l.626 4.704m-1.043-.818l-.418-4.704c-2.511-.838-4.409-1.432-7.093-1.432.01 2.651 2.841 2.816 4.798 4.063.969.617 1.697 1.57 2.713 2.073m-18.776-.409c.437-5.429 4.127-10.178 5.632-15.339-1.83.038-2.818 1.035-4.172 2.124-1.411 1.135-3.752 3.038-4.259 4.84-.587 2.086 1.458 6.789 2.799 8.375m82.824-1.636l-.209-.205c.2-.852.344-1.736 1.252-2.045l-.626 2.25h-.417m96.384-24.133h-.209c-.603.49-1.158.044-1.877.29-1.252.428-2.22 1.479-3.13 2.369a85.636 85.636 0 00-2.981 3.064c-1.077 1.167-2.101 1.853-3.695 1.367-.411-.126-2.687-.637-2.103-1.43.524-.71 2.998.698 3.98.206 2.602-1.303 4.169-4.57 6.677-6.163 1.03-.654 2.344-1.553 3.337-.521h.21c.586-2.196 1.931-4.285 2.25-6.545.307-2.16-.525-4.09.02-6.34.731-3.022 2.636-5.535 3.383-8.59.8-3.276-.467-5.824-.626-8.998-.087-1.79.935-3.5.714-5.318-.211-1.735-2.216-3.348-3.282-4.704-.964-1.227-1.709-4.33-2.933-5.076-.755-.46-2.016-.241-2.865-.241-1.379 0-3.277-.145-4.59.216-1.333.367-2.409 1.348-3.755 1.758-1.124.342-2.726.156-3.728.72-1.965 1.11-1.446 5.646-2.09 7.532-1.024 2.997-2.733 1.846-4.821 3.173-1.811 1.152-2.128 2.775-2.986 4.598-.365.775-1.172 2.737-2.143 2.914-.607.11-1.658-1.014-2.173-1.303-2.066-1.165-4.281-2.152-6.468-3.073-4.788-2.016-9.945-1.989-15.02-.681-2.823.726-4.837 3.401-7.72 4.201-3.16.877-6.697-.567-9.805.699-2.72 1.108-4.527 4.52-7.72 3.379l1.461-2.045-.209 1.227c1.423-.155 5.005-2.375 5.59-3.717.308-.71-.165-1.82-.042-2.623.459-2.97.83-6.348 1.754-9.204-5.105-.809-3.621 4.262-5.56 6.714-.97 1.226-3.033 1.047-3.823 2.329-.39.635-.3 1.515-.589 2.206-1.043 2.492-2.887 7.078-2.14 9.817.496 1.817 2.286 2.85 2.774 4.704.482 1.831-.323 4.76 1.129 6.238.807.822 2.528 1.043 3.62 1.329 2.195-2.817 3.722-1.281 6.676-1.004 1.558.147 2.708-1.64 4.59-1.412 2.192.265 3.383 2.227 5.632 2.522 2.247.295 4.01-2.55 6.259-2.742 1.552-.134 3.177.975 4.59.8 1.63-.202 2.5-1.487 4.38-1.164 1.987.34 4.348 2.058 6.45 1.479 1.59-.439 2.47-2.739 3.982-3.554 1.917-1.034 3.943-.041 5.633-.738 1.556-.641 2.64-2.353 4.172-3.16 1.506-.795 3.8-.864 5.11-1.863.504-.385.6-1.11 1.028-1.573 1.014-1.097 2.28-1.09 3.668-1.09-.361-5.006 4.35-5.412 7.183-1.986.377.458.573.995.352 1.57-.4 1.044-1.175 1.417-1.028 2.666.164 1.414 1.537 3.107 1.23 4.5-.667 3.03-4.337 2.139-5.653 3.95-.645.888-.077 2.032-.29 3.004-.29 1.338-1.636 2.737-2.664 3.6-2.3 1.931-4.988-.758-7.408.409-.733.353-.457 1.684-.79 2.33-.533 1.048-1.608 1.852-2.615 2.436-3.067 1.776-6.334-.081-9.578.352-1.079.144-2.704 2.847-3.774 3.531-2.04 1.305-4.836 1.87-6.885.322-1.018-.77-1.55-1.993-2.712-2.55a6.155 6.155 0 01-1.26 1.84c-2.535 2.598-6.023.984-8.537-.942-.624-.479-1.014-1.347-1.715-1.702-1.385-.7-2.919 1.126-4.344.936-2.808-.375-4.996-3.253-7.719-3.609.77 1.378 2.604 1.985 3.668 3.158.666.733.674 1.752 1.202 2.56.597.912 1.65 1.275 2.326 2.092.83 1.002.989 1.952 2.193 2.7 2.11 1.308 4.994 1.255 6.882 2.83 1.196.998 2.039 2.283 3.34 3.191 1.202.839 2.625 1.15 3.756 2.118 1.347 1.157 2.526 2.923 4.38 3.32 1.801.386 4.004.838 5.842.449 3.177-.674 6.265-2.74 9.388-3.733 1.456-.463 2.965.071 4.381-.424 2.345-.82 4.031-2.543 6.468-3.26 1.93-.568 4.047-.473 5.841-1.5 5.16-2.955 7.788-9.563 8.554-15.137M93-83.31c1.03-.21 5.402-.328 5.841.41-1.679.766-4.754 1.627-5.841-.41m-14.186-2.25l5.215 1.976 3.13-.544c.194 1.256-1.27 1.404-2.295 1.429-1.856.045-5.683-.72-6.05-2.86m100.97 1.14c-2.982-.37-5.98-.962-8.971-.512-.467.07-1.481-.025-1.024-.754.588-.943 2.589-.697 3.527-.692 3.415.016 6.808 1.304 10.223.458 2.763-.685 4.246-2.058 5.806-4.344.413-.603 1.406-2.82 2.316-2.675.783.125.23 1.094.021 1.448a36.595 36.595 0 01-2.666 3.885c-1.978 2.534-6.075 3.578-9.232 3.186m-87.622-1.754c1.882-.4 5.015-.542 6.885 0-1.35 2.111-5.717 2.396-6.885 0m-12.517-.613c1.83-.454 5.922-.41 6.885 1.431-2.15.674-5.724.95-6.885-1.431m8.136 2.045c-.675-1.374-.418-2.854-.768-4.295-.225-.925-.841-1.607-1.23-2.454-.239-.518-.49-1.417-.082-1.922.395-.488 1.322-.276 1.872-.312 1.349-.089 4.895-.556 5.424 1.007l-6.676-.205c.558 2.747 2.809 5.088 1.878 8.18h-.417m85.953-2.95c-3.167-.422-5.75-1.228-8.971-1.148-.446.01-1.805-.162-1.114-.895.711-.754 3.28-.585 4.243-.493 3.829.363 6.891 1.884 10.848 1.055 2.846-.596 5.324-2.054 7.267-4.158.553-.6 1.963-2.972 2.897-2.827.797.123.107 1.286-.108 1.6-.914 1.33-2.14 2.58-3.38 3.62-3.062 2.57-7.696 3.779-11.682 3.247M106.35-90.06l-.626-2.658c1.648.07 2.12 1.92.626 2.658m-31.294-5.317h.417c.095.408-.45 4.118-.516 4.14-.615.212-1.001-.626-1.073-1.074-.175-1.09.637-2.176 1.172-3.066m100.14 3.969c-2.105-.078-3.835-.986-5.841-1.41-2.402-.505-4.684-.31-7.094-.31-.4 0-2.852-.152-1.594-1.017.854-.586 2.886-.21 3.89-.21 1.793 0 3.669-.029 5.423.39 2.525.6 4.607 1.655 7.302 1.18 2.475-.436 4.5-2.83 6.259-4.428.621-.564 1.92-1.905 2.885-1.676 1.4.332-2.088 2.738-2.468 3.07-2.75 2.406-4.844 4.556-8.762 4.411m28.581-.393c-.436-.09-4.268-1.722-2.645-2.182 1.341-.38 2.587 1.57 4.087.816 1.233-.62 2.196-4.088 3.74-3.862 1.123.164-.34 1.744-.584 2.061-1.254 1.63-2.115 3.681-4.598 3.166m-74.48-29.14c-.812.182-1.725.583-2.564.352-1.344-.37-1.976-1.728-3.069-2.468-1.064-.72-2.733-.685-3.964-.446-1.685.326-1.656 2.339-2.443 3.585-1.658 2.632-3.14 5.488-5.017 7.976-.803 1.066-2.382 2.028-2.846 3.273-.477 1.286.611 2.05 1.127 3.067-1.34.352-2.174 2.19-.599 2.963 1.008.495 2.06-.01 3.098.136.578.081.785.32 1.048.787-1.075.196-2.566-.049-3.516.503-1.08.627-.697 2.63.399 3.055 1.362.53 2.935-.487 4.368-.08-1.218.91-3.997.658-4.76 1.886-.975 1.564.331 3.224 1.84 3.68 1.869.567 4.16-.15 5.633-1.34 6.052-4.892 4.959-12.357 7.493-18.952 1.054-2.747 3.747-4.981 3.772-7.977m-51.322-18.202h.418l.834 2.66h.209l-.019-12.477-1.8-12.68-.267-6.34h-.21c-.314.906-.714 1.78-1.1 2.659-.192.433-1.31 4.125-2.016 3.177-.613-.825.601-2.816.942-3.586 1.038-2.348 3.068-5.92 1.34-8.386-.876 1.477-1.764 3.245-2.185 4.909-.096.379-.174 1.67-.89 1.39-1.03-.404.024-2.42.252-3.026.65-1.72 2.154-3.302 2.681-4.967.333-1.05-.136-2.746-.275-3.828-2.003 1.44-2.024 6.259-4.382 6.954.005 6.665 1.427 13.431 2.236 20.043.191 1.565.35 3.137.536 4.704.053.449.279 1.337-.312 1.566-.847.327-.942-1.744-.984-2.18-.267-2.805-.777-5.582-1.043-8.385-.454-4.786-1.33-9.52-1.666-14.316-.232-3.327.195-6.693-.037-10.02-.249-3.559-.816-7.06-.816-10.636-4.01 0-8.823.707-12.726-.204-.636 3.687.367 7.726.2 11.453-.502 11.259-.409 22.68-.409 33.95 0 3.952-.723 7.963-1.34 11.862-.19 1.205-.006 3.223-1.163 3.886.203 2.52 1.32 5.542.417 7.976-1.577-.846-2.978-.096-4.59.409.274 1.482 1.359 2.725 1.98 4.09 1.164 2.563.325 4.987 3.653 5.727-.544.967-1.484.818-2.503.818l.835 10.84.417 6.749c4.14-1.539 4.162-6.299 7.101-8.961 1.969-1.783 4.759-3.808 7.294-4.716 1.54-.552 4.052-.25 5.295-1.342 1.42-1.247 2.053-3.36 2.783-5.024 2.588-5.9 2.572-12.883 2.126-19.225-.127-1.804-1.1-3.746-.816-5.522m5.633 44.79c-.457-1.579-1.94-5.344.417-6.135l.209 6.135h-.626m-40.473-1.84c-.974-1.31-3.407-1.845-4.38-.205l4.38.204m-22.949-31.905c-2.24-2.224 3.298-3.453 3.93-4.781.28-.586-.316-1.207-.437-1.763-.146-.67.163-1.384.263-2.046-2.455 1.124-7.988 3.51-10.323.772-.834-.977-.192-2.286.349-3.226 1.025-1.779 2.233-3.874 3.044-5.726.411-.94-.404-1.789-.657-2.659-.55-1.899-.046-3.667-1.482-5.309-3.372-3.855-10.474.12-14.506.827-.819.143-1.686.65-2.503.665-2.059.037-3.391-1.895-3.964-3.546l.834-.204c.895 5.095 4.492-.23 4.642-2.864.18-3.136-1.064-6.472-1.285-9.612-.352-5.009 0-9.925-.645-14.93h-.209l-1.901 5.931-2.238 7.363-11.226 14.93-4.299 13.907-5.58 11.658c2.763-1.417 5.31.283 7.72 1.816 2.015 1.282 6.456-.606 7.124 2.885.263 1.372-2.05 2.038-2.82 2.792-.798.784-1.114 2.005-1.692 2.937-1.652 2.66-3.124 3.125-2.273 6.545.135.541.154 1.507.62 1.887.49.398 1.408.097 1.962.004 3.58-.602 1.65-5.371 4.022-7.315.881-.723 2.493.515 3.488.72 0-1.1.098-2.226-.306-3.272-.564-1.459-1.887-2.88-1.363-4.5 2.311.958 4.352.37 6.676-.156.731-.166 2.384-.73 3-.126.64.627-.054 2.038-.259 2.737-.714 2.432-2.178 4.293-1.59 6.953.425 1.918 2.004 2.727 2.977 4.295 1.05 1.692 1.6 3.509 2.861 5.113 1.709 2.174 4.054 3.608 6.151 5.384 1.096.927 1.574 3.202 2.746 3.806.975.503 2.303-.476 3.308-.523 1.41-.065 2.58-.56 3.963-.672.925-.074 2.065.195 2.92-.23 2.446-1.212 3.796-4.815 4.834-6.947.616-1.266 1.826-2.207 2.468-3.477.403-.797.115-1.68.605-2.453 1.066-1.684 1.785-2.082 2.208-4.091.21-1 1.078-1.953.684-3.019-.296-.799-1.97-.787-2.639-1.357-1.124-.959-1.443-2.836-1.633-4.214-.194-1.412-.269-2.681.006-4.09.243-1.245.931-2.598.407-3.878-1.459-3.559-7.858.455-7.982 3.06m32.754 31.7l-.209-6.954h-1.877l.417 2.045c-1.173-.223-1.876-1.033-2.92-1.52-2.657-1.243-6.046-.887-7.094 2.133l2.833-.745.222 1.76 2.388 2.376 6.24.904m42.55-.515c-2.915-.27-5.87.081-8.752-.697-.4-.108-3.298-1.162-2.366-1.834.584-.422 2.092.13 2.783.135 2.908.021 5.618-.462 8.34 1.117.665.386 1.191 1.39-.005 1.279m104.74-4.283c-1.05-.18-2.37-.329-3.306-.854-.486-.274-.703-.952 0-1.135 1.904-.497 3.782 1.686 5.81.44 1.508-.925 3.19-2.313 4.302-3.674.661-.809.99-1.877 1.775-2.581.67-.6 1.905-1.464 2.87-1.236.458.108.883.6.501 1.03-.55.622-1.823.538-2.507 1.218-2.656 2.645-4.799 7.59-9.445 6.792m-30.459-6.45c-.987.283-3.922 3.122-2.232 4.073.886.498 1.375-.992 2.23-.876.311.042 3.787 2.777 2.764-.129-.425-1.206-2.03-1.99-2.762-3.068m-16.899 4.5c.824-1.33.626-2.79.626-4.296l-4.172 1.023c.513 1.476 2.128 2.653 3.546 3.272m-50.348-.545l-.07-.136.07.136m-49.792-.273c.408-1.87-.223-6.179-2.086-6.953.304 1.39 1.005 2.662 1.22 4.09.156 1.023-.074 2.2.867 2.863m-1.67-.409v-.204l-1.042-1.023c-.304.855.227 1.163 1.043 1.227m51.32 0c-.854-6.594-7.21-9.088-13.351-7.363-1.286.362-3.343.754-4.173 1.841 4.583-1.263 11.425-.75 15.226 2.327 1.105.895 1.33 2.247 2.298 3.195m1.252-.613c.88-.41 1.965-.736 2.622-1.476.82-.922.716-2.294.716-3.433-.002-3.942-4.464-7.944-7.779-9.78-1.22-.676-3.215-.15-4.53-.055-1.543.11-4.028.03-5.38.839-1.072.64-1.93 2.31-2.715 3.27-2.084 2.553-4.674 4.844-5.883 7.976 1.239-.987 2.134-2.15 3.547-2.975 1.18-.69 3.066-1.083 4.015-2.038 1.005-1.01 1.708-3.31 3.287-3.645 1.907-.407 4.156 2.337 5.19 3.5 1.129 1.27 3.095 1.527 4.338 2.79 1.411 1.434 1.534 3.417 2.572 5.027m81.99-5.318c-.137.985-.614 2.07-.283 3.059.403 1.195 3.288 2.613 4.446 1.9 1.742-1.076 1.208-3.734-.448-4.66-1.014-.57-2.587-.299-3.716-.299m-106.82 4.908c1.565-4.214 4.335-7.203 7.135-10.635.857-1.05 1.882-3.2 3.099-3.797.736-.36 1.692-.32 2.492-.447 2.217-.353 5.326-1.178 7.51-.43.94.323 1.528 1.228 2.298 1.81 2.465 1.863 5.74 4.454 6.556 7.568.317 1.21-.037 2.466-.092 3.681 2.258-1.556 2.94-6.238 2.189-8.794-.332-1.128-1.33-1.953-1.72-3.068-.556-1.593-.63-4.296 1.409-4.704-.125-5.923-1.775-12.22-2.99-17.998-.322-1.529.001-4.63-1.152-5.807-1.027-1.047-3.71-.672-4.829-.102-.511.26-1.797 1.208-2.355.652-.55-.548.59-2.043.639-2.719.15-2.091-1.903-4.84-4.122-4.976-1.003-.062-2.037 1.313-2.715 1.926-2.189 1.976-3.854 4.464-6.069 6.363-.804.689-2.734 2.568-3.82 1.325-1.46-1.672 1.061-3.568 1.241-5.047.128-1.048-.97-2.01-1.086-3.068-.084-.77.365-1.49.239-2.25-.366-2.193-1.194-4.804-2.152-6.748-.325-.66-.644-3.14.412-3.356.929-.19 2.603 1.49 3.307 2 2.396 1.738 4.34 3.22 7.093 4.398.768.328 1.813 1.194 2.694 1.052 1.912-.308 4.337-4.348 3.811-6.14-.263-.898-1.571-1.707-1.461-2.655.321-2.768 5.039-.463 6.013.201l-3.964-24.747H75.26c1.708 8.108 2.708 16.703 3.512 24.951.172 1.763-.109 3.555.07 5.318.623 6.106 1.753 11.824 1.753 17.998 0 3.682.09 7.358.09 11.044 0 1.25.443 3.195-.835 3.885l-.542 9.204-4.882 11.044 4.38 3.068m66.76-.818l-.834-2.455-2.92 1.227v.614l3.755.614m51.113-6.545c2.395.661 2.983 1.128 3.338 3.477.886-.608 2.954-4.341 2.27-5.402-.843-1.306-3.558-2.781-4.853-1.233-.47.559-.578 2.39-.755 3.158m-124.76 1.023c-.473-1.57-.132-3.29-.523-4.909-.72-2.987-2.344-5.602-1.98-8.794 1.233.401 1.004 2.574 1.254 3.681.756 3.346 2.74 6.456 1.666 10.021h-.418m39.221 0c1.536-1.96 4.505-5.59 4.3-8.18-.075-.946-.933-3.28-2.026-3.465-.684-.116-1.579.27-2.274.335-.52.05-1.49-.248-1.871.193-1.675 1.93 1.272 4.738 1.606 6.413.299 1.509-.346 3.275.265 4.704m-91.377-5.113l-.625-1.636-6.885 2.454-.209-.204c.49-.986.886-2.444 1.7-3.196 1.874-1.73 5.363-2.302 5.394.946 1.622-.436 2.491.73 3.963.984.797.137 1.53-.34 2.273.163 2.012 1.357.403 3.056-1.248 3.638-.62.219-1.231-.07-1.859-.022-1.642.127-3.397.519-5.007.893-.958.222-2.14.925-3.13.782-.98-.142-2.903-.93-3.199-1.94-.219-.746.435-1.449 1.115-1.68 1.282-.435 2.852.175 4.171-.022 1.281-.19 2.267-1.066 3.547-1.16m69.889 4.09c2.185-.554 3.856-.493 6.05-.204v-.204c-1.803-1.332-3.683-3.344-5.49-1.023-.363.466-.64.858-.56 1.432m5.216-5.522c2.772.237 8.785 2.551 10.014 5.113l-.209.204c-2.546-.96-4.962-2.58-7.51-3.65-.958-.402-2.098-.55-2.295-1.667m51.87 4.481c-.755-.56.459-1.785.932-2.068 1.728-1.03 3.872-1.19 5.821-1.51 4.45-.733 8.827-1.294 13.352-1.1 3.711.16 7.11.954 10.848.275 2.161-.392 4.36-1.497 6.048-2.864.394-.32 1.343-1.54 1.957-1.083.782.582-.73 1.79-1.12 2.106a15.395 15.395 0 01-6.05 2.941c-4.678 1.081-9.103-.152-13.77-.352-3.615-.156-7.276.815-10.847 1.25-1.692.207-3.975.416-5.404 1.394-.409.281-1.158 1.464-1.767 1.011m-94.847.018c-.007-2.66-.991-6.193-3.13-7.976-.799 1.259-2.26 2.559-2.455 4.09-.313 2.466 3.641 3.73 5.585 3.886m17.524-44.381c1.437.463 1.628 3.6 2.028 4.908 1.653 5.408 1.938 10.957 1.936 16.566 0 1.48.17 5.823-1.67 6.136l.608-13.09-1.65-9.407h-.209c0 4.423-1.096 9.407-2.218 13.703-.595 2.282-1.632 4.581-1.737 6.954-.159 3.547 1.69 6.275 2.388 9.612.532 2.545.089 5.686-.519 8.18-1.084-.352-.812-1.33-.6-2.249.445-1.942.707-4.203.074-6.135-.884-2.7-2.262-5.286-2.34-8.181-.078-2.83 1.058-5.487 1.745-8.181.891-3.494 1.42-7.112 2.067-10.635.49-2.672-.426-5.553.097-8.18m115.79 32.518c-.432 2.599-6.676 2.706-8.762 2.656-2.57-.062-4.95-1.669-7.51-1.607-2.341.057-4.699 1.028-6.885 1.742a136.054 136.054 0 00-11.892 4.509c-2.174.942-7.577 2.746-9.726.911-.455-.388-.175-.864.35-.953 1.133-.19 2.368.378 3.535.275 2.708-.241 5.224-1.347 7.719-2.339 5.007-1.988 10.74-5.116 16.273-5.304 3.403-.116 6.396 1.68 9.805 1.534 2.453-.106 4.677-1.373 7.093-1.424m-143.95 4.5l-.208 2.25c1.946-.295 3.677-3.177 4.966-4.558.508-.546 1.218-1.182 1.134-1.987-.195-1.875-1.993-3.37-1.72-5.318h.418l2.295 5.113h.417l2.504-1.636-.835 2.045 3.13.41-3.547-20.453c-4.804 1.078-10.04 3.995-12.941 8.011-1.25 1.731-1.569 4.048-2.605 5.897-1.561 2.785-3.722 5.393-4.393 8.59-.233 1.112.12 2.526.12 3.68 1.189-.383 1.775-1.84 2.342-2.862 1.372-2.472 3.018-4.754 4.5-7.159.658-1.069 1.105-3.209 2.545-3.272-1.617 3.333-4.38 6.27-4.38 10.021h.208l1.878-2.454c.181 1.957-1.089 4.705-.641 6.513.233.941 2.312.37 2.869-.005 1.14-.764.045-2.745 1.944-2.827m88.874 2.659c2.128-2.521 1.886-4.362 2.593-7.363.666-2.826 1.581-5.8 2.45-8.59.719-2.31 3.79-1.696 4.435-3.886.632-2.152-.09-4.732.179-6.953.63-5.244.812-10.55-.376-15.748-.292-1.278-.976-2.42-1.303-3.682-1.638-6.275-3.353-11.485-10.481-13.498-1.083 4.59-4.177 8.58-5.957 12.885-1.185 2.867-2.39 6.54-2.768 9.613-.281 2.313.034 4.629-.334 6.953-.542 3.42-2.15 6.274-1.998 9.817 4.481-.852 8.879.488 12.1 3.682 1.29 1.278 2.366 2.608 3.035 4.294.161.403.63 1.566-.125 1.712-.548.106-.76-.749-.901-1.098-.572-1.405-1.463-2.741-2.47-3.886-2.385-2.712-7.636-4.667-11.222-3.477l.513 4.704 1.364 8.59c1.63-.068 3.292-.475 4.799.41 1.097.646 1.744 1.973 2.929 2.45.928.375 2.564-.68 3.21.11.687.843.038 2.04.328 2.961m-96.385-4.09h-.209l-2.086 3.682c1.627-.468 2.1-2.197 2.295-3.681m82.824 2.454c1.454-3.495.574-5.858.06-9.408-.456-3.139-.656-6.279-1.216-9.408-.35-1.969.837-3.882.484-5.727-.673-3.505-2.02-6.992-2.995-10.43-1.932-6.813-3.756-13.658-5.748-20.452-1.073-3.663-1.395-7.694-2.042-11.453-.198-1.145-.122-3.678-.857-4.58-.442-.542-1.839-.379-2.498-.532l-.209.204c3.949 15.714 5.952 32.136 8.883 48.062 1.436 7.808 1.771 16.954 6.138 23.724m79.198-2.462c-.473-.361-.05-.887.32-1.105 1.614-.955 3.302-2.425 4.975-3.198.54-.25 1.46-.553 1.948-.037.739.781-.893 1.154-1.322 1.373-1.147.583-4.37 4.147-5.92 2.967m-53.054-.838c-1.412-.296 1.315-1.898 1.811-1.974 3.722-.57 6.766-.002 10.431-1.358 6.305-2.333 10.944-6.661 18.15-5.55 3.16.488 5.05 2.648 7.72 4.098 1.103.599 3.23.032 4.042.842 1.258 1.255-3.45.802-4.043.573-2.144-.83-3.757-2.688-5.841-3.685-1.963-.939-4.774-.953-6.885-.634-4.218.638-7.596 3.514-11.474 5.085-3.947 1.6-7.106 1.599-11.266 1.793-.872.04-1.827.981-2.645.81m-42-68.486h-1.46l3.354 20.86 8.12 47.04c.686-.002 1.852.137 2.15-.66.439-1.172-.427-3.261-.638-4.453-.64-3.615-1.262-7.234-1.971-10.84-3.399-17.276-6.232-34.658-9.555-51.948m96.407 65.41c-.795-.11-.378-1.013-.115-1.396.684-.995 1.59-1.933 2.595-2.613 2.418-1.635 5.322-1.753 8.137-2.146 1.093-.153 2.687-.475 3.755-.134.621.198 2.78 2.414 1.24 2.66-.69.11-1.305-1.094-2.075-1.213-2.405-.371-5.885.107-8.136.977-1.383.535-2.695 1.45-3.734 2.488-.417.418-.945 1.476-1.667 1.377m-198.84-59.07l-.417-5.317c-.665 1.066-.623 2.398-1.303 3.476-1.369 2.17-3.378 3.834-4.832 5.931-2.857 4.122-4.878 8.791-7.4 13.09-.887 1.51-2.337 2.572-3.235 4.09-2.76 4.662-3.895 10.016-8.065 13.886-2.648 2.457-8.97 1.564-12.3 1.1-1.653-.232-5.012-.297-6.004 1.445-.573 1.005.554 3.4.88 4.43.713 2.258 2.272 2.706 3.716 4.333 2.155 2.429 3.878 5.241 6.21 7.526.83.814 4.054 3.75 5.35 2.925 1.408-.896 1.8-3.783 2.582-5.172 1.861-3.301 3.435-6.592 4.493-10.226.95-3.265 1.49-6.97 3.037-10.02.842-1.658 2.358-3.002 3.46-4.5 1.827-2.485 3.48-5.097 5.334-7.567 1.066-1.422 2.427-2.645 3.111-4.295 1.461-3.523 2.035-7.426 3.297-11.044.435-1.246.869-3.448 2.086-4.09m193.46 57.024c-.613-.088-.352-.862-.167-1.192.655-1.165 1.83-2.08 2.725-3.063 1.45-1.597 3.16-2.957 4.67-4.503 2.09-2.144 3.842-4.882 7.31-4.437 2.033.261 4.31 1.32 5.832 2.658.265.234 2.137 2.35.812 2.35-.812 0-1.644-1.4-2.264-1.841-1.894-1.345-4.835-2.657-7.093-1.426-1.427.778-2.274 2.17-3.356 3.31-1.663 1.753-3.543 3.292-5.135 5.113-.682.78-2.08 3.211-3.333 3.032m-42.001-7.123c4.9 0 9.559-.33 14.395-.952 3.342-.43 7.105-1.262 10.43-.348 3.049.838 5.905 2.596 8.763 3.896.707.321 2.286 1.609 3.048 1.257 1.667-.77 1.75-4.327 2.929-5.632.66-.73 2.23-1.623 3.202-1.819.668-.134 1.409.135 1.95-.384 1.712-1.64 1.196-5.356 1.895-7.47.334-1.013 1.24-1.998 1.29-3.068.094-1.927-1.984-2.791-2.297-4.5-.85-4.624-1.003-10.152-3.69-14.316-2.63-4.072-7.424-6.547-11.248-9.381-4.016-2.975-7.631-5.98-12.935-4.611-4.936 1.273-8.601 7.278-11.176 11.334-2.727 4.293-4.25 8.837-5.493 13.703-.534 2.095-1.308 4.372-1.385 6.544-.048 1.364.38 2.73.302 4.09-.091 1.58-.66 3.116-.598 4.704.092 2.334.617 4.602.617 6.954m10.848 0c-1.723.328-3.459 1.044-5.215 1.15-3.382.204-6.683-1.139-8.345 2.736 4.904-.608 9.984.448 13.56-3.886m-12.1-9.408l-1.251-.204c-.833 3.957-2.852 9.278-1.878 13.294 5.892-2.7 1.999-8.434 3.13-13.09m-94.715 12.477c.465-10.634.395-21.488-.125-32.11-.145-2.956-.965-6.043-.868-8.998.084-2.564 1.766-5.263 2.314-7.772.751-3.441.556-6.918.556-10.43l-7.51-.204.453 7.158 1.208 8.999-.147 14.112 1.802 11.453-.725 4.294 1.907 8.386 1.135 5.113m-35.05-10.021c-2 .922-4.772 3.915-4.798 6.135 2.375 0 6.373.287 5.81-3.05-.211-1.26-1.325-1.646-1.011-3.085m132.68 2.863l9.388-2.454c-.09 1.981-5.403 2.88-7.093 3.177-.933.165-1.957.273-2.295-.723m24.826-3.886l5.424.935 5.007-.321c-.342 1.037-1.492 1.14-2.503 1.209-2.032.14-6.818.171-7.928-1.823m-35.466 1.227c.628-.75 2.003-1.446 2.379-2.293.763-1.724-.01-5.467-.232-7.319-.54-4.484-.278-9.023-.89-13.498-.249-1.803.454-4.865-.339-6.459-.525-1.055-3.763-1.966-4.882-2.13 1.114 2.661 1.221 5.222 1.855 7.975.937 4.077 2.418 7.807 2.524 12.067.057 2.31.01 4.662-.267 6.954-.17 1.428-.732 3.34-.148 4.704m21.697-4.09c-1.11.236-2.03-.216-3.13-.178-1.808.063-4.347 1.214-5.632 2.427l2.503.614c.514-2.906 3.643-3.503 4.799-.614l3.13-1.431c-.455 2.833-6.303 3.378-8.554 2.805-.714-.182-2.81-.498-2.913-1.398-.098-.852 1.258-1.435 1.87-1.75 1.508-.78 7.066-3.023 7.927-.475m-120.38 2.045c-4.148-6.754-6.467-14.996-6.467-22.906-.875.445-2.736 1.658-2.91 2.693-.188 1.13 1.544 3.66 1.896 4.874 1.432 4.932 4.07 11.018 2.683 16.157l4.798-.818m-5.424.614l.209-2.455-2.087.614c.336.965.893 1.512 1.878 1.84m13.561-5.317c-2.956.06-6.462.457-9.18 1.636.338.875.999 2.376 1.917 2.792 2.854 1.293 6.874-1.843 7.263-4.428m126.84 3.477v-.41l.209-.204 1.877.41c.307-2.7 4.682-2.91 4.173-.205l2.712-.818v-.205l-4.59-1.336-4.172.518v-.818c3.507-.666 7.41-.094 10.64 1.432v.409c-3.271 1.75-7.317 2.553-10.848 1.227m-60.501-.205c1.508-5.212.97-10.228.453-15.543-.59-6.062-1.052-12.143-1.67-18.202-.419-4.11-.672-9.076-4.316-11.943-1.254-.986-4.173-.168-5.733-.532.062 2.94.875 5.902 1.37 8.794 1.417 8.28 3.703 16.265 6.053 24.338.87 2.993 1.654 6.007 2.53 8.999.388 1.324.578 2.91 1.312 4.09m48.818 0c-1.034-3.399-1.14-7.515-1.496-11.044-.125-1.245-.809-2.666-.358-3.886 1.032-2.792 4.919-4.308 7.696-3.2 2.027.81 3.822 2.962 4.798 4.836-2.187.306-3.47-3.828-6.05-4.069-2.107-.196-5.09.668-5.543 3.047-.526 2.773.79 7.002 1.189 9.817.196 1.388.895 3.414-.236 4.5m-16.69-.205c0-1.093.539-4.828-.542-5.495-1.569-.968-3.474 4.208-2.312 5.167.686.568 2.017.328 2.854.328m-111.82-1.227l-.209-1.637c-1.734.303-2.872.855-2.295 2.66l2.504-1.023m13.352-2.66v-2.044c-3.65 0-6.738.927-10.223 1.84l.891 1.68 3.072-.68 6.259-.795m-16.273 1.431c1.486-.997 2.543-1.09 2.295-3.067-1.411.378-3.846 1.445-2.295 3.067m169.4-3.272l-5.007-.204.626 2.25c1.404-.03 4.708-.131 4.38-2.046m-167.32-.613l-.417-1.228c-1.556.366-3.12 1.103-2.712 2.864l3.13-1.636m13.978-.41c-.099-1.745-1.479-1.447-2.92-1.43-2.793.032-5.555.863-8.137 1.84l.626 1.636c3.5-.937 6.75-2.045 10.43-2.045m-50.07.204v-.204l-2.503.818 2.504-.614m35.466-1.84l-.418-1.228c-1.5.403-2.986.903-2.712 2.66l3.13-1.432m165.65 1.345c1.637.2 3.492-2.727 2.935-4.182-.526-1.369-2.693-1.807-3.978-1.987-2.414-.338-4.999 1.438-3.51 3.947.944 1.59 2.842 2.014 4.553 2.222m-151.46-1.959c-.174-3.947-5.393-1.868-7.928-1.092-.808.247-2.638.422-3.104 1.196-.29.482.068 1.242.183 1.737l10.848-1.841m-50.904 1.636c1.421-.392 3.075-.553 4.381-1.255 2.621-1.41 5.888-6.497 5.334-9.584-.423-2.357-3.178-4.432-4.314-6.545-2.365-4.402-3.986-9.61-5.61-14.316h-.208l.618 8.59.043 9.408 1.205 8.999-1.449 4.703m101.39-1.499c1.283.225 3.374-.076 3.958-1.425.617-1.428-.606-5.18-2.289-5.41-1.333-.183-1.863 1.157-2.572 1.994-1.718 2.033-2.805 4.192.903 4.842m-68.22-.138l2.92-1.431-.417-1.227-2.92 1.227.417 1.431m17.316-3.068l-.209-1.022c-2.9-.36-5.593.252-8.345 1.159-1.18.39-2.756.628-2.503 2.113 3.772-.855 7.119-2.25 11.057-2.25m-17.733 1.023l2.712-1.227-.209-1.227c-1.27.242-3.681.753-2.503 2.454m17.107-2.863c-.185-1.581-1.58-1.518-2.92-1.311-2.75.424-5.804 1.433-8.345 2.538l.208 1.022c3.806-.663 7.022-2.749 11.057-2.25m-17.316.614l2.504-1.022v-.205c-.998-.29-3.107-.336-2.504 1.227m16.9-2.863l-.21-.818c-4.202 0-7.157.859-11.056 2.25l.208 1.227 7.51-2.299 3.547-.36m130.39 2.454l3.537-4.5.636-5.112h.417c1.469 2.745-.058 5.938-2.086 7.976-.745.75-1.354 1.799-2.503 1.636m-147.08-1.636l1.669-.204c-.34-1.004-1.834-.92-1.67.204m16.274-2.454l-.209-1.227c-2.762 0-5.696.194-8.345 1.028-1.239.391-2.697.983-2.295 2.449 3.766-1.321 6.805-2.25 10.848-2.25m-15.508.682l-.07-.136.07.136m4.451-.477c3.136-1.617 6.889-2.25 10.431-2.25-1.155-3.32-6.036-1.346-8.345-.362-1.102.469-2.655 1.23-2.086 2.612m122.67-1.023c1.619-5.016 5.232-10.194 11.266-8.94 3.21.667 5.318 3.1 7.51 5.259.94.924 2.464 1.856 1.878 3.272-6.156-1.906-12.678.461-18.985-.818-.336.838-.707 1.363-1.67 1.227m-122.88-1.023c2.413-1.594 5.203-2.657 8.137-2.658-1.965-2.093-9.738-1.093-8.136 2.658m84.075-.204c1.813-2.144 2.981-5.175 3.953-7.772.593-1.586 1.012-3.525 2.305-4.704-1.439-1.14-4.235-2.32-6.05-2.659l-.002 10.635-.206 4.5m56.12-1.636v-.41c-1.481-.827-2.762-2.056-4.381-2.639-3.056-1.1-9.082.175-10.014 3.662l7.093-.815 7.302.202m14.812-3.273h.208c2.535-1.544 6.862-1.923 8.846-4.215.785-.907.334-3.244.334-4.374 0-4.242-.705-8.269-1.043-12.476H135.12c-.002 3.758-.835 7.469-.835 11.249 0 1.004-.43 3.171.16 4.01.679.959 2.556 1.122 3.595 1.502 2.643.967 5.124 2.396 7.72 3.487 1.685.709 3.344 1.519 5.006 2.283.553.255 1.407.897 2.047.698 1.185-.367 1.974-2.847 2.618-3.8 2.112-3.121 4.517-6.698 7.436-9.141 2.748-2.3 7.602-3.448 11.057-2.08 1.806.714 3.377 2.204 5.007 3.235 4.446 2.812 8.774 5.953 12.517 9.623m-119.75-3.682c.954-2.182 2.144-5.154 3.964-6.749l-.418-3.477h-.208c-.541 1.12-.893 2.412-1.547 3.47-.168.27-.632.889-.998.49-.547-.592.757-2.732 1.025-3.346.766-1.746 2.439-6.088.18-7.562-.698-.455-2.028-.21-2.833-.21l.623 11.25.212 6.135m153.97-17.385h-18.985c-.848 4.28.131 8.698 1.669 12.68 4.258-.616 8.704-2.626 12.726-4.1 1.247-.459 3.611-.99 4.375-2.144.89-1.346.214-4.846.214-6.436m-98.053 0c-4.773 0-10.588.878-15.23-.205 1.081 4.513 5.852 8.305 9.806 10.331.816.418 3.634 2.103 4.437 1.399.688-.602.71-2.107.812-2.936.346-2.832.175-5.737.175-8.59M3.274-207.447v-4.09l-6.05-.205v-23.315l-5.424.205c.473 1.947.208 4.141.208 6.136v11.044c0 1.247.607 4.679-.334 5.603-.944.925-4.436.328-5.716.328v4.499h11.474l5.842-.205m7.719.205v-7.363c0-.83-.278-2.28.214-3.002.635-.935 5.848-.876 6.336.186.375.816.126 2.141.126 3.02v7.159h5.215v-27.815H17.67v8.18c0 1.038.315 2.676-.126 3.635-.488 1.062-5.7 1.12-6.336.186-.542-.796-.214-2.49-.214-3.411v-8.59H5.777v27.815h5.216m30.876 0v-4.5h-9.597v-6.749h9.18v-4.5h-9.18v-7.77h10.014v-4.296H32.063l-5.216.205c.87 3.585.209 7.976.209 11.658 0 4.929.955 10.956-.209 15.748l5.216.204h9.805m17.942-4.499v-6.75h6.676l2.29-.326.214-4.173h-9.18v-12.067h-5.424v27.815h10.848c.982 0 3.246.411 4.047-.21.651-.505.63-3.79-.15-4.166-.747-.36-2.04-.123-2.854-.123H59.81m22.95 4.5l7.092-27.816c-1.152 0-4.635-.568-5.426.327-1.21 1.374-.059 5.38-2.503 5.592-1.329.117-5.429.606-6.194-.631-.787-1.276-.29-4.16-1.47-5.077-.975-.76-4.046-.21-5.27-.21.937 6.818 3.575 13.53 5.096 20.247.403 1.779.9 3.55 1.35 5.317.15.59.279 1.642.8 2.04 1.173.893 5.05.21 6.524.21m14.812 0v-27.815h-5.216v27.815h5.216m20.028 0v-4.5h-5.841v-23.314h-5.425v23.315h-5.841v4.499h17.107m7.928 0v-7.363c0-.83-.278-2.28.214-3.002.664-.976 5.644-.829 6.247.17.473.783.215 2.16.215 3.037v7.158h5.215v-27.815h-5.215v7.976c0 1.082.292 2.655-.126 3.67-.49 1.188-5.626 1.396-6.336.355-.542-.796-.214-2.49-.214-3.411v-8.59h-5.216v27.815h5.216m30.876 0v-4.5h-9.597v-6.749h6.05c.762 0 1.946.215 2.645-.122.78-.377.801-3.661.15-4.167-.546-.425-1.727-.21-2.378-.21h-6.467v-12.067c-1.072 0-4.504-.546-5.21.327-.867 1.074-.214 4.663-.214 6.013v15.543c0 1.272-.607 4.587.215 5.603.584.724 2.895.328 3.749.328h11.057m7.719 0v-19.02c0-2.149.371-5.49 3.338-5.449 2.658.037 3.313 3.213 3.338 5.244.077 6.406 0 12.817 0 19.225h5.215v-15.952c0-2.935.34-6.109-1.097-8.794-2.583-4.825-12.042-5.217-14.892-.41-1.398 2.357-1.118 5.158-1.118 7.772v11.044c0 1.994.265 4.188-.209 6.135l5.424.205m20.862 0v-17.18c0-1.313-.65-5.046.334-6.013.572-.559 1.857-.327 2.587-.327h6.885v-4.295h-15.021v27.815h5.215m-105.77-4.907c-.594-3.009-1.296-5.997-1.919-9-.16-.772-.876-2.654-.362-3.353.631-.855 4.289-.387 5.202-.123l-2.503 12.476z" clip-path="url(#a)" fill="#3a090b"/></svg>