<?xml version="1.0" encoding="UTF-8"?>
<svg width="121.95mm" height="61.396mm" version="1.1" viewBox="0 0 121.95 61.396" xmlns="http://www.w3.org/2000/svg" xmlns:cc="http://creativecommons.org/ns#" xmlns:dc="http://purl.org/dc/elements/1.1/" xmlns:rdf="http://www.w3.org/1999/02/22-rdf-syntax-ns#">
 <defs>
  <clipPath id="clipPath748">
   <rect transform="scale(1,-1)" x="-85.218" y="25.266" width="345.67" height="174.04" fill="#00f" fill-rule="evenodd" stroke-width=".75"/>
  </clipPath>
  <filter id="filter846" color-interpolation-filters="sRGB">
   <feColorMatrix result="color1" type="hueRotate" values="180"/>
   <feColorMatrix result="fbSourceGraphic" values="-1 0 0 0 1 0 -1 0 0 1 0 0 -1 0 1 -0.21 -0.72 -0.07 2 0 "/>
   <feColorMatrix in="fbSourceGraphic" result="fbSourceGraphicAlpha" values="0 0 0 -1 0 0 0 0 -1 0 0 0 0 -1 0 0 0 0 1 0"/>
   <feColorMatrix in="fbSourceGraphic" result="color1" type="hueRotate" values="180"/>
   <feColorMatrix result="fbSourceGraphic" values="-1 0 0 0 1 0 -1 0 0 1 0 0 -1 0 1 -0.21 -0.72 -0.07 2 0 "/>
   <feColorMatrix in="fbSourceGraphic" result="fbSourceGraphicAlpha" values="0 0 0 -1 0 0 0 0 -1 0 0 0 0 -1 0 0 0 0 1 0"/>
   <feColorMatrix in="fbSourceGraphic" result="color1" type="hueRotate" values="180"/>
   <feColorMatrix result="fbSourceGraphic" values="-1 0 0 0 1 0 -1 0 0 1 0 0 -1 0 1 -0.21 -0.72 -0.07 2 0 "/>
   <feColorMatrix in="fbSourceGraphic" result="fbSourceGraphicAlpha" values="0 0 0 -1 0 0 0 0 -1 0 0 0 0 -1 0 0 0 0 1 0"/>
   <feColorMatrix in="fbSourceGraphic" result="color1" type="hueRotate" values="180"/>
   <feColorMatrix result="fbSourceGraphic" values="-1 0 0 0 1 0 -1 0 0 1 0 0 -1 0 1 -0.21 -0.72 -0.07 2 0 "/>
   <feColorMatrix in="fbSourceGraphic" result="fbSourceGraphicAlpha" values="0 0 0 -1 0 0 0 0 -1 0 0 0 0 -1 0 0 0 0 1 0"/>
   <feColorMatrix in="fbSourceGraphic" result="color1" type="hueRotate" values="180"/>
   <feColorMatrix result="fbSourceGraphic" values="-1 0 0 0 1 0 -1 0 0 1 0 0 -1 0 1 -0.21 -0.72 -0.07 2 0 "/>
   <feColorMatrix in="fbSourceGraphic" result="fbSourceGraphicAlpha" values="0 0 0 -1 0 0 0 0 -1 0 0 0 0 -1 0 0 0 0 1 0"/>
   <feColorMatrix in="fbSourceGraphic" result="color1" type="hueRotate" values="180"/>
   <feColorMatrix result="fbSourceGraphic" values="-1 0 0 0 1 0 -1 0 0 1 0 0 -1 0 1 -0.21 -0.72 -0.07 2 0 "/>
   <feColorMatrix in="fbSourceGraphic" result="fbSourceGraphicAlpha" values="0 0 0 -1 0 0 0 0 -1 0 0 0 0 -1 0 0 0 0 1 0"/>
   <feColorMatrix in="fbSourceGraphic" result="color1" type="hueRotate" values="180"/>
   <feColorMatrix result="fbSourceGraphic" values="1 0 0 0 0 0 1 0 0 0 0 0 1 0 0 -0.21 -0.72 -0.07 2 0 "/>
   <feColorMatrix in="fbSourceGraphic" result="fbSourceGraphicAlpha" values="0 0 0 -1 0 0 0 0 -1 0 0 0 0 -1 0 0 0 0 1 0"/>
   <feColorMatrix in="fbSourceGraphic" result="color1" type="hueRotate" values="180"/>
   <feColorMatrix result="fbSourceGraphic" values="1 0 0 0 0 0 1 0 0 0 0 0 1 0 0 -0.21 -0.72 -0.07 2 0 "/>
   <feColorMatrix in="fbSourceGraphic" result="fbSourceGraphicAlpha" values="0 0 0 -1 0 0 0 0 -1 0 0 0 0 -1 0 0 0 0 1 0"/>
   <feColorMatrix in="fbSourceGraphic" result="color1" type="hueRotate" values="180"/>
   <feColorMatrix result="fbSourceGraphic" values="1 0 0 0 0 0 0 1 0 0 0 1 0 0 0 -0.21 -0.72 -0.07 2 0 "/>
   <feColorMatrix in="fbSourceGraphic" result="fbSourceGraphicAlpha" values="0 0 0 -1 0 0 0 0 -1 0 0 0 0 -1 0 0 0 0 1 0"/>
   <feColorMatrix in="fbSourceGraphic" result="color1" type="hueRotate" values="180"/>
   <feColorMatrix result="fbSourceGraphic" values="1 0 0 0 0 0 0 1 0 0 0 1 0 0 0 -0.21 -0.72 -0.07 2 0 "/>
   <feColorMatrix in="fbSourceGraphic" result="fbSourceGraphicAlpha" values="0 0 0 -1 0 0 0 0 -1 0 0 0 0 -1 0 0 0 0 1 0"/>
   <feColorMatrix in="fbSourceGraphic" result="fbSourceGraphic" values="-1 0 0 0 1 0 0 -1 0 1 0 -1 0 0 1 -0.21 -0.72 -0.07 2 0 "/>
   <feColorMatrix in="fbSourceGraphic" result="fbSourceGraphicAlpha" values="0 0 0 -1 0 0 0 0 -1 0 0 0 0 -1 0 0 0 0 1 0"/>
   <feColorMatrix in="fbSourceGraphic" result="color2" values="-1 0 0 0 1 0 0 -1 0 1 0 -1 0 0 1 -0.21 -0.72 -0.07 2 0 "/>
  </filter>
 </defs>
 <metadata>
  <rdf:RDF>
   <cc:Work rdf:about="">
    <dc:format>image/svg+xml</dc:format>
    <dc:type rdf:resource="http://purl.org/dc/dcmitype/StillImage"/>
    <dc:title/>
   </cc:Work>
  </rdf:RDF>
 </metadata>
 <g transform="translate(-41.837 -76.647)">
  <path transform="matrix(.35278 0 0 -.35278 71.9 67.734)" d="m-101.85 4.426v-251.56h381.78v251.56h-381.78m109.11-11.453v-1.6361h-1.6691v1.6361h1.6691m160.01 0v-1.6361h-1.6692v1.6361h1.6692m-190.26-0.20452v-1.4316h-2.7122v-6.9537l-0.21447-2.5354-1.663-0.32778v9.8169h-2.7122v1.4316h7.3018m2.7122 0v-3.4769c1.19 0.94108 3.5082 1.609 4.0819-0.41004 0.61429-2.1609 0.09054-5.1192 0.09054-7.3618h-1.6691v4.9084c-0.0019 1.1597-1.0533 3.7069-2.2575 1.614-0.68606-1.1921 0.67194-6.3442-1.0885-6.48-1.3786-0.10635-1.035 1.7629-1.035 2.6164v8.5898h1.8776m19.193 0v-4.7039c1.7734 1.9051 2.4862 4.7017 5.4242 4.7039l-2.8347-4.6456 3.2516-6.603c-2.753 2e-3 -3.633 2.656-4.5897 4.9085h-0.41728l-0.83457-4.9085h-1.6691v11.249h1.6691m56.954 0v-1.4316l-2.3777-0.32803-0.33442-2.5353v-6.9537h-1.8776v9.8169h-2.7122v1.4316h7.3018m2.7122 0v-3.4767c1.2702 1.0198 3.5655 1.6487 4.2449-0.4123 0.6937-2.105 0.13623-5.1524 0.13623-7.3595h-1.8772c0 1.8354 0.07698 3.6885-4e-3 5.522-0.02858 0.64726-0.23533 1.5531-1.0423 1.6522-0.78494 0.09631-1.2923-0.81782-1.4095-1.4477-0.33588-1.8032-0.04757-3.8938-0.04757-5.7265h-1.6691v11.249h1.6691m19.402-6.5446c0-2.016 0.80212-4.6947-1.8776-4.7039v11.249c1.5985 0 4.277 0.50261 5.6109-0.51419 1.668-1.2711 1.5978-4.4493-0.20633-5.5747-1.0224-0.6377-2.3724-0.45582-3.5269-0.45582m54.242 6.5446v-1.4316l-2.3785-0.32803-0.33379-2.5353v-6.9537h-1.6692v6.9537l-0.3338 2.5353-2.587 0.32803v1.4316h7.3018m2.7122 0v-3.4766c5.3428 3.8847 4.3811-4.9647 4.3811-7.7717h-1.6692c0 1.8074 0.18985 3.7298-0.0605 5.522-0.0855 0.61732-0.25869 1.5177-0.9953 1.687-0.86168 0.19818-1.479-0.78637-1.6084-1.4824-0.33588-1.8034-0.048-3.8938-0.048-5.7265h-1.6692v11.249h1.6692m19.402-6.5446c0-2.016 0.80098-4.6947-1.8776-4.7039v11.249c1.6378 0 4.233 0.48677 5.612-0.54261 1.5981-1.1954 1.5019-4.4804-0.20654-5.5463-1.0243-0.6377-2.372-0.45582-3.5277-0.45582m0 5.3175c0-0.9285-0.39858-3.0094 0.21488-3.7623 1.3332-1.6389 4.6586 2.4067 1.6585 3.5796-0.58413 0.22853-1.258 0.18108-1.8734 0.18276m-76.565-0.40903v-3.2723c3.9856-1.1549 4.1251 4.4677 0 3.2723m-86.161-5.5219h-4.3811c2.1e-4 -0.40677-0.02023-0.82285 0.02191-1.2281 0.37135-3.5755 2.7973-0.01718 4.3592 9.4e-4 -0.11057-2.3679-2.7721-4.1924-4.9625-2.5151-1.1171 0.8553-1.3087 2.6561-1.2923 3.9466 0.03317 2.5879 3.1489 6.8006 5.6908 3.4546 0.77158-1.0153 0.56389-2.4708 0.56389-3.6591m23.366-4.0904c-2.5354 0.02945-1.6592 3.2634-1.6691 5.113-0.0042 0.77153 0.0067 2.0117-1.0514 2.1143-2.1563 0.20902-1.4435-4.3802-1.4523-5.5911-0.0056-0.79669-0.21801-2.0552-1.3939-1.5119-0.76967 0.3557-0.48334 1.864-0.48334 2.5344 0 1.9249-0.96743 5.9004 1.6691 5.931v-0.81782c5.5951 3.268 4.3811-4.4499 4.3811-7.7718m6.4673 7.9762c0.14019 0.64122 1.069 0.9368 1.3908 0.1818 0.27747-0.65128 0.06947-1.7332 0.06947-2.4316 0-2.0409 0.73989-5.831-0.52151-7.5615-0.82388-1.1303-2.8007-1.3305-4.0681-0.88071-0.57 0.20227-1.786 1.1003-1.3038 1.8293 0.64941 0.98259 1.7841-0.49934 2.3472-0.68198 1.7188-0.55745 1.8776 1.5063 1.8776 2.5906-5.1949-4.1706-6.492 7.7531-1.8776 7.6982 0.75784-0.00904 1.4317-0.41683 2.0861-0.74461m49.235-3.8859c-1.0785 0-3.1848 0.39646-4.1059-0.21018-0.95025-0.62538-0.20174-2.4887 0.7712-2.704 1.4496-0.32074 1.4057 2.0354 3.3349 1.4824-0.58298-2.1795-3.5128-4.3483-5.4975-2.0014-1.1423 1.3506-0.94873 3.6604-0.72348 5.2737 0.34298 2.4565 3.3727 3.9507 5.3389 1.9991 0.98576-0.97856 0.88192-2.5699 0.88192-3.8399m15.647 4.6359c4.8009 0.77103 5.2548-8.2743 1.2519-8.8871-4.9419-0.75669-5.5277 8.2004-1.2519 8.8871m6.8846-8.1128v-3.4768c-0.56504 2e-3 -1.4496-0.12762-1.752 0.47419-0.92429 1.8422-0.1258 5.8541-0.1258 7.9112 0 0.74663-0.21864 1.9076 0.1258 2.5937 0.40125 0.7992 1.3924 0.404 1.752-0.1395 6.5051 4.4829 5.9954-12.054 0-7.3627m12.1 3.4768c-1.0785 0-3.1848 0.39646-4.1059-0.21018-0.95026-0.62537-0.20174-2.4887 0.77119-2.704 1.4496-0.32074 1.4057 2.0354 3.3349 1.4824-0.57344-2.143-3.2326-4.2243-5.342-2.1692-0.93155 0.90762-1.1763 2.7774-1.0869 4.0098 0.18881 2.6049 3.0806 6.5144 5.6958 3.2502 0.78189-0.97605 0.73226-2.4846 0.73302-3.6592m41.725 0h-4.5897c4e-3 -0.40954-4e-3 -0.82234 0.0626-1.2281 0.60283-3.5888 2.7725 0.29986 4.5271-0.20358-0.61352-2.296-3.578-4.3113-5.5264-1.8293-0.97622 1.2442-0.8823 3.4136-0.69256 4.8972 0.30251 2.3772 3.3444 4.2065 5.3262 2.2029 0.97431-0.9841 0.89299-2.5731 0.89299-3.8392m17.524 2.8633c-3.5028-0.04054-2.5033-4.5411-2.5033-6.9537h-1.6692c0 2.4816-0.39438 5.3153 0.0313 7.7597 0.23992 1.3836 1.5542 0.65279 1.6378-0.39696 1.2248 1.4301 2.4953 1.7941 2.5033-0.40903m6.2587-6.9537c-0.50471 0.0018-1.3061-0.11555-1.6627 0.32778-0.37552 0.46513-0.21488 1.3707-0.21488 1.9219 0 1.5551-0.57801 4.466 0.12517 5.866 0.436 0.86662 1.3332 0.28099 1.5439-0.34413 3.9451 2.3038 4.5897-0.79618 4.5897-4.0904 0-0.80121 0.38178-2.9205-0.3338-3.4711-0.50281-0.38614-1.2996-0.15237-1.4771 0.43369-0.55091 1.8185 0.55282 4.1162-0.22114 5.8785-0.42759 0.97001-1.6126 0.85127-2.1028 0-0.528-0.91592-0.24618-2.4381-0.24618-3.4546v-3.0678m11.892 5.7265h-1.8776c-0.25661 2.2454-2.1991 1.7209-2.5537-0.20452-0.19819-1.0772-0.25243-2.4726 0.29625-3.4729 0.98271-1.7996 2.1884-0.23131 2.4659 1.0188h1.6692c-0.45471-2.2975-3.044-4.9044-5.3074-2.4082-1.1014 1.214-1.0827 3.3428-0.91589 4.8624 0.43828 3.9931 5.6642 4.2554 6.2233 0.20452m7.3018-1.6361h-4.5897c4e-3 -0.40954-4e-3 -0.82209 0.0626-1.2281 0.60284-3.5888 2.7725 0.29986 4.5271-0.20358-0.57993-2.1694-3.3253-4.2438-5.3428-2.0178-1.1098 1.2256-1.0495 3.3489-0.88039 4.8811 0.26912 2.4127 3.2169 4.5447 5.3303 2.4074 0.97431-0.9841 0.89299-2.5731 0.89299-3.8392m6.8846 2.0452h-1.6691c-0.4967 1.4165-2.8374 1.573-2.2262 0.02131 0.85137-2.1687 4.8234-1.167 3.8052-4.7222-0.89489-3.1232-5.6871-1.6922-5.7518 1.2241h1.4603c0.37553-1.8163 3.2066-1.9126 2.6267-0.2082-0.70515 2.0764-4.5209 1.2193-3.9785 4.2986 0.58642 3.3242 5.1968 2.0527 5.733-0.61355m6.8846 0.20452c-1.3706-0.39344-2.9584 1.9184-3.7865 0.58336-0.56542-0.91114 0.57993-1.5159 1.2832-1.7969 1.715-0.6855 2.9874-1.6605 2.4136-3.694-0.88038-3.1072-5.7246-1.7141-5.7518 1.2263h1.4603c0.44439-1.6661 3.1772-2.0293 2.6038-0.2082-0.66354 2.1005-4.5626 1.1574-3.9889 4.2986 0.57802 3.1645 5.178 2.2351 5.7664-0.40903m-196.52-6.3397h-1.6691v8.5898l1.4546-0.32803 0.21447-2.3309v-5.931m160.01 0h-1.6692v6.5446c0 0.66914-0.18776 1.9845 0.83458 1.9845 1.0224 0 0.83457-1.3154 0.83457-1.9845v-6.5446m-179.19 7.3539c-1.7936-0.93303-0.29729-2.9241 1.3714-2.1174 1.1984 0.57934-0.07636 2.7913-1.3714 2.1174m78.003-2.0364h2.7122c-0.03066 2.6895-2.5736 2.6132-2.7122 0m34.632 0h2.7122c-0.0248 2.6973-2.5732 2.6168-2.7122 0m44.437-0.20452c-2e-3 0.40124 0.0292 0.82838-0.048 1.2248-0.50892 2.5994-3.6174 0.0083-2.3281-1.0148 0.53832-0.42689 1.7276-0.21018 2.3762-0.21018m41.328 2.2935c-1.9883-0.69631-0.68644-2.8069 1.1808-2.2283 1.2435 0.38539 0.12726 2.6858-1.1808 2.2283m-167.11-0.19915c-1.7852-0.67015-1.4615-6.4645 0.78952-5.6194 1.7772 0.66713 1.4958 6.4774-0.78952 5.6194m66.99 3e-3c-1.5916-0.67418-1.4309-6.8659 0.95904-5.9955 1.8528 0.67468 1.505 7.0393-0.95904 5.9955m7.6972-0.06138c-1.5054-0.76021-1.3851-6.7277 0.97583-5.7948 1.7119 0.67619 1.25 6.9191-0.97583 5.7948m-38.618-33.122c1.9391 0.08467 3.4971 3.8386 4.3786 5.3175 0.47723 0.80046 0.89413 2.0512 2.0773 1.6019 1.1392-0.43268 0.74027-1.7156 0.54289-2.6246-0.54251-2.496-2.2873-4.4579-3.2822-6.7491-1.7131-3.945-0.35258-7.9194-1.455-11.862-0.90864-3.2494-3.8029-5.5155-4.4596-8.9988-0.242-1.2835-0.66888-3.0021-0.57878-4.2949 0.11328-1.6208 0.93804-3.0535 0.15459-4.7039-1.7463-3.6793-7.6926-3.3351-8.2262-7.3627-1.6661 1e-3 -3.249 0.40803-4.5269 1.5398-0.72195 0.63946-1.0591 1.4895-1.9406 1.937 0.8277-4.4968 7.5584-5.2185 11.266-4.3462 1.5157 0.35671 2.8469 1.2241 4.3811 1.4829-0.59138-3.077-2.7649-7.3754-2.2949-10.43h0.41729l2.4617 8.7943 0.25035 3.0678h0.20862c0-4.4773 0.74867-15.965-6.8846-13.907l0.83457 1.2271c-1.8539 0.43268-3.0672-0.67418-4.7946-0.64173-0.58145 0.01084-2.3346 1.1828-2.7916 1.5831-1.3966 1.2231-1.9971 4.1386-2.6782 5.8077-2.0685 5.0694-6.188 13.791 0.87619 17.384-0.12017-1.3504-1.8581-4.2916-0.41729-5.113 0.43256 2.05 0.93804 5.2496 2.7122 6.5446l-0.62574-7.7717c1.0953 0.89454 0.964 2.3762 1.0617 3.6813 0.18338 2.4527 0.54251 4.824 1.3362 7.1582 1.4515 4.2685 2.7614 8.373 3.1993 12.885 0.32754 3.3735-0.45546 6.8968 0.35362 10.226 0.59634 2.454 2.314 4.8545 3.6559 6.9537 1.5374 2.4054 2.8641 5.1653 4.8497 7.2639 1.9822 2.0955 3.5422-0.3147 2.6763-2.3553-1.7302-4.0783-5.4605-7.0692-6.9428-11.248-0.3605-1.0163 2.3449-3.2152 3.3016-2.8015 1.9998 0.86461-2.0074 2.9625-1.8402 3.8321 0.45012 2.3392 3.1344 4.6046 4.4093 6.5358 0.5826 0.88272 0.96934 2.2615 1.8043 2.9412 1.9383 1.5778 2.3774-2.1 2.0731-3.1457-1.011-3.4725-3.743-6.3401-5.5434-9.4079m41.099 11.658c-2.4533-0.25136-4.2561 3.4179-6.8846 2.6342-2.4686-0.73606-4.3721-2.3038-6.4673-3.6793-7.1134-4.6706-12.644-12.177-15.687-20.02-1.208-3.1138-2.8603-5.9615-2.6629-9.4079 0.19152-3.3488 2.7832-7.2453 4.1842-10.226 0.93956-1.9994 1.6573-5.966 3.257-7.4719 0.62536-0.5889 1.208 0.52777 1.5287 0.92448 1.3889 1.7184 3.4456 2.8653 5.4161 3.838 7.0471 3.4787 12.44 2.3968 19.402-0.56274 2.1697-0.92221 3.7651-2.2635 5.4242-3.8858 0.48753-0.4767 1.2713-1.5594 2.078-1.2432 1.3332 0.52299 2.2468 2.9651 2.9313 4.1065 1.6126 2.6839 3.3192 5.1432 4.6627 7.9762 0.67193 1.4173 0.79066 3.1948 1.5939 4.4994 0.56542-1.4965-0.28164-2.6453-0.71355-4.0904-1.1224-3.7566-2.9229-7.74-5.0654-11.044-0.60512-0.9353-1.744-3.5292-2.9783-3.6983-0.81702-0.11167-1.7864 1.1675-2.3002 1.6553-1.5577 1.4784-3.2669 3.2973-5.2154 4.2675-6.5537 3.2635-16.015 3.8051-21.905-1.0641-1.8104-1.4968-3.0397-3.6562-4.1733-5.6599-1.332 0.37532-1.8142 1.7742-2.4907 2.8633-1.6756 2.6978-3.2123 5.5611-4.6529 8.3853-2.1349 4.1861-3.5426 8.9768-2.5545 13.703 0.78112 3.737 2.7404 7.0688 4.4573 10.43 0.57 1.1164 0.77425 2.3958 1.4019 3.4768 2.104 3.6259 4.7228 6.5399 7.5587 9.6124 2.7294 2.9569 5.8252 4.8751 9.4236 6.6683 1.9158 0.95466 3.1566 1.9667 5.4242 1.6897 2.9157-0.35596 6.0822-2.7342 8.1718-4.598 5.3013-4.7287 8.6203-10.214 11.773-16.44 1.085-2.1415 2.1154-4.4501 2.7954-6.7491 0.16064-0.54085 0.69675-1.7778 0.20653-2.2723-0.54671-0.54966-0.99912 0.73807-1.1098 1.0452-0.65514 1.8085-1.279 3.6543-2.2655 5.3173-2.5973 4.3798-5.0443 8.9896-8.3969 12.885-1.7115 1.9881-5.2116 3.7681-6.1671 6.1356m9.5968-48.266h-0.41729c-5.5867 6.275-15.376 10.198-23.574 7.0633-2.2365-0.8548-4.5061-2.0039-6.4673-3.3641-1.0938-0.75845-1.9257-1.9174-3.1295-2.4721-0.70897 1.8017-1.5397 3.5357-2.2922 5.3175-0.26787 0.63393-0.76929 1.5018-0.2854 2.1438 1.8688 2.4804 6.2743 3.745 9.0451 4.9277 1.3794 0.58865 3.2402 1.2648 3.8253 2.7463 0.63719 1.6127 0.59482 3.6143 0.82312 5.3167 0.73798 5.5032 0.56694 11.02 0.56694 16.566 0 2.5156-0.61696 6.7174 0.6307 8.9906 2.1563 3.9286 7.7379 2.9119 10.36 0.29483 0.67003-0.66889 0.35508-1.5066 0.29353-2.3319-0.1331-1.7823-0.22719-3.5271-0.22719-5.3175 0-5.7161-0.41729-11.44-0.41729-17.18 0-1.8993-0.81854-4.7438-0.08282-6.5325 0.53488-1.3006 3.0787-1.1642 4.2553-1.4761 3.2787-0.86939 6.629-2.333 9.3881-4.2624 0.74906-0.52324 2.5369-1.4525 2.587-2.4723 0.0396-0.78964-0.83877-1.6107-1.2435-2.2316-1.2309-1.8829-2.5682-3.7544-3.6384-5.7265m-53.408 49.903-1.4603-2.4542h-0.20826l1.6691 2.4542m44.02-3.2723c5.133-4.6211 8.8726-9.3547 12.28-15.339 1.5332-2.6935 3.315-5.474 3.7846-8.5898-1.7982-2.03e-4 -4.4332 0.15257-6.0459-0.70386-1.0503-0.5572-1.7333-1.9725-0.5826-2.8256 0.85978-0.6367 2.1139-0.27671 3.0817-0.18652 1.6837 0.15728 3.3295-0.16525 5.007-0.16975 0.88879-3.7693-1.644-6.2761-2.2949-9.8169-1.8879 0.71694-3.4612 2.4011-5.2156 3.4245-3.2028 1.8688-7.3196 3.442-11.057 3.7337 0 7.2146 0.23407 14.469 0.41423 21.679 0.06154 2.457-0.68377 6.6456 0.62918 8.7943m-13.144-0.20464c-0.16085-7.6433 0.84565-16.222-0.69561-23.724-0.39362-1.9161 0.10097-4.8655-1.127-6.5017-1.0468-1.3941-3.5277-2.0175-5.0616-2.7518-2.0528-0.98284-3.9753-1.8261-5.8414-3.1347-0.49746-0.34891-1.3504-1.1177-2.004-0.73631-0.91208 0.53205-0.97354 2.2132-1.2438 3.103-0.89986 2.9598-2.3659 5.2079-1.623 8.3853 1.6554 7.0809 6.1108 14.753 11.06 20.101 1.8902 2.0424 3.885 4.18 6.5372 5.259m55.076-32.314c-1.8524 0.18591-4.4145 2.1372-6.2566 1.6794-1.6272-0.40451-2.7561-3.179-3.7949-4.3383-1.5374-1.7116-3.6487-2.8269-5.0132-4.7039-1.329-1.8281-1.2977-4.1374-2.1758-6.1356-0.55282-1.2596-1.786-2.0442-2.3701-3.2723l2.086 1.8407h0.20863c2e-3 -4.3471-0.49021-7.8836-1.8776-12.067l-1.8776 1.2271 0.83458 6.1356c-1.3225-0.7582-1.064-4.2749-1.2519-5.7265l-2.2949 0.61355c0.14186 6.4869 3.3379 12.923 3.0752 19.429-0.13561 3.2979-1.6734 6.7829-2.8664 9.8169l0.83458 0.20452c0.65704-1.9783 0.67804-5.9276 2.5744-7.2077 1.279-0.86284 3.5529 0.41608 4.573-1.2236 0.64482-1.0352-1.1286-4.0436-2.5346-3.4058-1.2141 0.54966-1.1682 2.6686-1.9005 3.6564-0.73035-4.5712 4.4958-5.8214 5.007-0.81807 1.9108 0.17855 3.822 3.6173 5.2156 4.8902 0.39018 0.35596 1.6252 1.0701 1.5061 1.698-0.11266 0.5816-1.2538 0.81656-1.715 0.99139-1.45 0.55041-3.3234 1.4761-4.1454-0.42262-0.65704-1.5209-0.75325-3.3228-1.279-4.9074-1.7463 0.3542-2.658 0.56173-4.3811 0 0.70515 1.3657 2.6664 5.891 1.5397 7.3007-0.80938 1.0153-2.7019 0.67594-3.8345 0.67543-3.2627-1e-3 -6.5299 0.20452-9.8053 0.20452 0.70935 1.2633 2.4762 0.95492 3.7552 1.0407 1.9318 0.12987 3.9013 0.35268 5.8415 0.12782 1.4084-0.1628 3.2776-0.71418 4.571 0.07669 1.1808 0.72348 0.87199 2.0852 1.0785 3.2541 0.51961 2.9189 1.0117 5.6282 1.1308 8.5898 0.0271 0.65506 1.0827 3.5124 1.8047 3.5697 2.0257 0.16055 1.7004-2.4346 1.4706-3.5697-0.59443-2.9387-1.4981-5.7783-1.5019-8.7943-2e-3 -0.97831-0.35466-2.1828 0.21071-3.0559 0.70706-1.0915 2.3785-1.2125 3.5445-1.5302 2.9939-0.81606 10.001-2.1455 10.014-5.8443m-63.422-21.884-2.0861 1.8407c3.5403 10.85 16.681 12.746 26.078 7.7466 1.9307-1.0274 3.6636-2.9608 5.2156-4.4745 1.5077-1.4704 4.0995-1.7986 4.8296-3.8856 0.99912-2.8547-0.44859-6.9101-2.5625-8.9604-0.73416-0.71216-1.862-0.88775-2.4827-1.7018-1.8219-2.3888-1.9005-5.8497-3.8295-8.1454-2.7156-3.2314-8.7609-3.2866-12.645-3.2805-1.4916 2e-3 -3.4299 0.11024-4.7627 0.83844-3.0596 1.6719-3.6269 5.6824-5.2938 8.3648-1.0625 1.7098-2.0731 0.81254-3.273 1.8749-1.1866 1.0505-1.2251 2.6761-1.7127 4.0562-0.49593 1.405-1.413 2.5485-1.4355 4.0904-0.01022 0.71443 0.0033 2.4374 0.88879 2.7019 1.0472 0.31294 2.0246-1.0251 3.071-1.0659m-21.071 11.453c0.63452-1.661 0.24346-3.1142-0.41729-4.7039h-0.20862l0.62574 4.7039m-1.043-0.81807-0.41729-4.7039c-2.5114-0.83794-4.4089-1.4316-7.0932-1.4316 0.0096 2.6506 2.8412 2.816 4.7983 4.0628 0.96858 0.61682 1.6963 1.5692 2.7122 2.0728m-18.776-0.40903c0.43752-5.4286 4.1278-10.178 5.6328-15.339-1.8295 0.03845-2.8179 1.0352-4.1725 2.1242-1.4111 1.1343-3.7514 3.0373-4.2588 4.8406-0.5868 2.0849 1.4584 6.7882 2.7985 8.3742m82.824-1.6361-0.20863-0.20452c0.20028-0.85253 0.34423-1.736 1.2519-2.0452l-0.62574 2.2497h-0.41728m96.384-24.133h-0.20862c-0.60284 0.48953-1.158 0.0444-1.8776 0.29055-1.2519 0.42739-2.2197 1.4782-3.1295 2.3682-1.0224 1.0012-2.0112 2.0152-2.9813 3.0647-1.0766 1.1665-2.1009 1.8527-3.6949 1.3665-0.41118-0.12537-2.687-0.6372-2.1028-1.4291 0.5238-0.71065 2.9978 0.69732 3.9805 0.20513 2.6015-1.3033 4.1683-4.57 6.6759-6.1628 1.0304-0.65431 2.3449-1.5526 3.3379-0.52123h0.20895c0.58642-2.1959 1.9318-4.2853 2.251-6.5446 0.30668-2.1606-0.52571-4.0904 0.0188-6.3401 0.73226-3.0226 2.637-5.5353 3.3837-8.5898 0.80098-3.2768-0.4673-5.8241-0.62574-8.9988-0.0876-1.7888 0.9346-3.4999 0.71355-5.3175-0.21071-1.7355-2.2155-3.3476-3.2818-4.7039-0.964-1.2271-1.7085-4.3303-2.9332-5.0764-0.75516-0.45909-2.0154-0.24113-2.8645-0.24113-1.379 0-3.2776-0.145-4.5897 0.21598-1.3332 0.36702-2.4094 1.3484-3.7552 1.7581-1.1243 0.34262-2.7267 0.15625-3.7281 0.72122-1.9654 1.1096-1.4458 5.6447-2.0903 7.5306-1.0243 2.9974-2.7328 1.8469-4.8213 3.1739-1.8108 1.1511-2.128 2.7747-2.9855 4.5978-0.36509 0.7748-1.1724 2.7369-2.1426 2.9134-0.60703 0.11064-1.6584-1.0133-2.1739-1.3031-2.0654-1.1642-4.281-2.1518-6.4673-3.0725-4.7879-2.0162-9.9451-1.9888-15.021-0.68147-2.8225 0.72675-4.8359 3.4018-7.7191 4.2016-3.1608 0.87693-6.6968-0.56702-9.8053 0.69857-2.7206 1.1079-4.5271 4.5195-7.7191 3.3791l1.4603-2.0452-0.20863 1.2271c1.4229-0.15523 5.0049-2.375 5.589-3.7169 0.30877-0.7094-0.16481-1.8205-0.0417-2.6232 0.4589-2.9694 0.83037-6.3474 1.7547-9.2034-5.105-0.80876-3.6216 4.2616-5.5598 6.7135-0.97011 1.2258-3.0332 1.0472-3.8241 2.3289-0.39018 0.63569-0.30041 1.5154-0.58832 2.2062-1.043 2.4922-2.8874 7.0778-2.1406 9.8169 0.4967 1.8173 2.2865 2.8498 2.7748 4.704 0.48181 1.8313-0.32337 4.761 1.1285 6.238 0.80747 0.82235 2.5285 1.0432 3.6197 1.3292 2.1949-2.8166 3.722-1.2814 6.676-1.0037 1.5584 0.14644 2.708-1.6402 4.5897-1.4125 2.1926 0.26514 3.3837 2.2268 5.6328 2.5221 2.2468 0.29483 4.0097-2.5491 6.2587-2.7422 1.5523-0.13334 3.1772 0.9753 4.5897 0.80021 1.6314-0.20206 2.5014-1.4865 4.3811-1.1642 1.986 0.34061 4.3477 2.0588 6.4486 1.4792 1.5916-0.43872 2.4701-2.7385 3.9826-3.5539 1.9173-1.0342 3.943-0.0411 5.6328-0.73783 1.5561-0.64147 2.6412-2.3531 4.1725-3.1608 1.5061-0.79392 3.7991-0.8636 5.1092-1.8628 0.50471-0.38488 0.60092-1.1101 1.0285-1.5725 1.014-1.0973 2.2804-1.0892 3.6678-1.0892-0.36092-5.0068 4.3498-5.4124 7.1829-1.9868 0.37761 0.45809 0.57382 0.99492 0.35257 1.5697-0.40048 1.044-1.1747 1.417-1.0285 2.6667 0.16482 1.4133 1.5374 3.1064 1.2309 4.4994-0.66774 3.031-4.3373 2.1388-5.6537 3.9501-0.64483 0.88775-0.0772 2.0316-0.28998 3.0036-0.28999 1.338-1.6356 2.7373-2.6641 3.6008-2.2991 1.9307-4.9882-0.7587-7.4082 0.40853-0.73226 0.35269-0.457 1.6837-0.78876 2.3309-0.53412 1.0477-1.6084 1.8515-2.616 2.4351-3.0668 1.7757-6.3338-0.081-9.5779 0.35218-1.0785 0.14418-2.7038 2.8471-3.7739 3.531-2.0402 1.3051-4.8359 1.8706-6.8846 0.322-1.0182-0.77002-1.55-1.9933-2.7122-2.5499-0.31711 0.70738-0.71355 1.2779-1.2603 1.8399-2.5346 2.5984-6.023 0.98435-8.5369-0.94209-0.62383-0.47872-1.014-1.3466-1.715-1.7023-1.3851-0.70059-2.9187 1.126-4.3435 0.93604-2.808-0.37457-4.9965-3.2523-7.7191-3.6085 0.76967 1.378 2.6038 1.9845 3.6678 3.1576 0.66544 0.73354 0.67384 1.7519 1.2018 2.5608 0.59672 0.91165 1.65 1.2744 2.3262 2.091 0.83037 1.0022 0.98881 1.9528 2.1926 2.6996 2.1093 1.3084 4.9945 1.256 6.8825 2.8307 1.1954 0.99844 2.0383 2.2831 3.3402 3.1913 1.2018 0.83844 2.6244 1.1489 3.7552 2.1181 1.3477 1.1567 2.5262 2.9232 4.3811 3.32 1.8005 0.38539 4.0035 0.83769 5.8414 0.44828 3.1772-0.67342 6.265-2.7395 9.3881-3.7325 1.4561-0.46312 2.9645 0.07117 4.3811-0.42413 2.3449-0.81983 4.0306-2.543 6.4673-3.2602 1.9299-0.56802 4.0473-0.47243 5.8414-1.5003 5.1593-2.9549 7.7879-9.5627 8.5536-15.136m-120.58 21.065c1.03-0.21045 5.4027-0.32854 5.8415 0.40903-1.6791 0.76625-4.7546 1.6276-5.8415-0.40903m-14.186-2.2497 5.2156 1.9757 3.1295-0.54412c0.19402 1.256-1.2694 1.4039-2.2949 1.4286-1.8562 0.04459-5.6833-0.72021-6.0501-2.8602m100.97 1.1403c-2.9813-0.3708-5.9792-0.96196-8.9708-0.51192-0.4673 0.07036-1.4813-0.02536-1.0243-0.75392 0.58833-0.94334 2.5889-0.69682 3.5277-0.69229 3.415 0.01616 6.8074 1.3041 10.223 0.45784 2.7622-0.68424 4.2455-2.0577 5.806-4.344 0.41309-0.60273 1.4061-2.8199 2.3159-2.6749 0.78227 0.12496 0.22949 1.0945 0.0209 1.4477-0.79296 1.3448-1.7043 2.6522-2.6664 3.8856-1.9776 2.534-6.0751 3.5783-9.2316 3.1856m-87.622-1.7536c1.8814-0.39973 5.0145-0.54186 6.8846 0-1.3496 2.1113-5.7167 2.3956-6.8846 0m-12.517-0.61355c1.8299-0.45331 5.9222-0.40929 6.8846 1.4316-2.1506 0.67418-5.7242 0.95014-6.8846-1.4316m8.1363 2.0452c-0.67499-1.3733-0.41843-2.8537-0.76853-4.2949-0.22469-0.92473-0.84106-1.6065-1.2305-2.4542-0.23825-0.51771-0.48944-1.417-0.08115-1.9217 0.39514-0.48828 1.3217-0.27621 1.8719-0.31244 1.3485-0.08856 4.8952-0.55569 5.4242 1.007l-6.6759-0.20452c0.5574 2.7467 2.8084 5.0876 1.8776 8.1808h-0.41729m85.953-2.9502c-3.1669-0.42287-5.7497-1.2289-8.9708-1.1491-0.4463 0.01104-1.8047-0.16136-1.114-0.89404 0.71126-0.75442 3.2795-0.58512 4.2434-0.49381 3.8282 0.363 6.8908 1.8844 10.848 1.0555 2.8458-0.59594 5.3241-2.0545 7.2664-4.1581 0.55282-0.59921 1.9631-2.9721 2.8977-2.8273 0.79678 0.12353 0.1064 1.2867-0.10848 1.6002-0.91361 1.3297-2.1406 2.5802-3.3795 3.62-3.0626 2.5694-7.6961 3.7789-11.683 3.2467m-67.385-2.3674-0.62573-2.6587c1.6482 0.06954 2.1196 1.9206 0.62573 2.6587m-31.294-5.3175h0.41729c0.09555 0.40853-0.45012 4.1186-0.51579 4.1411-0.61467 0.21147-1.001-0.62638-1.0728-1.0744-0.17524-1.09 0.63681-2.1767 1.1717-3.0668m100.14 3.9689c-2.1051-0.07792-3.8345-0.98586-5.8414-1.4087-2.4014-0.50588-4.6836-0.31017-7.0932-0.31042-0.40049 0-2.8519-0.15278-1.5939-1.0178 0.85328-0.58588 2.8851-0.20922 3.8888-0.20922 1.794 0 3.6697-0.02904 5.4242 0.38866 2.5243 0.60047 4.6064 1.6555 7.3018 1.1806 2.4743-0.43595 4.5-2.8295 6.2587-4.4272 0.62154-0.56425 1.9192-1.9058 2.8851-1.6766 1.4 0.33206-2.0883 2.7377-2.4678 3.0692-2.7496 2.4067-4.8442 4.5567-8.7622 4.4119m28.581-0.39344c-0.43599-0.0904-4.2684-1.7217-2.6454-2.1815 1.3416-0.3801 2.587 1.5707 4.0869 0.81606 1.2332-0.61959 2.1968-4.0883 3.7407-3.8624 1.1224 0.16464-0.34006 1.7446-0.58413 2.0613-1.2538 1.6309-2.1154 3.6814-4.5981 3.1664m-74.48-29.14c-0.81167 0.18182-1.7253 0.58286-2.564 0.35193-1.3435-0.37104-1.9757-1.7287-3.0688-2.468-1.064-0.71945-2.7328-0.68524-3.9638-0.44676-1.6856 0.32677-1.6566 2.339-2.443 3.5856-1.6585 2.6316-3.1398 5.4876-5.0174 7.9762-0.80327 1.0659-2.3823 2.0278-2.8458 3.2725-0.47761 1.2857 0.61124 2.0507 1.1266 3.0676-1.3393 0.35117-2.1739 2.1888-0.59863 2.9626 1.0075 0.49482 2.0589-0.0106 3.0982 0.1358 0.57802 0.0814 0.78456 0.31973 1.0472 0.78738-1.0743 0.19552-2.566-0.0489-3.5154 0.50261-1.0808 0.62739-0.69675 2.6293 0.39858 3.0553 1.3622 0.53003 2.9355-0.48727 4.3686-0.08099-1.2183 0.91114-3.9972 0.65908-4.7608 1.8872-0.9743 1.5639 0.33171 3.2238 1.8402 3.6805 1.8692 0.56626 4.16-0.15012 5.6328-1.3403 6.0522-4.8923 4.959-12.358 7.4938-18.953 1.0537-2.7465 3.7468-4.9809 3.772-7.9762m-51.322-18.202h0.41729l0.83458 2.6587h0.20862l-0.01869-12.476-1.7993-12.68-0.26829-6.3401h-0.20862c-0.31481 0.90636-0.71508 1.7798-1.1018 2.6587-0.19068 0.43369-1.3091 4.1252-2.0147 3.177-0.61314-0.82436 0.60092-2.8156 0.94147-3.586 1.0381-2.3475 3.0684-5.9194 1.3401-8.3853-0.87619 1.4769-1.7642 3.2445-2.1853 4.9085-0.09597 0.37884-0.17399 1.6696-0.88993 1.3894-1.0297-0.40299 0.02399-2.4192 0.25264-3.0254 0.64903-1.7192 2.1532-3.3022 2.6809-4.967 0.33255-1.0492-0.13644-2.7461-0.2758-3.8274-2.0024 1.4389-2.0238 6.2583-4.3811 6.9537 0.0046 6.6651 1.4263 13.431 2.2353 20.043 0.19173 1.565 0.3507 3.1371 0.53602 4.704 0.05299 0.44852 0.27914 1.3373-0.31169 1.5654-0.84717 0.32728-0.94224-1.744-0.98385-2.179-0.26725-2.8052-0.77731-5.5824-1.043-8.3853-0.45394-4.786-1.3309-9.5194-1.6661-14.316-0.23241-3.3277 0.19527-6.6937-0.03713-10.021-0.24868-3.5582-0.81587-7.0586-0.81587-10.635-4.011 0-8.8229 0.70638-12.726-0.20452-0.63643 3.6873 0.36676 7.7267 0.20049 11.453-0.50281 11.259-0.40927 22.681-0.40927 33.95 0 3.9519-0.72348 7.9636-1.3401 11.862-0.19068 1.2055-0.0058 3.2228-1.1633 3.8859 0.20299 2.5211 1.3206 5.5421 0.41729 7.9762-1.5771-0.84599-2.9779-0.0961-4.5897 0.40903 0.2735 1.4817 1.3584 2.7254 1.9788 4.0904 1.1648 2.5624 0.32587 4.9872 3.654 5.7265-0.54404 0.96724-1.4847 0.81781-2.5033 0.81807l0.83457 10.84 0.41729 6.7491c4.1405-1.539 4.1624-6.299 7.1016-8.9612 1.9685-1.7828 4.7583-3.8077 7.2935-4.7158 1.5401-0.55167 4.0519-0.24992 5.2951-1.3416 1.4202-1.247 2.0528-3.3598 2.7828-5.0242 2.5877-5.9002 2.5717-12.883 2.1261-19.225-0.12684-1.8039-1.0991-3.7458-0.81587-5.522m5.6328 44.79c-0.45699-1.579-1.9406-5.3441 0.41729-6.1356l0.20862 6.1356h-0.62536m-40.473-1.8409c-0.97431-1.3094-3.4074-1.8442-4.3811-0.20452l4.3811 0.20452m-22.949-31.905c-2.2407-2.2238 3.2971-3.4537 3.9302-4.7814 0.27977-0.58613-0.31627-1.207-0.43752-1.7632-0.14625-0.6694 0.16335-1.3841 0.26245-2.0452-2.4549 1.1232-7.988 3.5091-10.323 0.77153-0.83343-0.9768-0.19193-2.2857 0.34944-3.2257 1.0247-1.779 2.2334-3.874 3.0436-5.7265 0.41156-0.94058-0.40392-1.7886-0.65628-2.6588-0.54976-1.8988-0.04652-3.6666-1.4825-5.3087-3.3715-3.8554-10.474 0.11965-14.506 0.82637-0.81854 0.14358-1.6859 0.65028-2.5033 0.66512-2.0582 0.0368-3.3906-1.895-3.9638-3.5455l0.83457-0.20452c0.8949 5.095 4.4919-0.23008 4.6421-2.8633 0.17879-3.1361-1.0648-6.4724-1.2855-9.6124-0.35195-5.0089 0.00104-9.9249-0.64483-14.93h-0.20862l-1.9017 5.931-2.238 7.3627-11.226 14.93-4.2985 13.907-5.5797 11.658c2.7622-1.417 5.3089 0.28351 7.7191 1.8165 2.015 1.2814 6.4565-0.60601 7.1243 2.8843 0.26265 1.3722-2.0505 2.0386-2.8191 2.7921-0.79907 0.78411-1.1144 2.0054-1.6928 2.9375-1.652 2.6606-3.1245 3.1248-2.2731 6.5446 0.13477 0.54161 0.15396 1.5071 0.6204 1.8872 0.48906 0.39847 1.4072 0.0969 1.9612 4e-3 3.58-0.60198 1.6497-5.3713 4.0221-7.3152 0.88153-0.72248 2.4938 0.51569 3.4883 0.72021 0-1.0993 0.098473-2.2255-0.30626-3.2723-0.56389-1.4583-1.8868-2.8806-1.3626-4.4994 2.3113 0.95743 4.3517 0.37004 6.6759-0.15646 0.73111-0.16546 2.3842-0.73053 3.0004-0.12619 0.63987 0.62764-0.054037 2.0386-0.25911 2.7369-0.71431 2.4321-2.1784 4.2937-1.5897 6.9536 0.42416 1.9181 2.0036 2.7266 2.9764 4.2949 1.0499 1.6922 1.6 3.5087 2.8611 5.113 1.7089 2.174 4.054 3.6083 6.1513 5.384 1.0953 0.92724 1.5741 3.2015 2.7454 3.8055 0.97545 0.50312 2.3029-0.4757 3.3078-0.52224 1.4107-0.06504 2.5808-0.56072 3.9638-0.67216 0.92429-0.07424 2.0647 0.19511 2.9199-0.22926 2.4457-1.2133 3.7957-4.8154 4.8334-6.9479 0.6162-1.2661 1.8261-2.2072 2.4682-3.4768 0.40278-0.79668 0.11537-1.6804 0.60474-2.4534 1.0663-1.6837 1.7852-2.0819 2.2082-4.0912 0.2105-0.99969 1.0778-1.9526 0.68377-3.0183-0.29541-0.79895-1.9704-0.78687-2.6385-1.3572-1.1236-0.95869-1.4431-2.8361-1.6329-4.2143-0.19402-1.412-0.26871-2.6808 0.0061-4.0904 0.24263-1.2442 0.93078-2.597 0.40622-3.8777-1.4584-3.5584-7.858 0.45507-7.9815 3.0596m32.754 31.7-0.20862-6.9536h-1.8776l0.41729 2.0452c-1.1728-0.22252-1.8761-1.0324-2.9206-1.5207-2.6561-1.2417-6.0459-0.88625-7.0932 2.1342l2.8328-0.74512 0.22218 1.7597 2.388 2.3765 6.2401 0.90385m42.55-0.5157c-2.9157-0.27042-5.8713 0.0814-8.7528-0.69631-0.39934-0.10778-3.2978-1.1619-2.3655-1.8346 0.58412-0.42161 2.0922 0.13069 2.7828 0.1356 2.908 0.02106 5.6182-0.46186 8.3401 1.1172 0.66506 0.38564 1.1912 1.3891-0.0046 1.2782m104.74-4.2831c-1.0495-0.17998-2.3701-0.32829-3.3066-0.85379-0.48601-0.27395-0.70324-0.9514 0-1.135 1.9047-0.49683 3.7823 1.6862 5.8102 0.44098 1.5084-0.92624 3.1898-2.3141 4.3018-3.6748 0.66125-0.80851 0.99111-1.8774 1.7753-2.5812 0.66964-0.60047 1.9047-1.4636 2.8706-1.2359 0.457 0.10799 0.8823 0.59972 0.50052 1.0309-0.55091 0.6216-1.8234 0.53758-2.5075 1.2173-2.6557 2.6446-4.7984 7.5893-9.4444 6.7915m-30.459-6.4497c-0.9869 0.2835-3.9221 3.122-2.2323 4.0728 0.88649 0.49833 1.3748-0.99215 2.2304-0.87593 0.31085 0.0423 3.7865 2.7774 2.7641-0.12844-0.42568-1.2067-2.0299-1.9911-2.7622-3.0684m-16.899 4.4994c0.82388-1.33 0.62574-2.7886 0.62574-4.2949l-4.1725 1.0226c0.51311 1.4759 2.128 2.6526 3.5468 3.2723m-50.348-0.54538-0.0697-0.13621 0.0697 0.13621m-49.792-0.27269c0.40812-1.8708-0.22364-6.1789-2.0861-6.9537 0.30334 1.3914 1.0045 2.6624 1.2206 4.0904 0.15501 1.0228-0.07531 2.2004 0.86588 2.8633m-1.6691-0.40904v-0.20451l-1.043-1.0226c-0.30334 0.85505 0.22782 1.1632 1.043 1.2271m51.321 0c-0.85442-6.5939-7.2115-9.0882-13.352-7.3627-1.2858 0.36148-3.3429 0.75316-4.1725 1.8406 4.5832-1.2631 11.425-0.75065 15.226 2.3272 1.1052 0.89479 1.329 2.2467 2.2979 3.1948m1.2519-0.61355c0.88001-0.40879 1.9654-0.73581 2.6225-1.4751 0.82006-0.92247 0.71546-2.2945 0.71546-3.4333-2e-3 -3.9419-4.4637-7.9441-7.7788-9.7803-1.2202-0.67593-3.215-0.14929-4.5301-0.0548-1.5432 0.11085-4.0281 0.0299-5.3806 0.83895-1.0709 0.64072-1.9303 2.3093-2.7141 3.2697-2.0841 2.5536-4.674 4.8444-5.8832 7.9762 1.2385-0.98712 2.1342-2.1498 3.5467-2.9751 1.1805-0.68977 3.0665-1.0827 4.0154-2.0376 1.0045-1.0108 1.7081-3.3093 3.2868-3.6456 1.9074-0.40627 4.1556 2.337 5.1895 3.4995 1.1293 1.2701 3.0955 1.5275 4.3389 2.7915 1.4107 1.4334 1.5332 3.4165 2.5717 5.0261m81.989-5.3175c-0.1356 0.9846-0.61352 2.0706-0.28164 3.0588 0.40278 1.1954 3.2879 2.6127 4.4458 1.8993 1.7421-1.0757 1.208-3.7335-0.44859-4.6602-1.014-0.56903-2.587-0.2981-3.7155-0.2981m-106.82 4.9085c1.5645-4.2149 4.3348-7.2038 7.1349-10.635 0.8571-1.0502 1.8818-3.1999 3.0989-3.7971 0.73608-0.36123 1.6921-0.32023 2.4919-0.44752 2.2174-0.35268 5.3266-1.178 7.5096-0.42916 0.94033 0.32275 1.5283 1.2274 2.2987 1.8095 2.4648 1.863 5.7403 4.454 6.556 7.568 0.31711 1.21-0.0375 2.4658-0.0918 3.6813 2.2575-1.5566 2.9393-6.238 2.1884-8.7943-0.33171-1.1282-1.329-1.9534-1.7192-3.0678-0.55702-1.5936-0.62994-4.2961 1.4084-4.704-0.12517-5.9229-1.7753-12.22-2.9905-17.998-0.3217-1.529 2e-3 -4.6309-1.1515-5.8077-1.027-1.047-3.7094-0.67191-4.8288-0.10185-0.51158 0.26062-1.7967 1.2077-2.3552 0.65179-0.55015-0.54789 0.58985-2.0422 0.63872-2.7185 0.15021-2.0914-1.9028-4.8395-4.1218-4.9766-1.0033-0.062-2.0368 1.3136-2.7152 1.9264-2.1884 1.9757-3.8535 4.4638-6.0686 6.3626-0.80365 0.68902-2.7339 2.5688-3.8195 1.3257-1.4603-1.6721 1.0606-3.5678 1.2408-5.0471 0.12747-1.0482-0.97011-2.0107-1.0862-3.0678-0.08429-0.77002 0.3653-1.4902 0.23866-2.2497-0.36551-2.1936-1.1938-4.8044-2.1517-6.7491-0.32504-0.66009-0.64368-3.1392 0.41194-3.3557 0.92887-0.19061 2.6034 1.4897 3.307 1.9999 2.3964 1.7378 4.3404 3.2199 7.0932 4.3982 0.76738 0.32853 1.8123 1.1944 2.6935 1.0523 1.9123-0.30841 4.3369-4.3479 3.8117-6.1399-0.26328-0.89807-1.5714-1.7078-1.4615-2.6549 0.32128-2.7682 5.0389-0.46362 6.0134 0.20064l-3.9639-24.747h-23.157c1.7073 8.1084 2.7072 16.703 3.5112 24.951 0.1719 1.7632-0.10869 3.5552 0.07114 5.3175 0.62269 6.1069 1.7524 11.824 1.7524 17.998 0 3.682 0.0895 7.3584 0.0895 11.044 0 1.2508 0.44287 3.1954-0.83457 3.8859l-0.54213 9.2034-4.8822 11.044 4.3811 3.0678m66.76-0.81807-0.83457-2.4542-2.9206 1.2271v0.61355l3.7552 0.61355m51.113-6.5446c2.3949 0.66134 2.9832 1.1285 3.3379 3.4768 0.88649-0.60751 2.9542-4.3409 2.2697-5.4018-0.84298-1.3056-3.5571-2.7813-4.8526-1.2331-0.46959 0.55896-0.57801 2.3898-0.75516 3.1582m-124.76 1.0226c-0.47303-1.569-0.13164-3.2901-0.52228-4.9085-0.72118-2.9876-2.3449-5.602-1.9814-8.7943 1.2335 0.40124 1.0048 2.5739 1.2549 3.6813 0.75555 3.3455 2.7408 6.456 1.6657 10.021h-0.41729m39.221 0c1.5355-1.9594 4.5042-5.5897 4.2997-8.1808-0.0751-0.9451-0.93269-3.2803-2.0257-3.4648-0.68416-0.11535-1.5794 0.27017-2.2739 0.33558-0.51961 0.0489-1.4897-0.24829-1.8715 0.19286-1.6752 1.9294 1.2725 4.7379 1.6065 6.4131 0.29833 1.5088-0.34632 3.2746 0.26495 4.704m-91.377-5.113-0.62574-1.6361-6.8846 2.4542-0.20862-0.20452c0.48982-0.98611 0.88535-2.4439 1.6989-3.1954 1.8742-1.7307 5.3641-2.3028 5.3942 0.94561 1.6226-0.4362 2.4915 0.72952 3.9638 0.98359 0.7964 0.13744 1.5287-0.33859 2.2731 0.16321 2.012 1.3572 0.40278 3.0563-1.2484 3.6384-0.6204 0.21843-1.2312-0.0706-1.8589-0.0221-1.6424 0.1268-3.3967 0.51897-5.007 0.89278-0.95789 0.22252-2.1403 0.92498-3.1295 0.7821-0.98003-0.14194-2.9034-0.92901-3.1997-1.9395-0.21884-0.74637 0.43485-1.449 1.1148-1.6796 1.282-0.43545 2.8527 0.17384 4.1714-0.0227 1.2809-0.19082 2.2666-1.0661 3.5468-1.1599m69.889 4.0904c2.1849-0.55418 3.8558-0.49406 6.0501-0.20452v-0.20452c-1.8035-1.3312-3.6827-3.3431-5.4899-1.0226-0.36322 0.46639-0.64063 0.85806-0.56007 1.4316m5.2156-5.522c2.7725 0.23724 8.7851 2.5514 10.014 5.113l-0.20862 0.20452c-2.5461-0.95969-4.9621-2.5808-7.5105-3.6507-0.95713-0.40173-2.0975-0.5489-2.2949-1.6668m51.87 4.4818c-0.75517-0.56123 0.4589-1.7856 0.93269-2.0688 1.7276-1.0299 3.8721-1.1901 5.8206-1.5104 4.4499-0.73179 8.8269-1.2933 13.352-1.0993 3.7113 0.15932 7.1099 0.95391 10.848 0.27521 2.1613-0.39243 4.3602-1.4973 6.048-2.8639 0.39438-0.32023 1.3435-1.5395 1.957-1.0832 0.78227 0.58211-0.73035 1.7901-1.1202 2.1056-1.715 1.3846-3.8846 2.4409-6.0501 2.9416-4.6774 1.0812-9.1022-0.15236-13.769-0.35268-3.6155-0.15503-7.2768 0.81505-10.848 1.251-1.6921 0.20636-3.9743 0.41507-5.4034 1.3934-0.40888 0.2815-1.1579 1.4643-1.7669 1.0113m-94.847 0.0176c-0.0075-2.6592-0.99187-6.193-3.1295-7.9762-0.79983 1.2593-2.2609 2.5594-2.4556 4.0904-0.31377 2.4658 3.6407 3.73 5.5851 3.8858m17.524-44.381c1.4366 0.46312 1.6279 3.6008 2.0276 4.9085 1.6531 5.4075 1.9383 10.957 1.936 16.566-6.26e-4 1.4792 0.17045 5.8226-1.6691 6.1356l0.60741-13.089-1.6504-9.4079h-0.20862c0 4.4227-1.0961 9.4066-2.2178 13.703-0.59558 2.2816-1.6321 4.5812-1.7379 6.9537-0.15835 3.5468 1.6901 6.275 2.388 9.6124 0.5322 2.545 0.08929 5.6854-0.51846 8.1808-1.0843-0.35268-0.81205-1.3305-0.60092-2.2497 0.44592-1.9425 0.7082-4.2029 0.07531-6.1356-0.88459-2.7004-2.2621-5.2854-2.3411-8.1808-0.07719-2.8303 1.0583-5.4866 1.7455-8.1808 0.89108-3.4936 1.4206-7.1119 2.0673-10.635 0.49059-2.6724-0.42607-5.5535 0.09701-8.1808m115.79 32.519c-0.43179 2.5986-6.6759 2.706-8.7622 2.6557-2.5702-0.0618-4.9506-1.6686-7.5104-1.6067-2.3407 0.0567-4.6982 1.0276-6.8846 1.7418-4.0682 1.3297-7.9674 2.8095-11.892 4.5088-2.1739 0.94209-7.5772 2.7457-9.726 0.9114-0.4547-0.3879-0.17525-0.86461 0.35048-0.9529 1.1328-0.19021 2.3678 0.37784 3.5342 0.27419 2.708-0.24071 5.224-1.3468 7.7191-2.3382 5.007-1.9886 10.74-5.1162 16.273-5.3046 3.4028-0.11576 6.3964 1.6807 9.8053 1.5342 2.4533-0.10553 4.6774-1.3733 7.0932-1.4236m-143.95 4.4994-0.20862 2.2497c1.9467-0.29457 3.6773-3.1762 4.9659-4.5579 0.50853-0.54512 1.2183-1.1816 1.1347-1.9868-0.19485-1.8751-1.9933-3.3703-1.7195-5.3175h0.41729l2.2949 5.113h0.41729l2.5033-1.6361-0.83457 2.0452 3.1295 0.40903-3.5468-20.452c-4.8032 1.0774-10.04 3.9943-12.941 8.011-1.2503 1.7307-1.5684 4.0478-2.6045 5.8963-1.5615 2.7856-3.722 5.3936-4.393 8.5898-0.23366 1.1129 0.11912 2.527 0.11912 3.6814 1.1896-0.38413 1.7753-1.8409 2.343-2.8633 1.3717-2.4713 3.018-4.7538 4.499-7.1582 0.65857-1.0691 1.1053-3.2089 2.5461-3.2723-1.6172 3.3332-4.3811 6.2701-4.3811 10.021h0.20862l1.8776-2.4542c0.18171 1.9571-1.0885 4.7054-0.64063 6.5135 0.23303 0.94083 2.3117 0.36878 2.8691-5e-3 1.1408-0.76399 0.04486-2.7455 1.944-2.8275m88.874 2.6587c2.128-2.5207 1.886-4.362 2.5931-7.3627 0.66545-2.826 1.5813-5.7996 2.4491-8.5898 0.71966-2.3093 3.7907-1.6958 4.4354-3.8861 0.63223-2.1518-0.0897-4.7322 0.17941-6.9534 0.62994-5.2437 0.81167-10.549-0.37552-15.748-0.29207-1.2777-0.97621-2.4197-1.3038-3.6813-1.6378-6.2757-3.3524-11.485-10.481-13.498-1.0827 4.589-4.1766 8.5804-5.9562 12.885-1.185 2.8665-2.3907 6.5395-2.7683 9.6124-0.28164 2.3138 0.0334 4.6291-0.33379 6.9536-0.54252 3.4192-2.151 6.2738-1.9986 9.8169 4.4812-0.85203 8.879 0.48752 12.1 3.6814 1.2893 1.2789 2.3659 2.6082 3.0356 4.2949 0.16064 0.40275 0.62993 1.5654-0.12518 1.7116-0.54862 0.10573-0.75936-0.74864-0.90138-1.0983-0.57153-1.405-1.4626-2.7408-2.4701-3.8856-2.3846-2.7117-7.6356-4.6669-11.222-3.4768l0.51311 4.7039 1.3645 8.5898c1.6294-0.0685 3.2921-0.47469 4.7983 0.4108 1.0972 0.64499 1.744 1.9725 2.929 2.4499 0.92849 0.37407 2.564-0.68122 3.2108 0.10983 0.68644 0.84197 0.0375 2.0396 0.32754 2.9606m-96.385-4.0896h-0.20862l-2.0861 3.6814c1.6268-0.4679 2.099-2.1974 2.2949-3.6814m82.824 2.4542c1.4542-3.4948 0.57382-5.8576 0.0605-9.4079-0.45699-3.1387-0.65705-6.2785-1.2164-9.4079-0.35048-1.969 0.83649-3.8824 0.4841-5.7265-0.67384-3.5057-2.0196-6.9921-2.9958-10.43-1.9318-6.8131-3.7552-13.658-5.7476-20.452-1.0732-3.6636-1.395-7.6948-2.0422-11.453-0.19736-1.1456-0.12142-3.6787-0.8571-4.5806-0.44172-0.54161-1.8387-0.3786-2.498-0.5323l-0.20862 0.20452c3.949 15.714 5.952 32.136 8.8832 48.062 1.4355 7.8079 1.7711 16.954 6.1377 23.724m79.198-2.4622c-0.47341-0.36099-0.0501-0.88649 0.31919-1.1051 1.6149-0.95441 3.3024-2.4245 4.9757-3.1981 0.54022-0.24992 1.4603-0.55293 1.9486-0.0364 0.73836 0.78084-0.89299 1.1539-1.3225 1.3723-1.1472 0.58386-4.3707 4.1472-5.9207 2.9674m-53.053-0.83794c-1.4122-0.29558 1.3145-1.8978 1.8108-1.9737 3.722-0.56977 6.7657-2e-3 10.431-1.3579 6.3046-2.3334 10.944-6.6618 18.15-5.5498 3.1608 0.48777 5.0508 2.6473 7.7191 4.0969 1.1037 0.59947 3.2314 0.0321 4.0431 0.84197 1.258 1.2553-3.4505 0.80222-4.0431 0.57305-2.1445-0.82964-3.7575-2.6878-5.8414-3.6846-1.9631-0.93857-4.7733-0.95341-6.8846-0.63393-4.2184 0.6382-7.596 3.5138-11.474 5.0852-3.9472 1.5992-7.1057 1.5987-11.266 1.7929-0.87199 0.0407-1.8276 0.98083-2.6454 0.80977m-42-68.486h-1.4603l3.3547 20.861 8.1196 47.039c0.68644-2e-3 1.8524 0.13683 2.151-0.66009 0.43828-1.1715-0.4276-3.2612-0.63834-4.4528-0.64063-3.6155-1.2622-7.234-1.9715-10.84-3.3986-17.276-6.2321-34.658-9.5551-51.948m96.407 65.41c-0.79487-0.10962-0.37761-1.0128-0.11475-1.3959 0.68416-0.99467 1.5897-1.933 2.5954-2.6133 2.4178-1.6351 5.322-1.7526 8.1363-2.1458 1.093-0.15277 2.687-0.47519 3.7552-0.13437 0.62154 0.19798 2.7809 2.414 1.2393 2.6602-0.68835 0.11003-1.3038-1.094-2.0738-1.213-2.4056-0.3713-5.8853 0.10716-8.1363 0.9773-1.3832 0.53482-2.6954 1.449-3.7342 2.4874-0.41729 0.41834-0.94491 1.4769-1.6669 1.3775m-198.84-59.07-0.41729-5.3175c-0.66506 1.0669-0.62307 2.3989-1.303 3.4768-1.3683 2.1692-3.378 3.8333-4.8317 5.931-2.8573 4.1221-4.8781 8.7906-7.4009 13.089-0.8865 1.5104-2.3357 2.5724-3.2345 4.0904-2.7599 4.6618-3.8944 10.016-8.0646 13.886-2.6477 2.457-8.9708 1.5647-12.3 1.0996-1.6527-0.2309-5.012-0.29659-6.0044 1.4457-0.57229 1.0047 0.55396 3.3999 0.87962 4.4299 0.71393 2.2582 2.2731 2.7062 3.7166 4.3327 2.1555 2.429 3.8777 5.2414 6.2095 7.5263 0.83038 0.81405 4.0542 3.7499 5.3502 2.9254 1.4088-0.8963 1.8001-3.7836 2.5828-5.1721 1.8608-3.3014 3.4345-6.5919 4.4923-10.226 0.95064-3.2654 1.4897-6.9696 3.0378-10.021 0.84106-1.6575 2.3575-3.0017 3.4589-4.4994 1.8272-2.4849 3.4815-5.0968 5.3345-7.5672 1.0663-1.4216 2.4274-2.645 3.1115-4.2949 1.4607-3.5232 2.0349-7.4255 3.2971-11.044 0.43447-1.2462 0.86817-3.448 2.0857-4.0904m193.46 57.025c-0.61353-0.088-0.35258-0.86285-0.1669-1.1919 0.65514-1.1655 1.8295-2.0796 2.7248-3.0639 1.45-1.5964 3.1608-2.9567 4.669-4.5025 2.0902-2.144 3.8429-4.8825 7.3102-4.4372 2.0341 0.26111 4.3102 1.3202 5.8331 2.6581 0.26496 0.23376 2.1364 2.3503 0.81167 2.3503-0.81167 0-1.644-1.4004-2.2636-1.8414-1.8944-1.3448-4.8359-2.6573-7.0932-1.4256-1.4271 0.77807-2.2739 2.1689-3.3566 3.3095-1.6627 1.7529-3.5426 3.2919-5.1342 5.113-0.68225 0.78009-2.08 3.2116-3.3337 3.0318m-42.001-7.1224c4.9006 0 9.5592-0.32929 14.395-0.9519 3.3421-0.43041 7.1057-1.2623 10.431-0.34815 3.0481 0.83769 5.9041 2.5956 8.7622 3.8957 0.70705 0.32124 2.2865 1.6087 3.0481 1.2573 1.6669-0.77052 1.7505-4.3276 2.929-5.6324 0.65933-0.73003 2.2304-1.6226 3.2024-1.8185 0.66773-0.13457 1.4084 0.13519 1.9505-0.38438 1.7108-1.6389 1.1954-5.3559 1.8944-7.4705 0.3338-1.0123 1.2393-1.9974 1.2893-3.0678 0.0939-1.9267-1.9841-2.7905-2.2968-4.4994-0.84908-4.6242-1.0033-10.152-3.6907-14.316-2.6286-4.0722-7.4228-6.5473-11.247-9.3813-4.016-2.9753-7.6315-5.9799-12.935-4.6113-4.936 1.2739-8.6016 7.2784-11.176 11.334-2.7267 4.2933-4.2496 8.8379-5.4931 13.703-0.53411 2.095-1.308 4.3722-1.3851 6.5446-0.048 1.3637 0.3797 2.7303 0.3025 4.0904-0.0918 1.58-0.66124 3.115-0.59863 4.7039 0.0918 2.334 0.61734 4.6013 0.61734 6.9536m10.848 0c-1.7234 0.32753-3.4589 1.044-5.2156 1.1496-3.3818 0.20391-6.6822-1.1386-8.3449 2.7363 4.9048-0.60777 9.9847 0.44827 13.561-3.8859m-12.1-9.4079-1.2519-0.20452c-0.83228 3.9578-2.8519 9.2784-1.8776 13.294 5.8915-2.7005 1.9986-8.434 3.1295-13.089m-94.715 12.476c0.46577-10.634 0.39552-21.488-0.12476-32.109-0.14479-2.9565-0.96514-6.0431-0.86817-8.9988 0.08387-2.5634 1.7661-5.2631 2.314-7.7717 0.75134-3.4416 0.55664-6.9183 0.55664-10.43l-7.5104-0.20452 0.45279 7.1582 1.208 8.9988-0.14646 14.112 1.802 11.453-0.72577 4.2949 1.9074 8.3853 1.1347 5.113m-35.049-10.021c-2.0002 0.92196-4.7731 3.9153-4.7983 6.1356 2.3747 0 6.3726 0.28703 5.8106-3.0496-0.21238-1.2606-1.3263-1.6472-1.0121-3.086m132.68 2.8633 9.3881-2.4542c-0.0897 1.9813-5.4034 2.8792-7.0932 3.1772-0.93269 0.16444-1.957 0.27244-2.2949-0.72298m24.826-3.8859 5.4242 0.93504 5.007-0.32149c-0.34214 1.0374-1.4916 1.1393-2.5033 1.209-2.0318 0.13948-6.8178 0.17139-7.9277-1.8225m-35.466 1.2271c0.62803-0.74989 2.0028-1.4465 2.3785-2.2932 0.76356-1.7242-0.0104-5.4672-0.23157-7.3191-0.54022-4.4845-0.27747-9.0226-0.8907-13.498-0.24826-1.8029 0.4547-4.8655-0.33797-6.4591-0.52571-1.0545-3.7636-1.9664-4.8818-2.1307 1.114 2.662 1.2206 5.2232 1.8547 7.9762 0.93689 4.0769 2.4178 7.8063 2.5243 12.067 0.0563 2.3088 0.0104 4.6618-0.26704 6.9537-0.17107 1.4276-0.73225 3.3398-0.14812 4.7039m21.697-4.0904c-1.1098 0.23663-2.0299-0.21556-3.1295-0.17732-1.8089 0.0626-4.3477 1.2138-5.6328 2.427l2.5034 0.61355c0.51311-2.9062 3.6426-3.503 4.7983-0.61355l3.1295-1.4316c-0.4547 2.8328-6.3025 3.3782-8.5536 2.8048-0.71355-0.18161-2.8103-0.49708-2.9122-1.3972-0.0981-0.85253 1.258-1.4351 1.8692-1.7511 1.5084-0.77908 7.0661-3.022 7.9277-0.47444m-120.38 2.0452c-4.1485-6.7544-6.4673-14.996-6.4673-22.906-0.87504 0.44501-2.7358 1.6585-2.9092 2.6935-0.18902 1.1295 1.5428 3.6603 1.8952 4.8737 1.4324 4.932 4.0698 11.018 2.6828 16.157l4.7983-0.81807m-5.4242 0.61355 0.20862-2.4542-2.0861 0.61355c0.33567 0.96523 0.89299 1.5116 1.8776 1.8406m13.561-5.3175c-2.9561 0.0597-6.4625 0.45683-9.1794 1.6361 0.33755 0.87442 0.99836 2.3762 1.9162 2.7919 2.8546 1.2928 6.8737-1.8432 7.2632-4.428m126.84 3.4768v-0.40903l0.20863-0.20452 1.8776 0.40903c0.30668-2.6994 4.6815-2.9097 4.1725-0.20451l2.7122-0.81807v-0.20452l-4.5897-1.3368-4.1725 0.51871v-0.81806c3.507-0.66663 7.4103-0.0937 10.64 1.4316v0.40904c-3.2711 1.7493-7.3164 2.5528-10.848 1.2271m-60.501-0.20495c1.5084-5.2116 0.97011-10.228 0.4528-15.543-0.59024-6.0622-1.0514-12.143-1.6692-18.202-0.4192-4.109-0.67194-9.076-4.3164-11.943-1.2538-0.98611-4.1725-0.16791-5.733-0.5323 0.062 2.9412 0.87467 5.9028 1.3694 8.7943 1.4176 8.2794 3.704 16.265 6.0532 24.338 0.87008 2.9929 1.6542 6.0069 2.5304 8.9988 0.38789 1.324 0.57802 2.9107 1.3122 4.0904m48.818 0c-1.0346-3.3989-1.1411-7.5153-1.4958-11.044-0.12517-1.2452-0.80937-2.6661-0.35883-3.8859 1.0327-2.7919 4.9193-4.308 7.6961-3.2001 2.0276 0.80926 3.822 2.9616 4.7983 4.8363-2.1865 0.30514-3.4692-3.8288-6.0501-4.0691-2.107-0.19614-5.0904 0.66738-5.5431 3.0465-0.52572 2.7727 0.79067 7.0019 1.1892 9.8169 0.19611 1.3878 0.89489 3.4142-0.23575 4.4994m-16.69-0.20451c0-1.093 0.53832-4.8279-0.54251-5.4948-1.5687-0.96749-3.4734 4.2078-2.3117 5.167 0.68644 0.56802 2.0173 0.32778 2.8538 0.32778m-111.82-1.2271-0.20862-1.6361c-1.7337 0.30212-2.8721 0.85455-2.2949 2.6588l2.5033-1.0226m13.352-2.6587v-2.0452c-3.6498 0-6.7377 0.92749-10.223 1.8406l0.89184 1.6794 3.0718-0.67972 6.2587-0.79517m-16.273 1.4316c1.4863-0.99693 2.5427-1.0908 2.2949-3.0678-1.4111 0.37859-3.8453 1.4452-2.2949 3.0678m169.4-3.2723-5.007-0.20452 0.62574 2.2497c1.4042-0.0284 4.7086-0.13028 4.3811-2.0452m-167.32-0.61355-0.41729-1.2271c-1.5569 0.36577-3.1199 1.1021-2.7122 2.8633l3.1295-1.6361m13.978-0.40903c-0.09868-1.7456-1.4786-1.4475-2.9206-1.4309-2.7923 0.0325-5.5546 0.8636-8.1363 1.8399l0.62574 1.6361c3.5009-0.93655 6.7509-2.0452 10.431-2.0452m-50.07 0.20452v-0.20452l-2.5033 0.81807 2.5033-0.61356m35.466-1.8406-0.41729-1.2271c-1.5004 0.40224-2.9867 0.90234-2.7122 2.6588l3.1295-1.4316m165.65 1.3458c1.6378 0.20002 3.4925-2.7275 2.9355-4.1828-0.52571-1.3682-2.6935-1.8069-3.9785-1.9868-2.4136-0.33759-4.9986 1.4387-3.509 3.9472 0.943 1.5909 2.8416 2.0137 4.5522 2.2225m-151.46-1.9594c-0.17337-3.9474-5.3927-1.8678-7.9277-1.0923-0.80823 0.24727-2.6385 0.42262-3.1043 1.1967-0.28936 0.48123 0.06843 1.2419 0.18338 1.7362l10.848-1.8406m-50.904 1.6361c1.421-0.39168 3.0749-0.55268 4.3811-1.2555 2.6209-1.4102 5.8876-6.4968 5.3337-9.584-0.42301-2.3571-3.1783-4.4319-4.3135-6.5446-2.3655-4.4025-3.986-9.6108-5.6099-14.316h-0.20862l0.61772 8.5898 0.043603 9.4079 1.2049 8.9988-1.4492 4.7039m101.39-1.499c1.2828 0.22436 3.3742-0.0767 3.958-1.4258 0.61734-1.4273-0.60627-5.179-2.2888-5.4097-1.3328-0.18284-1.8631 1.1567-2.5717 1.9944-1.718 2.0326-2.8057 4.192 0.90215 4.8412m-68.22-0.13723 2.9206-1.4316-0.41729-1.2271-2.9206 1.2271 0.41729 1.4316m17.316-3.0678-0.20862-1.0226c-2.8996-0.35922-5.5932 0.25206-8.3449 1.1589-1.1805 0.38941-2.7561 0.6284-2.5033 2.1133 3.772-0.85555 7.1191-2.2497 11.057-2.2497m-17.733 1.0226 2.7122-1.2271-0.20862-1.2271c-1.2702 0.24235-3.6815 0.75316-2.5033 2.4542m17.107-2.8633c-0.18505-1.581-1.5802-1.5176-2.9206-1.3109-2.7492 0.42413-5.8035 1.4336-8.3449 2.5381l0.20862 1.0226c3.8056-0.66311 7.0219-2.7492 11.057-2.2497m-17.316 0.61355 2.5033-1.0226v-0.20452c-0.99798-0.2893-3.1069-0.33634-2.5033 1.2271m16.899-2.8633-0.20862-0.81807c-4.2023 0-7.1577 0.85857-11.057 2.2497l0.20862 1.2271 7.5104-2.2987 3.5468-0.35998m130.39 2.4542 3.5361-4.4994 0.63643-5.113h0.41728c1.4687 2.7453-0.0584 5.938-2.086 7.9762-0.74486 0.74939-1.3538 1.7986-2.5033 1.6361m-147.08-1.6361 1.6691-0.20452c-0.34006-1.0035-1.8345-0.91869-1.6691 0.20452m16.273-2.4542-0.20862-1.2271c-2.7626 0-5.6963 0.19389-8.3449 1.0286-1.2393 0.39067-2.6969 0.98284-2.2949 2.4484 3.7655-1.3209 6.8045-2.2497 10.848-2.2497m-15.508 0.68172-0.06968-0.13621 0.06968 0.13621m4.4506-0.47721c3.1356-1.617 6.8888-2.2492 10.431-2.2497-1.1549-3.3204-6.0359-1.3456-8.3449-0.36225-1.1018 0.46941-2.6549 1.2299-2.0861 2.6119m122.67-1.0226c1.6188-5.0156 5.2323-10.194 11.266-8.9403 3.2108 0.66763 5.3178 3.0999 7.5104 5.259 0.9388 0.92473 2.464 1.8565 1.8776 3.2723-6.1565-1.9058-12.678 0.46111-18.985-0.81807-0.33588 0.83769-0.70706 1.3634-1.6692 1.2271m-122.88-1.0226c2.4117-1.5939 5.2018-2.6569 8.1363-2.6588-1.9654-2.0927-9.7383-1.0923-8.1363 2.6588m84.075-0.20452c1.8131-2.144 2.9813-5.1752 3.9534-7.7717 0.59252-1.5866 1.0117-3.5249 2.3052-4.7039-1.4393-1.1396-4.2351-2.3196-6.0501-2.6588l-2e-3 10.635-0.20654 4.4994m56.12-1.6361v-0.40903c-1.4813-0.82738-2.7622-2.0567-4.3811-2.6397-3.0562-1.1006-9.0814 0.17527-10.014 3.6623l7.0932-0.81505 7.3018 0.20145m14.812-3.2723h0.20862c2.5346-1.5443 6.8616-1.9239 8.8456-4.2151 0.78456-0.90762 0.33379-3.2447 0.33379-4.3746 0-4.2419-0.70515-8.2683-1.043-12.476h-64.673c-2e-3 3.7582-0.83458 7.4688-0.83458 11.249 0 1.0045-0.42988 3.1713 0.16065 4.0098 0.67804 0.95945 2.5556 1.122 3.5945 1.5021 2.6431 0.96749 5.1238 2.3963 7.7191 3.4872 1.6856 0.70914 3.3444 1.5187 5.007 2.2836 0.55282 0.25508 1.4061 0.8963 2.0467 0.69782 1.185-0.36702 1.9734-2.8475 2.6183-3.7998 2.1112-3.1216 4.5167-6.6982 7.4354-9.1418 2.7477-2.3 7.6023-3.448 11.057-2.0801 1.8066 0.71468 3.3776 2.2047 5.0069 3.2353 4.4458 2.8117 8.7747 5.9536 12.517 9.6228m-119.75-3.6813c0.95445-2.1825 2.1441-5.1541 3.9638-6.7491l-0.41729-3.4768h-0.20862c-0.5406 1.1204-0.89299 2.4119-1.5466 3.4688-0.16753 0.27118-0.63185 0.88951-0.99836 0.49154-0.54633-0.59267 0.75707-2.7328 1.0258-3.3468 0.76585-1.7463 2.4381-6.0883 0.17984-7.5615-0.69866-0.45582-2.0284-0.21024-2.8332-0.21024l0.62269 11.249 0.21176 6.1356m153.97-17.385h-18.985c-0.84717 4.281 0.13143 8.6984 1.6692 12.68 4.258-0.61631 8.7038-2.6254 12.726-4.1006 1.2477-0.45784 3.6113-0.98963 4.3748-2.1433 0.89069-1.3458 0.21488-4.8457 0.21488-6.4364m-98.053 0c-4.7733 0-10.588 0.87894-15.23-0.20452 1.0808 4.5125 5.8519 8.3051 9.8053 10.331 0.81587 0.41758 3.6342 2.1028 4.4374 1.3987 0.68835-0.60198 0.70934-2.1063 0.81166-2.9355 0.34632-2.8324 0.17524-5.7376 0.17524-8.5898m-124.34-15.543v-4.0904l-6.0501-0.20452v-23.315l-5.4242 0.20451c0.47303 1.9471 0.20862 4.1414 0.20862 6.1355v11.044c0 1.2475 0.60703 4.6794-0.33443 5.6038-0.94415 0.92448-4.4358 0.32728-5.7157 0.32728v4.4994h11.474l5.8414-0.20452m7.7191 0.20452v-7.3627c0-0.83039-0.27768-2.2804 0.21447-3.0024 0.63528-0.93454 5.8475-0.87542 6.3357 0.18612 0.37511 0.81605 0.1258 2.1413 0.1258 3.0207v7.1582h5.2156v-27.815h-5.2156v8.1807c0 1.0369 0.31523 2.6751-0.1258 3.6343-0.4883 1.0616-5.7004 1.1207-6.3357 0.18611-0.54213-0.79568-0.21447-2.4909-0.21447-3.4114v-8.5897h-5.2156v27.815h5.2156m30.876 0v-4.4994h-9.5967v-6.7492h9.1794v-4.4994h-9.1794v-7.7717h10.014v-4.2949h-10.223l-5.2156 0.20452c0.87046 3.5852 0.20862 7.9762 0.20862 11.658 0 4.9289 0.95522 10.956-0.20862 15.748l5.2156 0.20452h9.8053m17.942-4.4994v-6.7491h6.6759l2.2892-0.32728 0.21447-4.1722h-9.1796v-12.067h-5.4242v27.815h10.848c0.98156 0 3.2463 0.41105 4.0467-0.21065 0.6517-0.50513 0.62994-3.7897-0.14917-4.1661-0.74715-0.35998-2.0399-0.12271-2.8542-0.12271h-6.4673m22.949 4.4994 7.0932-27.815c-1.1526 0-4.6358-0.56852-5.4267 0.32703-1.2102 1.3735-0.05841 5.3788-2.5022 5.5916-1.329 0.11657-5.4292 0.60626-6.1944-0.63141-0.78685-1.2754-0.29061-4.16-1.4691-5.0762-0.97622-0.7597-4.0471-0.21065-5.2703-0.21065 0.93651 6.8187 3.5739 13.531 5.0954 20.247 0.40316 1.7793 0.8991 3.5504 1.35 5.3175 0.15041 0.5889 0.27851 1.6422 0.79983 2.0391 1.1736 0.89378 5.0493 0.21065 6.5241 0.21065m14.812 0v-27.815h-5.2156v27.815h5.2156m20.028 0v-4.4994h-5.8414v-23.315h-5.4242v23.315h-5.8415v4.4994h17.107m7.9277 0v-7.3627c0-0.8304-0.27747-2.2804 0.21488-3.0024 0.66354-0.97555 5.6433-0.82839 6.2462 0.16975 0.47341 0.78335 0.21488 2.1596 0.21488 3.0371v7.1582h5.2156v-27.815h-5.2156v7.9762c0 1.082 0.29208 2.6546-0.12517 3.6691-0.49021 1.1884-5.6266 1.3969-6.3359 0.35595-0.54252-0.79568-0.21489-2.4909-0.21489-3.4114v-8.59h-5.2156v27.815h5.2156m30.876 0v-4.4994h-9.5967v-6.7491h6.0501c0.76165 0 1.9463 0.21474 2.6454-0.12272 0.78036-0.37633 0.80098-3.6609 0.15021-4.1661-0.54671-0.42538-1.7276-0.21065-2.3785-0.21065h-6.4671v-12.067c-1.0724 0-4.5042-0.54589-5.2093 0.32702-0.86779 1.0742-0.21488 4.6631-0.21488 6.0128v15.543c0 1.2721-0.60703 4.5874 0.21488 5.6038 0.58413 0.72399 2.8958 0.32728 3.7491 0.32728h11.057m7.7191 0v-19.02c0-2.1483 0.37135-5.4893 3.3379-5.4485 2.658 0.0368 3.3131 3.2129 3.3379 5.244 0.0772 6.4055 0 12.817 0 19.225h5.2156v-15.952c0-2.9349 0.34006-6.109-1.0972-8.7943-2.5828-4.8246-12.042-5.2173-14.892-0.41004-1.3977 2.3571-1.1182 5.158-1.1182 7.7717v11.044c0 1.9941 0.26495 4.1886-0.20863 6.1356l5.4242 0.20452m20.862 0v-17.18c0-1.3129-0.65094-5.0455 0.3338-6.0128 0.57153-0.55846 1.8566-0.32703 2.587-0.32703h6.8846v-4.2948h-15.021v27.815h5.2156m-105.77-4.9073c-0.59482-3.0085-1.2969-5.9965-1.9192-8.9988-0.16022-0.77304-0.87619-2.6546-0.36175-3.3541 0.6307-0.85479 4.2881-0.38664 5.2016-0.12271l-2.5033 12.476z" clip-path="url(#clipPath748)" fill="#3a090b" filter="url(#filter846)"/>
 </g>
</svg>
