<svg width="135.23" height="123.16" viewBox="0 0 35.778 32.586" xmlns="http://www.w3.org/2000/svg"><defs><clipPath id="a"><ellipse transform="scale(1 -1)" cx="-228.24" cy="438.25" rx="50.71" ry="46.185" fill="red" fill-rule="evenodd" stroke-width=".869"/></clipPath></defs><path transform="matrix(.35278 0 0 -.35278 98.406 -138.31)" d="M-332.7-296.06v-251.56H49.08v251.56H-332.7m109.11-11.453v-1.636h-1.67v1.636h1.67m160.01 0v-1.636h-1.67v1.636h1.67m-190.26-.205v-1.431h-2.712v-6.954l-.215-2.535-1.663-.328v9.817h-2.712v1.432h7.302m2.712 0v-3.477c1.19.94 3.508 1.609 4.082-.41.614-2.161.09-5.12.09-7.362h-1.669v4.908c-.002 1.16-1.053 3.707-2.257 1.614-.686-1.192.672-6.344-1.089-6.48-1.378-.106-1.035 1.763-1.035 2.617v8.59h1.878m19.193 0v-4.705c1.773 1.905 2.486 4.702 5.424 4.704l-2.834-4.645 3.251-6.603c-2.753.002-3.633 2.656-4.59 4.908h-.417l-.834-4.908h-1.67v11.249h1.67m56.954 0v-1.432l-2.378-.328-.335-2.535v-6.954h-1.877v9.817h-2.712v1.432h7.301m2.713 0v-3.477c1.27 1.02 3.565 1.649 4.245-.412.693-2.105.136-5.153.136-7.36h-1.877c0 1.836.077 3.689-.004 5.522-.029.647-.236 1.553-1.043 1.652-.785.097-1.292-.817-1.41-1.447-.335-1.804-.047-3.894-.047-5.727h-1.669v11.25h1.67m19.401-6.545c0-2.016.802-4.695-1.877-4.704v11.249c1.598 0 4.277.502 5.61-.515 1.669-1.27 1.598-4.449-.206-5.574-1.022-.638-2.372-.456-3.527-.456m54.242 6.545v-1.432l-2.378-.328-.334-2.535v-6.954h-1.67v6.954l-.333 2.535-2.587.328v1.432h7.302m2.712 0v-3.477c5.343 3.885 4.381-4.965 4.381-7.772H-93.2c0 1.808.19 3.73-.06 5.522-.086.618-.26 1.518-.996 1.687-.862.198-1.479-.786-1.608-1.482-.336-1.804-.048-3.894-.048-5.727h-1.67v11.25h1.67m19.402-6.545c0-2.016.8-4.695-1.878-4.704v11.249c1.638 0 4.233.486 5.612-.543 1.598-1.195 1.502-4.48-.206-5.546-1.025-.638-2.372-.456-3.528-.456m0 5.317c0-.928-.399-3.009.215-3.762 1.333-1.639 4.658 2.407 1.658 3.58-.584.228-1.258.18-1.873.183m-76.565-.41v-3.272c3.986-1.155 4.125 4.468 0 3.273m-86.161-5.522h-4.381c0-.407-.02-.823.022-1.228.371-3.576 2.797-.018 4.359 0-.11-2.367-2.772-4.192-4.963-2.515-1.117.856-1.308 2.656-1.292 3.947.033 2.588 3.149 6.8 5.69 3.455.772-1.016.565-2.471.565-3.66m23.366-4.09c-2.536.03-1.66 3.263-1.67 5.113-.004.772.007 2.012-1.05 2.114-2.157.21-1.444-4.38-1.453-5.59-.006-.797-.218-2.056-1.394-1.513-.77.356-.483 1.864-.483 2.535 0 1.925-.968 5.9 1.669 5.93v-.817c5.595 3.268 4.38-4.45 4.38-7.772m6.468 7.976c.14.642 1.07.937 1.391.182.277-.651.07-1.733.07-2.431 0-2.041.74-5.831-.522-7.562-.824-1.13-2.8-1.33-4.068-.88-.57.202-1.786 1.1-1.304 1.829.65.982 1.784-.5 2.347-.682 1.719-.558 1.878 1.506 1.878 2.59-5.195-4.17-6.492 7.753-1.878 7.698.758-.009 1.432-.416 2.086-.744m49.235-3.886c-1.078 0-3.185.396-4.106-.21-.95-.626-.201-2.489.771-2.704 1.45-.321 1.406 2.035 3.335 1.482-.583-2.18-3.512-4.348-5.497-2.001-1.142 1.35-.949 3.66-.724 5.273.343 2.457 3.373 3.951 5.34 2 .985-.979.881-2.57.881-3.84m15.647 4.636c4.801.77 5.255-8.275 1.252-8.888-4.942-.756-5.528 8.2-1.252 8.888m6.885-8.113v-3.477c-.565.002-1.45-.128-1.752.474-.925 1.842-.126 5.854-.126 7.911 0 .747-.219 1.908.126 2.594.401.8 1.392.404 1.752-.14 6.505 4.483 5.995-12.053 0-7.362m12.1 3.477c-1.079 0-3.185.396-4.106-.21-.95-.626-.202-2.49.771-2.705 1.45-.32 1.406 2.036 3.335 1.483-.573-2.143-3.233-4.225-5.342-2.17-.932.908-1.176 2.778-1.087 4.01.189 2.605 3.08 6.515 5.696 3.25.782-.975.732-2.484.733-3.659m41.725 0h-4.59c.004-.41-.004-.822.063-1.228.603-3.588 2.772.3 4.527-.203-.614-2.296-3.578-4.312-5.526-1.83-.977 1.245-.883 3.414-.693 4.898.302 2.377 3.344 4.206 5.326 2.203.974-.985.893-2.574.893-3.84m17.524 2.864c-3.503-.04-2.503-4.541-2.503-6.954h-1.67c0 2.482-.394 5.315.032 7.76.24 1.383 1.554.653 1.638-.397 1.225 1.43 2.495 1.794 2.503-.41m6.259-6.953c-.505.002-1.306-.115-1.663.328-.375.465-.215 1.37-.215 1.922 0 1.555-.578 4.466.125 5.866.436.867 1.334.28 1.544-.344 3.945 2.304 4.59-.796 4.59-4.09 0-.802.382-2.921-.334-3.472-.503-.386-1.3-.152-1.477.434-.55 1.818.553 4.116-.221 5.878-.428.97-1.613.852-2.103 0-.528-.915-.246-2.438-.246-3.454v-3.068m11.892 5.727h-1.878c-.256 2.245-2.199 1.72-2.553-.205-.199-1.077-.253-2.473.296-3.473.983-1.8 2.188-.231 2.466 1.019h1.669c-.455-2.298-3.044-4.904-5.307-2.408-1.102 1.214-1.083 3.343-.916 4.862.438 3.993 5.664 4.256 6.223.205m7.302-1.636h-4.59c.004-.41-.004-.823.063-1.229.603-3.588 2.772.3 4.527-.203-.58-2.17-3.326-4.244-5.343-2.018-1.11 1.226-1.05 3.349-.88 4.881.269 2.413 3.216 4.545 5.33 2.408.974-.984.893-2.573.893-3.84m6.884 2.046h-1.669c-.496 1.416-2.837 1.573-2.226.02.852-2.168 4.824-1.166 3.805-4.721-.895-3.123-5.687-1.692-5.751 1.224h1.46c.375-1.816 3.206-1.913 2.627-.208-.706 2.076-4.521 1.219-3.979 4.298.586 3.324 5.197 2.053 5.733-.613m6.885.204c-1.37-.393-2.959 1.919-3.787.584-.565-.912.58-1.516 1.283-1.797 1.715-.686 2.988-1.66 2.414-3.694-.88-3.108-5.725-1.714-5.752 1.226h1.46c.445-1.666 3.178-2.03 2.604-.208-.663 2.1-4.562 1.157-3.989 4.298.578 3.165 5.178 2.236 5.767-.409m-196.52-6.34h-1.67v8.59l1.455-.328.215-2.33v-5.931m160.01 0h-1.67v6.544c0 .67-.187 1.985.835 1.985 1.023 0 .835-1.316.835-1.985v-6.544m-179.19 7.353c-1.794-.933-.298-2.924 1.371-2.117 1.198.58-.076 2.791-1.371 2.117m78.003-2.036h2.712c-.03 2.69-2.574 2.613-2.712 0m34.632 0h2.712c-.025 2.697-2.573 2.617-2.712 0m44.437-.205c-.002.402.029.829-.048 1.225-.51 2.6-3.618.008-2.328-1.015.538-.426 1.727-.21 2.376-.21m41.328 2.294c-1.989-.697-.687-2.807 1.18-2.229 1.244.386.128 2.686-1.18 2.229m-167.11-.2c-1.785-.67-1.462-6.464.79-5.619 1.777.667 1.495 6.478-.79 5.62m66.99.003c-1.592-.675-1.431-6.866.959-5.996 1.853.675 1.505 7.04-.96 5.996m7.698-.062c-1.505-.76-1.385-6.728.976-5.795 1.712.677 1.25 6.92-.976 5.795m-38.618-33.122c1.94.085 3.497 3.839 4.379 5.318.477.8.894 2.05 2.077 1.602 1.14-.433.74-1.716.543-2.625-.543-2.496-2.287-4.458-3.282-6.75-1.714-3.944-.353-7.919-1.455-11.861-.91-3.25-3.803-5.516-4.46-8.999-.242-1.283-.669-3.002-.579-4.295.113-1.62.938-3.053.155-4.704-1.747-3.68-7.693-3.335-8.226-7.362-1.667 0-3.25.408-4.527 1.54-.722.639-1.06 1.489-1.94 1.936.827-4.496 7.557-5.218 11.265-4.346 1.516.357 2.847 1.224 4.381 1.483-.591-3.077-2.765-7.375-2.295-10.43h.418l2.461 8.794.25 3.068h.21c0-4.477.748-15.965-6.885-13.907l.834 1.227c-1.854.433-3.067-.674-4.794-.641-.582.01-2.335 1.182-2.792 1.583-1.397 1.223-1.997 4.138-2.678 5.807-2.069 5.07-6.188 13.791.876 17.384-.12-1.35-1.858-4.291-.417-5.113.432 2.05.938 5.25 2.712 6.545l-.626-7.772c1.095.895.964 2.376 1.062 3.682.183 2.452.542 4.824 1.336 7.158 1.452 4.268 2.761 8.373 3.2 12.885.327 3.373-.456 6.897.353 10.226.596 2.454 2.314 4.854 3.656 6.953 1.537 2.406 2.864 5.166 4.85 7.264 1.982 2.096 3.542-.314 2.676-2.355-1.73-4.078-5.46-7.07-6.943-11.248-.36-1.016 2.345-3.215 3.302-2.801 2 .864-2.008 2.962-1.84 3.832.45 2.339 3.134 4.604 4.409 6.535.582.883.97 2.262 1.804 2.942 1.938 1.577 2.377-2.1 2.073-3.146-1.01-3.473-3.743-6.34-5.543-9.408m41.099 11.658c-2.454-.251-4.256 3.418-6.885 2.634-2.468-.736-4.372-2.304-6.467-3.68-7.114-4.67-12.644-12.176-15.687-20.02-1.208-3.113-2.86-5.96-2.663-9.407.191-3.349 2.783-7.245 4.184-10.226.94-2 1.657-5.966 3.257-7.472.625-.589 1.208.528 1.529.925 1.389 1.718 3.445 2.865 5.416 3.838 7.047 3.478 12.44 2.396 19.402-.563 2.17-.922 3.765-2.264 5.424-3.886.488-.477 1.271-1.56 2.078-1.243 1.333.523 2.247 2.965 2.931 4.106 1.613 2.684 3.32 5.144 4.663 7.977.672 1.417.79 3.194 1.594 4.499.565-1.497-.282-2.645-.714-4.09-1.122-3.757-2.923-7.74-5.065-11.044-.605-.936-1.744-3.53-2.978-3.699-.817-.111-1.787 1.168-2.3 1.655-1.558 1.479-3.267 3.298-5.216 4.268-6.554 3.263-16.015 3.805-21.905-1.064-1.81-1.497-3.04-3.656-4.173-5.66-1.332.375-1.814 1.774-2.491 2.863-1.676 2.698-3.212 5.561-4.653 8.386-2.135 4.186-3.543 8.976-2.554 13.703.78 3.737 2.74 7.068 4.457 10.43.57 1.116.774 2.395 1.402 3.476 2.104 3.626 4.723 6.54 7.558 9.613 2.73 2.957 5.826 4.875 9.424 6.668 1.916.955 3.157 1.967 5.424 1.69 2.916-.356 6.082-2.734 8.172-4.598 5.301-4.729 8.62-10.214 11.773-16.44 1.085-2.142 2.115-4.45 2.795-6.75.161-.54.697-1.777.207-2.272-.547-.55-1 .738-1.11 1.046-.655 1.808-1.279 3.654-2.265 5.317-2.598 4.38-5.045 8.99-8.397 12.885-1.712 1.988-5.212 3.768-6.167 6.135m9.596-48.266h-.417c-5.586 6.275-15.376 10.198-23.574 7.064-2.236-.855-4.506-2.004-6.467-3.364-1.094-.759-1.926-1.918-3.13-2.472-.709 1.801-1.54 3.535-2.292 5.317-.268.634-.77 1.502-.285 2.144 1.869 2.48 6.274 3.745 9.045 4.928 1.38.588 3.24 1.264 3.825 2.746.637 1.613.595 3.614.823 5.317.738 5.503.567 11.02.567 16.566 0 2.515-.617 6.717.631 8.99 2.156 3.929 7.738 2.912 10.36.295.67-.669.355-1.507.294-2.332-.134-1.782-.228-3.527-.228-5.318 0-5.716-.417-11.44-.417-17.18 0-1.899-.818-4.743-.083-6.532.535-1.3 3.079-1.164 4.256-1.476 3.278-.87 6.629-2.333 9.388-4.263.749-.523 2.537-1.452 2.587-2.472.04-.79-.84-1.61-1.244-2.232-1.23-1.882-2.568-3.754-3.638-5.726m-53.408 49.903l-1.46-2.454h-.209l1.67 2.454m44.02-3.272c5.132-4.621 8.872-9.355 12.28-15.34 1.533-2.693 3.314-5.473 3.784-8.59-1.798 0-4.433.153-6.046-.703-1.05-.557-1.733-1.972-.583-2.826.86-.636 2.114-.276 3.082-.186 1.684.157 3.33-.165 5.007-.17.889-3.77-1.644-6.276-2.295-9.817-1.888.717-3.46 2.401-5.215 3.425-3.203 1.869-7.32 3.442-11.057 3.733 0 7.215.234 14.47.414 21.68.061 2.456-.684 6.645.63 8.794m-13.145-.205c-.16-7.643.846-16.222-.696-23.724-.393-1.916.101-4.865-1.127-6.501-1.046-1.395-3.527-2.018-5.061-2.752-2.053-.983-3.975-1.826-5.842-3.135-.497-.349-1.35-1.118-2.004-.736-.912.532-.973 2.213-1.243 3.103-.9 2.96-2.366 5.208-1.623 8.385 1.655 7.08 6.11 14.753 11.06 20.101 1.89 2.042 3.885 4.18 6.537 5.259m55.076-32.314c-1.853.186-4.415 2.137-6.257 1.68-1.627-.405-2.756-3.18-3.795-4.339-1.537-1.711-3.648-2.827-5.013-4.704-1.329-1.828-1.298-4.137-2.176-6.135-.552-1.26-1.786-2.044-2.37-3.273l2.086 1.841h.209c.002-4.347-.49-7.883-1.878-12.067l-1.877 1.227.834 6.136c-1.322-.758-1.064-4.275-1.252-5.727l-2.295.614c.142 6.487 3.338 12.923 3.076 19.429-.136 3.298-1.674 6.783-2.867 9.817l.835.204c.657-1.978.678-5.927 2.574-7.207 1.28-.863 3.553.416 4.573-1.224.645-1.035-1.128-4.044-2.534-3.406-1.214.55-1.169 2.669-1.9 3.657-.731-4.572 4.495-5.822 5.006-.818 1.911.178 3.822 3.617 5.216 4.89.39.356 1.625 1.07 1.506 1.698-.113.581-1.254.816-1.715.991-1.45.55-3.324 1.476-4.146-.423-.657-1.52-.753-3.322-1.279-4.907-1.746.354-2.658.562-4.38 0 .705 1.366 2.666 5.891 1.54 7.3-.81 1.016-2.703.677-3.835.676-3.263 0-6.53.205-9.806.205.71 1.263 2.476.955 3.755 1.04 1.932.13 3.902.353 5.842.128 1.408-.163 3.278-.714 4.571.077 1.18.723.872 2.085 1.078 3.254.52 2.919 1.012 5.628 1.131 8.59.027.655 1.083 3.512 1.805 3.57 2.026.16 1.7-2.435 1.47-3.57-.594-2.939-1.498-5.778-1.501-8.794-.002-.979-.355-2.183.21-3.056.707-1.092 2.379-1.213 3.545-1.53 2.994-.817 10-2.146 10.014-5.845m-63.422-21.884l-2.086 1.84c3.54 10.85 16.68 12.747 26.078 7.747 1.93-1.027 3.663-2.96 5.215-4.474 1.508-1.47 4.1-1.799 4.83-3.886 1-2.854-.449-6.91-2.563-8.96-.734-.712-1.862-.888-2.482-1.702-1.822-2.389-1.9-5.85-3.83-8.145-2.715-3.232-8.76-3.287-12.645-3.28-1.491.001-3.43.11-4.762.838-3.06 1.672-3.627 5.682-5.294 8.364-1.063 1.71-2.073.813-3.273 1.875-1.187 1.05-1.225 2.676-1.713 4.057-.496 1.405-1.413 2.548-1.435 4.09-.01.714.003 2.437.888 2.702 1.048.313 2.025-1.025 3.071-1.066m-21.07 11.453c.634-1.66.243-3.114-.418-4.704h-.209l.626 4.704m-1.043-.818l-.417-4.704c-2.511-.838-4.409-1.431-7.093-1.431.01 2.65 2.84 2.816 4.798 4.062.969.617 1.696 1.57 2.712 2.073m-18.776-.409c.438-5.429 4.128-10.178 5.633-15.339-1.83.039-2.818 1.035-4.172 2.124-1.412 1.135-3.752 3.038-4.26 4.84-.586 2.086 1.46 6.79 2.8 8.375m82.823-1.636l-.208-.205c.2-.852.344-1.736 1.251-2.045l-.625 2.25h-.418m96.384-24.133h-.208c-.603.49-1.158.044-1.878.29-1.252.428-2.22 1.479-3.13 2.369a85.636 85.636 0 00-2.98 3.064c-1.077 1.167-2.101 1.853-3.695 1.367-.412-.125-2.687-.637-2.103-1.43.524-.71 2.998.698 3.98.206 2.602-1.303 4.169-4.57 6.676-6.163 1.03-.654 2.345-1.552 3.338-.521h.209c.586-2.196 1.932-4.285 2.251-6.545.307-2.16-.526-4.09.019-6.34.732-3.022 2.637-5.535 3.383-8.59.801-3.276-.467-5.824-.625-8.998-.088-1.79.934-3.5.713-5.318-.21-1.735-2.215-3.347-3.282-4.704-.964-1.227-1.708-4.33-2.933-5.076-.755-.46-2.015-.241-2.864-.241-1.38 0-3.278-.145-4.59.216-1.333.367-2.41 1.348-3.755 1.758-1.124.342-2.727.156-3.728.721-1.966 1.11-1.446 5.645-2.09 7.53-1.025 2.998-2.733 1.847-4.822 3.174-1.81 1.152-2.128 2.775-2.985 4.598-.365.775-1.173 2.737-2.143 2.914-.607.11-1.658-1.014-2.174-1.303-2.065-1.165-4.28-2.152-6.467-3.073-4.788-2.016-9.945-1.989-15.021-.681-2.823.726-4.836 3.401-7.72 4.201-3.16.877-6.696-.567-9.805.699-2.72 1.108-4.527 4.52-7.719 3.379l1.46-2.045-.208 1.227c1.423-.155 5.005-2.375 5.59-3.717.308-.71-.166-1.82-.043-2.623.46-2.97.83-6.348 1.755-9.204-5.105-.808-3.622 4.262-5.56 6.714-.97 1.226-3.033 1.047-3.824 2.329-.39.635-.3 1.515-.588 2.206-1.043 2.492-2.888 7.078-2.14 9.817.496 1.817 2.286 2.85 2.774 4.704.482 1.831-.323 4.76 1.129 6.238.807.822 2.528 1.043 3.62 1.329 2.194-2.817 3.721-1.281 6.675-1.004 1.559.147 2.708-1.64 4.59-1.412 2.193.265 3.384 2.227 5.633 2.522 2.247.295 4.01-2.55 6.258-2.742 1.553-.134 3.178.975 4.59.8 1.632-.202 2.502-1.487 4.381-1.164 1.986.34 4.348 2.059 6.449 1.479 1.591-.439 2.47-2.739 3.982-3.554 1.918-1.034 3.943-.041 5.633-.738 1.556-.641 2.641-2.353 4.173-3.16 1.506-.795 3.799-.864 5.109-1.863.505-.385.6-1.11 1.028-1.573 1.014-1.097 2.28-1.09 3.668-1.09-.36-5.006 4.35-5.412 7.183-1.986.378.458.574.995.353 1.57-.4 1.044-1.175 1.417-1.029 2.666.165 1.414 1.538 3.107 1.231 4.5-.668 3.03-4.337 2.139-5.654 3.95-.644.888-.077 2.032-.29 3.004-.29 1.338-1.635 2.737-2.664 3.6-2.299 1.931-4.988-.758-7.408.409-.732.353-.457 1.684-.789 2.33-.534 1.049-1.608 1.852-2.616 2.436-3.066 1.776-6.333-.081-9.578.352-1.078.144-2.703 2.847-3.773 3.531-2.04 1.305-4.836 1.87-6.885.322-1.018-.77-1.55-1.993-2.712-2.55a6.155 6.155 0 01-1.26 1.84c-2.535 2.598-6.024.984-8.537-.942-.624-.479-1.014-1.347-1.715-1.702-1.386-.701-2.92 1.126-4.344.936-2.808-.375-4.996-3.253-7.719-3.609.77 1.378 2.604 1.985 3.668 3.158.665.733.674 1.752 1.202 2.56.596.912 1.65 1.275 2.326 2.092.83 1.002.989 1.952 2.192 2.7 2.11 1.308 4.995 1.255 6.883 2.83 1.195.998 2.038 2.283 3.34 3.191 1.202.839 2.624 1.149 3.755 2.118 1.348 1.157 2.526 2.923 4.381 3.32 1.8.386 4.004.838 5.842.449 3.177-.674 6.265-2.74 9.388-3.733 1.456-.463 2.964.071 4.381-.424 2.345-.82 4.03-2.543 6.467-3.26 1.93-.568 4.048-.473 5.842-1.5 5.159-2.956 7.788-9.563 8.553-15.137m-120.58 21.065c1.03-.21 5.403-.328 5.842.41-1.68.766-4.755 1.627-5.842-.41m-14.186-2.25l5.216 1.976 3.13-.544c.193 1.256-1.27 1.404-2.296 1.429-1.856.044-5.683-.72-6.05-2.86m100.97 1.14c-2.98-.37-5.979-.962-8.97-.512-.468.07-1.482-.025-1.025-.754.589-.943 2.59-.697 3.528-.692 3.415.016 6.807 1.304 10.223.458 2.762-.685 4.245-2.058 5.806-4.344.413-.603 1.406-2.82 2.316-2.675.782.125.23 1.094.02 1.447a36.595 36.595 0 01-2.666 3.886c-1.977 2.534-6.075 3.578-9.231 3.186m-87.622-1.754c1.881-.4 5.014-.542 6.884 0-1.35 2.111-5.716 2.396-6.884 0m-12.517-.613c1.83-.454 5.922-.41 6.884 1.431-2.15.674-5.724.95-6.884-1.431m8.136 2.045c-.675-1.374-.418-2.854-.768-4.295-.225-.925-.842-1.607-1.231-2.454-.238-.518-.49-1.417-.081-1.922.395-.488 1.322-.276 1.872-.313 1.348-.088 4.895-.555 5.424 1.007l-6.676-.204c.557 2.747 2.808 5.088 1.878 8.18h-.418m85.953-2.95c-3.167-.422-5.75-1.228-8.97-1.149-.447.011-1.805-.16-1.114-.894.71-.754 3.28-.585 4.243-.493 3.828.363 6.89 1.884 10.848 1.055 2.846-.596 5.324-2.054 7.266-4.158.553-.6 1.963-2.972 2.898-2.827.797.123.106 1.286-.108 1.6-.914 1.33-2.141 2.58-3.38 3.62-3.063 2.57-7.696 3.779-11.683 3.247m-67.385-2.368l-.626-2.659c1.649.07 2.12 1.921.626 2.66m-31.294-5.318h.417c.096.408-.45 4.118-.515 4.14-.615.212-1.001-.626-1.073-1.074-.175-1.09.637-2.176 1.171-3.066m100.14 3.969c-2.105-.078-3.834-.986-5.84-1.41-2.402-.505-4.685-.31-7.094-.31-.4 0-2.852-.152-1.594-1.017.853-.586 2.885-.21 3.889-.21 1.794 0 3.67-.029 5.424.389 2.524.6 4.606 1.656 7.302 1.18 2.474-.435 4.5-2.829 6.258-4.427.622-.564 1.92-1.905 2.886-1.676 1.4.332-2.089 2.738-2.468 3.069-2.75 2.407-4.844 4.557-8.762 4.412m28.58-.393c-.435-.09-4.268-1.722-2.645-2.182 1.342-.38 2.587 1.57 4.087.816 1.233-.62 2.197-4.088 3.74-3.862 1.123.164-.34 1.744-.583 2.061-1.254 1.63-2.116 3.681-4.598 3.166m-74.48-29.14c-.812.182-1.726.583-2.564.352-1.344-.37-1.976-1.728-3.07-2.468-1.063-.72-2.732-.685-3.963-.446-1.686.326-1.657 2.339-2.443 3.585-1.659 2.632-3.14 5.488-5.017 7.976-.804 1.066-2.383 2.028-2.846 3.273-.478 1.286.611 2.05 1.126 3.067-1.339.352-2.174 2.19-.598 2.963 1.007.495 2.059-.01 3.098.136.578.081.784.32 1.047.787-1.074.196-2.566-.049-3.515.503-1.081.627-.697 2.63.398 3.055 1.362.53 2.936-.487 4.369-.08-1.218.91-3.997.658-4.76 1.886-.975 1.564.33 3.224 1.84 3.68 1.868.567 4.16-.15 5.632-1.34 6.052-4.892 4.96-12.357 7.494-18.952 1.054-2.747 3.747-4.981 3.772-7.977m-51.322-18.202h.417l.835 2.659h.208l-.018-12.476-1.8-12.68-.268-6.34h-.209c-.314.906-.715 1.78-1.101 2.659-.191.433-1.31 4.125-2.015 3.177-.613-.825.6-2.816.941-3.586 1.039-2.348 3.069-5.92 1.34-8.386-.876 1.477-1.764 3.245-2.185 4.909-.096.379-.174 1.67-.89 1.39-1.03-.404.024-2.42.253-3.026.649-1.72 2.153-3.302 2.68-4.967.333-1.05-.136-2.746-.275-3.828-2.002 1.44-2.024 6.259-4.381 6.954.005 6.665 1.426 13.431 2.235 20.043.192 1.565.35 3.137.536 4.704.053.449.28 1.337-.311 1.566-.848.327-.943-1.744-.984-2.18-.268-2.805-.778-5.582-1.043-8.385-.454-4.786-1.331-9.52-1.666-14.316-.233-3.327.195-6.693-.038-10.02-.248-3.559-.815-7.06-.815-10.636-4.011 0-8.823.707-12.726-.204-.637 3.687.366 7.726.2 11.453-.503 11.259-.41 22.68-.41 33.95 0 3.952-.723 7.963-1.34 11.862-.19 1.205-.005 3.223-1.162 3.886.203 2.52 1.32 5.542.417 7.976-1.577-.846-2.978-.096-4.59.409.274 1.482 1.359 2.725 1.979 4.09 1.165 2.563.326 4.987 3.654 5.727-.544.967-1.485.818-2.503.818l.834 10.84.417 6.749c4.141-1.54 4.163-6.3 7.102-8.961 1.969-1.783 4.758-3.808 7.294-4.716 1.54-.552 4.051-.25 5.295-1.342 1.42-1.247 2.052-3.36 2.782-5.024 2.588-5.9 2.572-12.883 2.127-19.225-.127-1.804-1.1-3.746-.816-5.522m5.633 44.79c-.457-1.579-1.941-5.344.417-6.135l.208 6.135h-.625m-40.473-1.84c-.974-1.31-3.407-1.845-4.381-.205l4.381.204m-22.949-31.905c-2.24-2.224 3.297-3.453 3.93-4.781.28-.586-.316-1.207-.437-1.763-.147-.67.163-1.384.262-2.046-2.455 1.124-7.988 3.51-10.323.772-.833-.977-.192-2.286.35-3.226 1.024-1.779 2.233-3.874 3.043-5.726.412-.94-.404-1.789-.656-2.66-.55-1.898-.047-3.666-1.483-5.308-3.371-3.855-10.474.12-14.506.827-.818.143-1.685.65-2.503.665-2.058.037-3.39-1.895-3.964-3.546l.835-.204c.895 5.095 4.492-.23 4.642-2.864.179-3.136-1.065-6.472-1.285-9.612-.352-5.009 0-9.925-.645-14.93h-.209l-1.902 5.931-2.238 7.363-11.226 14.93-4.298 13.907-5.58 11.658c2.762-1.417 5.31.283 7.72 1.816 2.014 1.282 6.456-.606 7.124 2.885.262 1.372-2.05 2.038-2.82 2.792-.798.784-1.114 2.005-1.692 2.937-1.652 2.66-3.125 3.125-2.273 6.545.134.541.154 1.507.62 1.887.49.398 1.407.097 1.961.004 3.58-.602 1.65-5.371 4.022-7.315.882-.723 2.494.515 3.489.72 0-1.1.098-2.226-.307-3.272-.563-1.459-1.886-2.881-1.362-4.5 2.311.958 4.352.37 6.676-.156.73-.166 2.384-.73 3-.126.64.627-.054 2.038-.259 2.736-.714 2.433-2.178 4.294-1.59 6.954.425 1.918 2.004 2.727 2.977 4.295 1.05 1.692 1.6 3.509 2.86 5.113 1.71 2.174 4.055 3.608 6.152 5.384 1.096.927 1.574 3.201 2.746 3.805.975.504 2.303-.475 3.307-.522 1.411-.065 2.581-.56 3.964-.672.925-.074 2.065.195 2.92-.23 2.446-1.212 3.796-4.815 4.834-6.947.616-1.266 1.826-2.207 2.468-3.477.402-.797.115-1.68.604-2.453 1.067-1.684 1.786-2.082 2.209-4.091.21-1 1.077-1.953.683-3.019-.295-.799-1.97-.787-2.638-1.357-1.124-.959-1.443-2.836-1.633-4.214-.194-1.412-.269-2.681.006-4.09.243-1.245.93-2.598.406-3.878-1.458-3.559-7.858.455-7.981 3.06m32.754 31.7l-.209-6.954h-1.877l.417 2.045c-1.173-.223-1.876-1.033-2.92-1.52-2.657-1.243-6.047-.887-7.094 2.133l2.833-.745.222 1.76 2.388 2.376 6.24.904m42.55-.516c-2.916-.27-5.871.082-8.753-.696-.4-.108-3.298-1.162-2.365-1.834.584-.422 2.092.13 2.783.135 2.908.021 5.618-.462 8.34 1.117.665.386 1.19 1.39-.005 1.279m104.74-4.284c-1.05-.18-2.37-.328-3.307-.853-.486-.274-.703-.952 0-1.135 1.905-.497 3.782 1.686 5.81.44 1.509-.926 3.19-2.313 4.302-3.674.661-.809.991-1.878 1.775-2.581.67-.6 1.905-1.464 2.871-1.236.457.108.882.6.5 1.03-.55.622-1.823.538-2.507 1.218-2.656 2.645-4.798 7.59-9.444 6.791m-30.46-6.45c-.986.284-3.921 3.123-2.232 4.074.887.498 1.375-.993 2.23-.876.312.042 3.787 2.777 2.765-.129-.426-1.207-2.03-1.99-2.762-3.068m-16.9 4.5c.824-1.33.626-2.79.626-4.296l-4.172 1.023c.513 1.476 2.128 2.652 3.547 3.272m-50.348-.545l-.07-.136.07.136m-49.792-.273c.408-1.87-.224-6.179-2.086-6.954.303 1.392 1.004 2.663 1.22 4.09.155 1.024-.075 2.201.866 2.864m-1.67-.409v-.204l-1.042-1.023c-.303.855.228 1.163 1.043 1.227m51.32 0c-.853-6.594-7.21-9.088-13.351-7.363-1.286.362-3.343.753-4.173 1.84 4.584-1.262 11.425-.75 15.226 2.328 1.106.895 1.33 2.247 2.298 3.195m1.252-.614c.88-.408 1.966-.735 2.623-1.475.82-.922.715-2.294.715-3.433-.002-3.942-4.464-7.944-7.779-9.78-1.22-.676-3.215-.15-4.53-.055-1.543.11-4.028.03-5.38.839-1.071.64-1.93 2.31-2.714 3.27-2.085 2.553-4.674 4.844-5.884 7.976 1.239-.987 2.135-2.15 3.547-2.975 1.18-.69 3.067-1.083 4.016-2.038 1.004-1.01 1.708-3.31 3.286-3.646 1.908-.406 4.156 2.337 5.19 3.5 1.13 1.27 3.095 1.527 4.339 2.791 1.41 1.434 1.533 3.417 2.572 5.027m81.989-5.318c-.136.985-.614 2.07-.282 3.059.403 1.195 3.288 2.613 4.446 1.9 1.742-1.077 1.208-3.734-.449-4.661-1.014-.57-2.587-.298-3.715-.298m-106.82 4.908c1.564-4.215 4.334-7.203 7.135-10.635.857-1.05 1.881-3.2 3.098-3.797.737-.361 1.692-.32 2.492-.447 2.218-.353 5.327-1.178 7.51-.43.94.323 1.528 1.228 2.299 1.81 2.464 1.863 5.74 4.454 6.556 7.568.317 1.21-.038 2.466-.092 3.681 2.257-1.556 2.94-6.238 2.188-8.794-.331-1.128-1.329-1.953-1.719-3.068-.557-1.593-.63-4.296 1.408-4.704-.125-5.923-1.775-12.22-2.99-17.998-.322-1.529.002-4.63-1.152-5.807-1.027-1.047-3.709-.672-4.828-.102-.512.26-1.797 1.207-2.356.651-.55-.547.59-2.042.64-2.718.15-2.091-1.904-4.84-4.123-4.977-1.003-.062-2.036 1.314-2.715 1.927-2.188 1.975-3.853 4.464-6.068 6.362-.804.69-2.734 2.57-3.82 1.326-1.46-1.672 1.06-3.568 1.24-5.047.128-1.048-.97-2.01-1.085-3.068-.085-.77.365-1.49.238-2.25-.365-2.193-1.193-4.804-2.151-6.749-.325-.66-.644-3.139.412-3.355.928-.19 2.603 1.49 3.307 2 2.396 1.737 4.34 3.22 7.093 4.398.767.328 1.812 1.194 2.693 1.052 1.913-.308 4.337-4.348 3.812-6.14-.263-.898-1.571-1.708-1.462-2.655.322-2.768 5.04-.463 6.014.2l-3.964-24.746h-23.157c1.707 8.108 2.707 16.703 3.511 24.95.172 1.764-.108 3.556.071 5.318.623 6.107 1.753 11.824 1.753 17.998 0 3.682.09 7.359.09 11.044 0 1.251.442 3.196-.835 3.886l-.542 9.204-4.883 11.044 4.381 3.068m66.76-.819l-.834-2.454-2.92 1.227v.614l3.755.613m51.113-6.544c2.394.661 2.983 1.128 3.337 3.477.887-.608 2.955-4.341 2.27-5.402-.843-1.306-3.557-2.781-4.852-1.233-.47.559-.579 2.39-.756 3.158m-124.76 1.023c-.473-1.57-.131-3.29-.522-4.909-.721-2.988-2.345-5.602-1.981-8.794 1.233.401 1.004 2.574 1.255 3.681.755 3.346 2.74 6.456 1.665 10.021h-.417m39.221 0c1.535-1.96 4.504-5.59 4.3-8.18-.075-.946-.933-3.281-2.026-3.466-.684-.115-1.58.27-2.274.336-.52.049-1.49-.248-1.871.193-1.676 1.93 1.272 4.738 1.606 6.413.298 1.509-.346 3.275.265 4.704m-91.377-5.113l-.626-1.636-6.884 2.454-.209-.204c.49-.987.885-2.444 1.699-3.196 1.874-1.73 5.364-2.303 5.394.946 1.623-.436 2.492.73 3.964.983.796.138 1.529-.338 2.273.164 2.012 1.357.403 3.056-1.248 3.638-.62.218-1.232-.07-1.86-.022-1.642.127-3.396.519-5.006.893-.958.222-2.14.925-3.13.782-.98-.142-2.903-.93-3.2-1.94-.218-.746.435-1.449 1.115-1.68 1.282-.435 2.853.175 4.172-.022 1.28-.19 2.266-1.066 3.547-1.16m69.889 4.09c2.184-.554 3.855-.494 6.05-.204v-.205c-1.804-1.33-3.683-3.343-5.49-1.022-.363.466-.64.858-.56 1.431m5.215-5.522c2.773.238 8.785 2.552 10.014 5.113l-.208.205c-2.546-.96-4.962-2.58-7.51-3.65-.958-.402-2.098-.55-2.296-1.668m51.87 4.482c-.755-.561.46-1.785.933-2.069 1.728-1.03 3.872-1.19 5.82-1.51 4.45-.732 8.828-1.293 13.353-1.1 3.711.16 7.11.955 10.848.276 2.161-.392 4.36-1.497 6.048-2.864.394-.32 1.343-1.54 1.957-1.083.782.582-.73 1.79-1.12 2.105a15.395 15.395 0 01-6.05 2.942c-4.678 1.081-9.103-.152-13.77-.353-3.615-.155-7.276.815-10.848 1.251-1.692.207-3.974.415-5.403 1.394-.409.281-1.158 1.464-1.767 1.011m-94.847.018c-.007-2.66-.992-6.193-3.13-7.977-.8 1.26-2.26 2.56-2.455 4.09-.314 2.467 3.64 3.73 5.585 3.887m17.524-44.381c1.437.463 1.628 3.6 2.028 4.908 1.653 5.408 1.938 10.957 1.936 16.566-.001 1.48.17 5.823-1.67 6.136l.608-13.09-1.65-9.407h-.21c0 4.423-1.095 9.406-2.217 13.703-.596 2.281-1.632 4.581-1.738 6.954-.158 3.546 1.69 6.275 2.388 9.612.532 2.545.09 5.685-.518 8.18-1.085-.352-.812-1.33-.601-2.249.446-1.942.708-4.203.075-6.136-.885-2.7-2.262-5.285-2.341-8.18-.077-2.83 1.058-5.487 1.745-8.181.892-3.494 1.421-7.112 2.068-10.635.49-2.673-.426-5.554.097-8.18m115.79 32.518c-.432 2.599-6.676 2.706-8.762 2.656-2.57-.062-4.95-1.669-7.51-1.607-2.341.057-4.699 1.028-6.885 1.742a136.054 136.054 0 00-11.892 4.509c-2.174.942-7.578 2.745-9.726.911-.455-.388-.176-.865.35-.953 1.133-.19 2.368.378 3.534.274 2.708-.24 5.224-1.346 7.72-2.338 5.006-1.988 10.74-5.116 16.272-5.304 3.403-.116 6.397 1.68 9.806 1.534 2.453-.106 4.677-1.374 7.093-1.424m-143.95 4.5l-.209 2.25c1.947-.295 3.678-3.177 4.966-4.559.509-.545 1.219-1.181 1.135-1.986-.195-1.876-1.993-3.37-1.72-5.318h.418l2.295 5.113h.417l2.503-1.636-.834 2.045 3.129.41-3.547-20.453c-4.803 1.078-10.04 3.995-12.94 8.011-1.251 1.73-1.57 4.048-2.605 5.897-1.562 2.785-3.722 5.393-4.393 8.59-.234 1.112.119 2.526.119 3.68 1.19-.383 1.775-1.84 2.343-2.863 1.372-2.47 3.018-4.753 4.499-7.158.658-1.069 1.105-3.209 2.546-3.272-1.617 3.333-4.381 6.27-4.381 10.02h.208l1.878-2.453c.182 1.957-1.088 4.705-.64 6.513.232.941 2.311.369 2.869-.005 1.14-.764.044-2.745 1.944-2.827m88.874 2.658c2.128-2.52 1.886-4.362 2.593-7.362.665-2.826 1.581-5.8 2.449-8.59.72-2.31 3.79-1.696 4.435-3.886.632-2.152-.09-4.732.18-6.954.63-5.243.811-10.549-.376-15.748-.292-1.277-.976-2.42-1.304-3.68-1.638-6.277-3.352-11.486-10.48-13.499-1.083 4.59-4.177 8.58-5.957 12.885-1.185 2.867-2.39 6.54-2.768 9.613-.282 2.313.033 4.629-.334 6.953-.543 3.42-2.151 6.274-1.999 9.817 4.482-.852 8.88.488 12.1 3.681 1.29 1.28 2.366 2.609 3.036 4.295.16.403.63 1.566-.125 1.712-.549.106-.76-.749-.902-1.098-.571-1.405-1.462-2.741-2.47-3.886-2.384-2.712-7.635-4.667-11.222-3.477l.513 4.704 1.365 8.59c1.63-.069 3.292-.475 4.798.41 1.097.646 1.744 1.973 2.93 2.45.928.375 2.563-.68 3.21.11.686.842.038 2.04.328 2.961m-96.385-4.09h-.21l-2.085 3.682c1.627-.468 2.099-2.198 2.295-3.682m82.824 2.455c1.454-3.495.574-5.858.06-9.408-.457-3.139-.657-6.279-1.216-9.408-.35-1.97.836-3.883.484-5.727-.674-3.505-2.02-6.992-2.996-10.43-1.932-6.813-3.755-13.658-5.747-20.452-1.074-3.663-1.395-7.694-2.043-11.453-.197-1.145-.121-3.678-.857-4.58-.441-.542-1.838-.379-2.498-.533l-.208.205c3.949 15.714 5.952 32.136 8.883 48.062 1.435 7.808 1.771 16.954 6.138 23.724m79.198-2.462c-.474-.361-.05-.887.319-1.105 1.615-.955 3.302-2.425 4.975-3.198.54-.25 1.46-.553 1.95-.037.737.781-.894 1.154-1.323 1.372-1.148.584-4.371 4.148-5.921 2.968m-53.053-.838c-1.412-.296 1.314-1.898 1.81-1.974 3.723-.57 6.766-.002 10.432-1.358 6.304-2.333 10.944-6.661 18.15-5.55 3.16.488 5.05 2.648 7.719 4.097 1.103.6 3.231.033 4.043.842 1.258 1.256-3.45.803-4.043.573-2.145-.83-3.758-2.687-5.842-3.684-1.963-.939-4.773-.954-6.884-.634-4.219.638-7.596 3.514-11.474 5.085-3.947 1.6-7.106 1.599-11.266 1.793-.872.04-1.828.98-2.646.81m-42-68.486h-1.46l3.355 20.86 8.12 47.04c.686-.002 1.852.137 2.15-.66.439-1.172-.427-3.262-.638-4.453-.64-3.616-1.262-7.234-1.971-10.84-3.399-17.276-6.233-34.658-9.556-51.948m96.407 65.41c-.794-.11-.377-1.013-.114-1.396.684-.995 1.59-1.933 2.595-2.613 2.418-1.635 5.322-1.753 8.136-2.146 1.093-.153 2.687-.475 3.756-.134.621.197 2.78 2.414 1.239 2.66-.688.11-1.304-1.094-2.074-1.213-2.405-.372-5.885.107-8.136.977-1.383.535-2.696 1.449-3.734 2.487-.418.419-.945 1.477-1.667 1.378m-198.84-59.07l-.418-5.318c-.665 1.067-.623 2.4-1.303 3.477-1.368 2.17-3.378 3.834-4.831 5.931-2.857 4.122-4.878 8.79-7.401 13.09-.887 1.51-2.336 2.572-3.235 4.09-2.76 4.661-3.894 10.016-8.064 13.886-2.648 2.457-8.971 1.564-12.3 1.1-1.653-.232-5.012-.297-6.005 1.445-.572 1.005.554 3.4.88 4.43.714 2.258 2.273 2.706 3.717 4.333 2.155 2.429 3.877 5.24 6.21 7.526.83.814 4.053 3.75 5.35 2.925 1.408-.896 1.8-3.783 2.582-5.172 1.86-3.301 3.435-6.592 4.492-10.226.951-3.265 1.49-6.97 3.038-10.02.841-1.658 2.358-3.003 3.46-4.5 1.826-2.485 3.48-5.097 5.334-7.567 1.066-1.422 2.427-2.645 3.111-4.295 1.46-3.524 2.035-7.426 3.297-11.044.435-1.247.868-3.448 2.086-4.09m193.46 57.024c-.614-.088-.353-.863-.167-1.192.655-1.165 1.83-2.08 2.725-3.064 1.45-1.596 3.16-2.956 4.669-4.502 2.09-2.144 3.843-4.883 7.31-4.437 2.034.26 4.31 1.32 5.833 2.658.265.234 2.137 2.35.812 2.35-.812 0-1.644-1.4-2.264-1.841-1.894-1.345-4.836-2.658-7.093-1.426-1.427.778-2.274 2.169-3.357 3.31-1.662 1.753-3.542 3.292-5.134 5.113-.682.78-2.08 3.211-3.333 3.031m-42.001-7.122c4.9 0 9.559-.33 14.395-.952 3.342-.43 7.105-1.262 10.43-.348 3.049.838 5.905 2.596 8.763 3.896.707.32 2.286 1.608 3.048 1.257 1.667-.77 1.75-4.328 2.929-5.632.66-.73 2.23-1.623 3.202-1.819.668-.135 1.409.135 1.95-.384 1.712-1.64 1.196-5.356 1.895-7.47.334-1.013 1.24-1.998 1.29-3.069.093-1.926-1.985-2.79-2.297-4.499-.85-4.624-1.004-10.152-3.691-14.316-2.629-4.072-7.423-6.547-11.247-9.381-4.016-2.976-7.632-5.98-12.935-4.612-4.936 1.274-8.602 7.279-11.176 11.334-2.727 4.294-4.25 8.838-5.493 13.703-.534 2.095-1.308 4.373-1.385 6.545-.048 1.364.38 2.73.302 4.09-.092 1.58-.661 3.115-.598 4.704.091 2.334.617 4.602.617 6.954m10.848 0c-1.723.327-3.459 1.044-5.216 1.15-3.381.203-6.682-1.14-8.345 2.736 4.905-.608 9.985.448 13.561-3.886m-12.1-9.408l-1.251-.205c-.833 3.958-2.852 9.279-1.878 13.294 5.891-2.7 1.999-8.434 3.13-13.089m-94.716 12.476c.466-10.634.396-21.488-.124-32.109-.145-2.956-.965-6.043-.869-8.998.084-2.564 1.767-5.263 2.314-7.772.752-3.442.557-6.918.557-10.43l-7.51-.205.453 7.159 1.208 8.998-.147 14.112 1.802 11.453-.726 4.295 1.908 8.386 1.134 5.113m-35.049-10.021c-2 .922-4.773 3.915-4.798 6.135 2.375 0 6.373.287 5.81-3.05-.212-1.26-1.326-1.647-1.011-3.085m132.68 2.863l9.388-2.454c-.09 1.981-5.404 2.879-7.094 3.177-.932.164-1.957.272-2.294-.723m24.826-3.886l5.424.935 5.007-.321c-.342 1.037-1.492 1.139-2.504 1.209-2.031.14-6.817.171-7.927-1.823m-35.466 1.227c.628-.75 2.003-1.446 2.378-2.293.764-1.724-.01-5.467-.231-7.32-.54-4.484-.278-9.022-.891-13.497-.248-1.803.455-4.866-.338-6.46-.526-1.054-3.764-1.966-4.882-2.13 1.114 2.662 1.22 5.223 1.855 7.976.937 4.077 2.418 7.807 2.524 12.067.057 2.31.01 4.662-.267 6.954-.17 1.428-.732 3.34-.148 4.704m21.697-4.09c-1.11.236-2.03-.216-3.13-.178-1.808.063-4.347 1.214-5.632 2.427l2.503.614c.513-2.906 3.643-3.503 4.798-.614l3.13-1.431c-.455 2.832-6.303 3.378-8.554 2.804-.713-.181-2.81-.497-2.912-1.397-.098-.852 1.258-1.435 1.87-1.75 1.508-.78 7.065-3.023 7.927-.475m-120.38 2.045c-4.148-6.755-6.467-14.996-6.467-22.906-.875.445-2.736 1.658-2.91 2.693-.188 1.13 1.543 3.66 1.896 4.874 1.432 4.932 4.07 11.018 2.683 16.157l4.798-.818m-5.424.614l.208-2.455-2.086.614c.336.965.893 1.511 1.878 1.84m13.56-5.317c-2.955.06-6.462.457-9.178 1.636.337.875.998 2.376 1.916 2.792 2.854 1.293 6.873-1.843 7.263-4.428m126.84 3.477v-.41l.209-.204 1.877.41c.307-2.7 4.682-2.91 4.173-.205l2.712-.818v-.205l-4.59-1.337-4.172.52v-.819c3.507-.667 7.41-.094 10.64 1.432v.409c-3.271 1.749-7.317 2.552-10.848 1.227m-60.501-.205c1.508-5.212.97-10.228.452-15.543-.59-6.062-1.051-12.143-1.669-18.202-.419-4.11-.672-9.076-4.316-11.943-1.254-.986-4.173-.168-5.733-.532.062 2.94.875 5.902 1.37 8.794 1.417 8.28 3.703 16.265 6.052 24.338.87 2.993 1.655 6.007 2.53 8.999.389 1.324.579 2.91 1.313 4.09m48.818 0c-1.035-3.399-1.141-7.515-1.496-11.044-.125-1.245-.81-2.666-.359-3.886 1.033-2.792 4.92-4.308 7.697-3.2 2.027.81 3.822 2.962 4.798 4.836-2.187.305-3.47-3.828-6.05-4.069-2.107-.196-5.09.668-5.543 3.047-.526 2.772.79 7.002 1.189 9.817.196 1.387.895 3.414-.236 4.499m-16.69-.205c0-1.093.538-4.827-.542-5.494-1.57-.968-3.474 4.207-2.312 5.167.686.568 2.017.327 2.854.327m-111.82-1.227l-.209-1.636c-1.734.302-2.872.855-2.295 2.66l2.504-1.024m13.352-2.658v-2.045c-3.65 0-6.738.927-10.223 1.84l.891 1.68 3.072-.68 6.259-.795m-16.273 1.431c1.486-.997 2.543-1.09 2.295-3.068-1.411.38-3.846 1.446-2.295 3.068m169.4-3.272l-5.007-.205.626 2.25c1.404-.028 4.708-.13 4.38-2.045m-167.32-.614l-.417-1.227c-1.556.366-3.12 1.102-2.712 2.864l3.13-1.636m13.978-.41c-.099-1.745-1.479-1.447-2.92-1.43-2.793.032-5.555.863-8.137 1.84l.626 1.636c3.5-.937 6.75-2.046 10.43-2.046m-50.07.205v-.205l-2.503.818 2.504-.613m35.466-1.84l-.418-1.228c-1.5.402-2.986.903-2.712 2.659l3.13-1.432m165.65 1.346c1.637.2 3.492-2.727 2.935-4.183-.526-1.368-2.693-1.807-3.978-1.986-2.414-.338-4.999 1.438-3.51 3.947.944 1.59 2.842 2.013 4.553 2.222m-151.46-1.96c-.174-3.947-5.393-1.867-7.928-1.091-.808.247-2.638.422-3.104 1.196-.29.482.068 1.242.183 1.736l10.848-1.84m-50.904 1.636c1.421-.392 3.075-.553 4.381-1.256 2.621-1.41 5.888-6.496 5.334-9.584-.423-2.357-3.178-4.431-4.314-6.544-2.365-4.403-3.986-9.61-5.61-14.316h-.208l.618 8.59.043 9.408 1.205 8.998-1.449 4.704m101.39-1.499c1.283.225 3.374-.076 3.958-1.426.617-1.427-.606-5.179-2.289-5.41-1.333-.182-1.863 1.157-2.572 1.995-1.718 2.033-2.805 4.192.903 4.841m-68.22-.137l2.92-1.431-.417-1.228-2.92 1.228.417 1.431m17.316-3.068l-.209-1.022c-2.9-.36-5.593.252-8.345 1.159-1.18.39-2.756.628-2.503 2.113 3.772-.856 7.119-2.25 11.057-2.25m-17.733 1.023l2.712-1.227-.209-1.227c-1.27.242-3.681.753-2.503 2.454m17.107-2.863c-.185-1.581-1.58-1.518-2.92-1.311-2.75.424-5.804 1.433-8.345 2.538l.208 1.022c3.806-.663 7.022-2.749 11.057-2.25m-17.316.614l2.503-1.022v-.205c-.997-.29-3.106-.336-2.503 1.227m16.9-2.863l-.21-.818c-4.202 0-7.157.858-11.056 2.25l.208 1.227 7.51-2.3 3.547-.36m130.39 2.455l3.536-4.5.637-5.112h.417c1.469 2.745-.058 5.938-2.086 7.976-.745.75-1.354 1.799-2.503 1.636m-147.08-1.636l1.67-.205c-.341-1.003-1.835-.918-1.67.205m16.273-2.454l-.209-1.227c-2.762 0-5.696.194-8.345 1.028-1.239.39-2.697.983-2.295 2.449 3.766-1.321 6.805-2.25 10.848-2.25m-15.508.682l-.07-.137.07.137m4.451-.478c3.136-1.617 6.889-2.249 10.431-2.25-1.155-3.32-6.036-1.345-8.345-.361-1.102.469-2.655 1.23-2.086 2.611m122.67-1.022c1.619-5.016 5.232-10.194 11.266-8.94 3.21.667 5.318 3.1 7.51 5.259.94.924 2.464 1.856 1.878 3.272-6.157-1.906-12.678.46-18.985-.818-.336.837-.707 1.363-1.67 1.227m-122.88-1.023c2.412-1.594 5.203-2.657 8.137-2.659-1.965-2.092-9.738-1.092-8.136 2.66m84.075-.205c1.813-2.144 2.981-5.175 3.953-7.772.593-1.587 1.012-3.525 2.305-4.704-1.439-1.14-4.235-2.32-6.05-2.659l-.002 10.635-.206 4.5m56.12-1.636v-.41c-1.482-.827-2.762-2.056-4.381-2.64-3.057-1.1-9.082.176-10.014 3.663l7.093-.815 7.302.202m14.812-3.273h.208c2.535-1.544 6.862-1.924 8.846-4.215.784-.907.334-3.245.334-4.374 0-4.242-.705-8.269-1.043-12.476H-95.73c-.002 3.758-.835 7.468-.835 11.249 0 1.004-.43 3.17.16 4.01.679.959 2.556 1.121 3.595 1.501 2.643.968 5.124 2.397 7.72 3.488 1.685.709 3.344 1.518 5.006 2.283.553.255 1.406.897 2.047.698 1.185-.367 1.973-2.847 2.618-3.8 2.112-3.121 4.517-6.698 7.436-9.141 2.747-2.3 7.602-3.448 11.057-2.08 1.806.714 3.377 2.204 5.007 3.235 4.445 2.811 8.774 5.953 12.517 9.623m-119.75-3.682c.954-2.182 2.144-5.154 3.963-6.749l-.417-3.477h-.208c-.541 1.12-.893 2.412-1.547 3.47-.168.27-.632.889-.998.49-.547-.592.757-2.732 1.025-3.346.766-1.746 2.438-6.088.18-7.562-.698-.455-2.028-.21-2.833-.21l.623 11.25.211 6.135m153.97-17.385h-18.985c-.847 4.28.132 8.698 1.67 12.68 4.258-.617 8.703-2.626 12.726-4.1 1.247-.459 3.61-.99 4.374-2.144.891-1.346.215-4.846.215-6.437m-98.053 0c-4.773 0-10.588.88-15.23-.204 1.081 4.512 5.852 8.305 9.806 10.33.815.418 3.634 2.104 4.437 1.4.688-.602.71-2.107.812-2.936.346-2.832.175-5.738.175-8.59m-124.34-15.543v-4.09l-6.05-.205v-23.315l-5.424.205c.473 1.947.208 4.141.208 6.135v11.044c0 1.248.607 4.68-.334 5.604-.944.925-4.436.327-5.716.327v4.5h11.474l5.842-.205m7.719.205v-7.363c0-.83-.278-2.28.214-3.002.635-.935 5.848-.876 6.336.186.375.816.126 2.141.126 3.02v7.159h5.215v-27.815h-5.215v8.18c0 1.037.315 2.676-.126 3.635-.488 1.061-5.7 1.12-6.336.186-.542-.796-.214-2.491-.214-3.412v-8.59h-5.216v27.816h5.216m30.876 0v-4.5h-9.597v-6.749h9.18v-4.5h-9.18v-7.77h10.014v-4.296h-10.223l-5.216.205c.87 3.585.209 7.976.209 11.658 0 4.929.955 10.956-.209 15.748l5.216.204h9.805m17.942-4.5v-6.748h6.676l2.29-.328.214-4.172h-9.18v-12.067h-5.424v27.815h10.848c.982 0 3.246.411 4.047-.21.652-.506.63-3.79-.15-4.167-.746-.36-2.04-.122-2.853-.122h-6.468m22.95 4.5l7.092-27.816c-1.152 0-4.635-.568-5.426.327-1.21 1.374-.059 5.379-2.502 5.592-1.33.116-5.43.606-6.195-.632-.787-1.275-.29-4.16-1.469-5.076-.976-.76-4.047-.21-5.27-.21.936 6.818 3.574 13.53 5.095 20.247.403 1.779.9 3.55 1.35 5.317.15.589.279 1.642.8 2.04 1.174.893 5.05.21 6.524.21m14.812 0v-27.815h-5.216v27.815h5.216m20.028 0v-4.5h-5.841v-23.315h-5.425v23.315h-5.841v4.5h17.107m7.928 0v-7.363c0-.83-.278-2.28.215-3.002.663-.976 5.643-.829 6.246.17.473.783.215 2.16.215 3.037v7.158h5.215v-27.815h-5.215v7.976c0 1.082.292 2.655-.126 3.67-.49 1.187-5.626 1.396-6.335.355-.543-.796-.215-2.49-.215-3.411v-8.59h-5.216v27.815h5.216m30.876 0v-4.5h-9.597v-6.749h6.05c.762 0 1.946.215 2.645-.123.78-.376.801-3.66.15-4.166-.546-.425-1.727-.21-2.378-.21h-6.467v-12.067c-1.072 0-4.504-.546-5.21.327-.867 1.074-.214 4.663-.214 6.012v15.543c0 1.273-.607 4.588.215 5.604.584.724 2.896.328 3.749.328h11.057m7.719 0v-19.02c0-2.149.371-5.49 3.338-5.449 2.658.037 3.313 3.213 3.338 5.244.077 6.406 0 12.817 0 19.225h5.215v-15.952c0-2.935.34-6.109-1.097-8.794-2.583-4.825-12.042-5.218-14.892-.41-1.398 2.357-1.118 5.158-1.118 7.771v11.044c0 1.994.265 4.189-.209 6.136l5.425.205m20.862 0v-17.18c0-1.313-.651-5.046.333-6.013.572-.559 1.857-.327 2.587-.327h6.885v-4.295h-15.021v27.815h5.216m-105.77-4.907c-.595-3.009-1.297-5.997-1.92-9-.16-.772-.876-2.654-.361-3.353.63-.855 4.288-.387 5.201-.123l-2.503 12.476z" clip-path="url(#a)" fill="#3a090b"/></svg>