<svg xmlns="http://www.w3.org/2000/svg" width="793.701" height="1122.52" viewBox="300 130 110 297"><defs><clipPath clipPathUnits="userSpaceOnUse" id="a"><ellipse cx="-228.244" cy="438.255" rx="50.71" ry="46.185" transform="scale(1 -1)" fill="red" fill-rule="evenodd" stroke-width=".869"/></clipPath></defs><path d="M-332.698-296.06v-251.558H49.084v251.558h-381.782m109.11-11.453v-1.636h-1.668v1.636h1.669m160.014 0v-1.636h-1.669v1.636h1.67m-190.266-.205v-1.431h-2.712v-6.954l-.214-2.535-1.663-.328v9.817h-2.713v1.432h7.302m2.712 0v-3.477c1.19.94 3.509 1.609 4.082-.41.615-2.161.09-5.12.09-7.362h-1.668V-314.058c-.002 1.16-1.054 3.707-2.258 1.614-.686-1.192.672-6.344-1.088-6.48-1.379-.106-1.035 1.763-1.035 2.617v8.59h1.877m19.194 0v-4.704c1.773 1.905 2.486 4.701 5.424 4.704l-2.835-4.646 3.252-6.603c-2.753.002-3.633 2.656-4.59 4.908h-.417l-.835-4.908h-1.669v11.248h1.67m56.954 0v-1.431l-2.378-.328-.335-2.535v-6.954h-1.877v9.817h-2.712v1.431h7.301m2.713 0v-3.476c1.27 1.02 3.565 1.648 4.244-.413.694-2.105.137-5.152.137-7.36h-1.878c0 1.836.077 3.69-.004 5.523-.028.647-.235 1.553-1.042 1.652-.785.096-1.292-.818-1.41-1.448-.335-1.803-.047-3.893-.047-5.726h-1.669v11.248h1.67m19.401-6.544c0-2.016.802-4.695-1.877-4.704v11.248c1.598 0 4.277.503 5.61-.514 1.668-1.271 1.598-4.45-.206-5.575-1.022-.637-2.372-.455-3.527-.455m54.242 6.544v-1.431l-2.378-.328-.334-2.536v-6.953h-1.669v6.953l-.334 2.536-2.587.328v1.431h7.302m2.712 0v-3.476c5.343 3.884 4.381-4.965 4.381-7.772h-1.669c0 1.807.19 3.73-.06 5.522-.086.617-.259 1.518-.996 1.687-.861.198-1.479-.786-1.608-1.483-.336-1.803-.048-3.893-.048-5.726h-1.67v11.248h1.67m19.402-6.544c0-2.016.801-4.695-1.878-4.704v11.248c1.638 0 4.233.487 5.612-.542 1.598-1.196 1.502-4.48-.206-5.546-1.025-.638-2.372-.456-3.528-.456m0 5.317c0-.928-.398-3.01.215-3.762 1.333-1.639 4.659 2.407 1.658 3.58-.584.228-1.257.18-1.873.182m-76.565-.409v-3.272c3.986-1.155 4.125 4.468 0 3.272m-86.161-5.522h-4.381c0-.406-.02-.823.022-1.228.371-3.575 2.797-.017 4.359.001-.11-2.368-2.772-4.192-4.963-2.515-1.117.855-1.309 2.656-1.292 3.947.033 2.588 3.149 6.8 5.69 3.454.772-1.015.565-2.47.565-3.659m23.365-4.09c-2.535.03-1.659 3.263-1.669 5.113-.004.771.007 2.011-1.051 2.114-2.156.21-1.444-4.38-1.452-5.591-.006-.797-.218-2.055-1.394-1.512-.77.356-.484 1.864-.484 2.535 0 1.924-.967 5.9 1.67 5.93v-.817c5.595 3.268 4.38-4.45 4.38-7.772m6.468 7.976c.14.641 1.069.937 1.39.182.278-.651.07-1.733.07-2.432 0-2.04.74-5.83-.521-7.561-.824-1.13-2.8-1.33-4.068-.88-.57.202-1.786 1.1-1.304 1.829.65.982 1.784-.5 2.347-.682 1.719-.558 1.878 1.506 1.878 2.59-5.195-4.17-6.492 7.753-1.878 7.698.758-.009 1.432-.416 2.086-.744m49.235-3.886c-1.078 0-3.184.396-4.106-.21-.95-.626-.201-2.489.772-2.704 1.45-.321 1.405 2.035 3.334 1.482-.582-2.18-3.512-4.348-5.497-2.001-1.142 1.35-.949 3.66-.723 5.273.343 2.457 3.372 3.951 5.338 2 .986-.979.882-2.57.882-3.84m15.647 4.636c4.801.77 5.255-8.275 1.252-8.887-4.942-.757-5.528 8.2-1.252 8.887m6.885-8.113v-3.477c-.565.002-1.45-.128-1.752.474-.925 1.842-.126 5.854-.126 7.911 0 .747-.219 1.908.126 2.594.401.8 1.392.404 1.752-.14 6.505 4.484 5.995-12.054 0-7.362m12.1 3.477c-1.079 0-3.185.396-4.106-.21-.95-.626-.202-2.489.771-2.704 1.45-.321 1.406 2.035 3.335 1.482-.573-2.143-3.233-4.224-5.342-2.17-.932.908-1.176 2.778-1.087 4.01.189 2.606 3.08 6.515 5.696 3.25.782-.975.732-2.484.733-3.658m41.725 0h-4.59c.004-.41-.004-.823.063-1.228.602-3.59 2.772.3 4.527-.204-.614-2.296-3.578-4.311-5.527-1.83-.976 1.245-.882 3.414-.692 4.898.302 2.377 3.344 4.206 5.326 2.203.974-.984.893-2.573.893-3.84m17.524 2.864c-3.503-.04-2.503-4.541-2.503-6.954h-1.67c0 2.482-.394 5.315.032 7.76.24 1.383 1.554.653 1.638-.397 1.225 1.43 2.495 1.794 2.503-.41m6.259-6.953c-.505.002-1.306-.115-1.663.328-.375.465-.215 1.37-.215 1.922 0 1.555-.578 4.466.125 5.866.436.867 1.334.281 1.544-.344 3.945 2.304 4.59-.796 4.59-4.09 0-.802.382-2.921-.334-3.472-.502-.386-1.3-.152-1.477.434-.55 1.819.553 4.116-.22 5.879-.428.97-1.614.85-2.104 0-.528-.916-.246-2.439-.246-3.455v-3.068m11.892 5.727h-1.878c-.257 2.245-2.199 1.72-2.554-.205-.198-1.077-.252-2.472.297-3.473.982-1.8 2.188-.231 2.465 1.02h1.67c-.455-2.298-3.044-4.905-5.308-2.41-1.101 1.215-1.083 3.344-.916 4.863.439 3.994 5.664 4.256 6.224.205m7.301-1.636h-4.59c.005-.41-.003-.822.063-1.228.603-3.59 2.773.3 4.527-.204-.58-2.17-3.325-4.244-5.342-2.018-1.11 1.226-1.05 3.35-.88 4.881.268 2.413 3.216 4.545 5.33 2.408.974-.984.893-2.573.893-3.84m6.884 2.046h-1.67c-.496 1.416-2.836 1.573-2.225.021.851-2.169 4.823-1.167 3.805-4.722-.895-3.123-5.687-1.692-5.752 1.224h1.46c.376-1.816 3.207-1.913 2.627-.208-.705 2.076-4.52 1.22-3.978 4.298.586 3.325 5.197 2.053 5.733-.613m6.884.204c-1.37-.393-2.958 1.919-3.786.584-.566-.911.58-1.516 1.283-1.797 1.715-.686 2.987-1.66 2.414-3.694-.88-3.107-5.725-1.714-5.752 1.226h1.46c.445-1.666 3.177-2.03 2.604-.208-.664 2.1-4.563 1.157-3.989 4.299.578 3.164 5.178 2.235 5.766-.41m-196.523-6.34h-1.67v8.59l1.455-.327.215-2.331v-5.931m160.014 0h-1.67v6.544c0 .67-.187 1.985.835 1.985 1.023 0 .835-1.316.835-1.985v-6.544m-179.185 7.354c-1.794-.933-.298-2.925 1.371-2.118 1.198.58-.076 2.792-1.371 2.118m78.002-2.037h2.713c-.031 2.69-2.574 2.613-2.713 0m34.632 0h2.712c-.025 2.697-2.573 2.617-2.712 0m44.437-.204c-.002.4.029.828-.048 1.225-.51 2.599-3.618.008-2.328-1.015.538-.427 1.727-.21 2.376-.21m41.328 2.293c-1.988-.696-.686-2.807 1.181-2.228 1.244.385.127 2.685-1.18 2.228m-167.107-.2c-1.785-.67-1.461-6.464.79-5.619 1.777.668 1.496 6.478-.79 5.62m66.99.003c-1.591-.674-1.43-6.866.96-5.996 1.852.675 1.505 7.04-.96 5.996m7.698-.062c-1.506-.76-1.385-6.727.976-5.794 1.712.676 1.25 6.919-.976 5.794m-38.618-33.122c1.939.085 3.497 3.839 4.378 5.317.478.8.894 2.052 2.078 1.602 1.139-.432.74-1.715.542-2.624-.542-2.496-2.287-4.458-3.282-6.75-1.713-3.944-.352-7.919-1.455-11.861-.908-3.25-3.803-5.516-4.46-9-.241-1.283-.668-3.001-.578-4.294.113-1.621.938-3.054.155-4.704-1.747-3.68-7.693-3.335-8.227-7.363-1.666.001-3.249.408-4.527 1.54-.722.64-1.059 1.49-1.94 1.937.828-4.497 7.558-5.219 11.266-4.346 1.515.356 2.846 1.224 4.38 1.483-.59-3.077-2.764-7.376-2.294-10.43h.417l2.462 8.794.25 3.067h.209c0-4.477.748-15.964-6.885-13.907l.835 1.227c-1.854.433-3.068-.674-4.795-.642-.581.011-2.335 1.183-2.791 1.583-1.397 1.224-1.998 4.14-2.679 5.808-2.068 5.07-6.188 13.791.876 17.384-.12-1.35-1.858-4.291-.417-5.113.433 2.05.938 5.25 2.712 6.545l-.625-7.772c1.095.895.964 2.376 1.061 3.682.184 2.452.543 4.824 1.337 7.158 1.451 4.268 2.761 8.373 3.199 12.884.327 3.374-.456 6.897.354 10.226.596 2.454 2.314 4.855 3.656 6.954 1.537 2.405 2.864 5.165 4.85 7.264 1.981 2.095 3.541-.315 2.675-2.355-1.73-4.079-5.46-7.07-6.942-11.248-.36-1.016 2.345-3.215 3.301-2.802 2 .865-2.007 2.963-1.84 3.832.45 2.34 3.135 4.605 4.41 6.536.582.883.969 2.262 1.804 2.941 1.938 1.578 2.377-2.1 2.073-3.145-1.011-3.473-3.743-6.34-5.544-9.408m41.1 11.657c-2.454-.25-4.257 3.418-6.885 2.635-2.469-.736-4.372-2.304-6.468-3.68-7.113-4.67-12.643-12.177-15.686-20.02-1.208-3.114-2.86-5.962-2.663-9.408.191-3.349 2.783-7.245 4.184-10.226.94-2 1.657-5.966 3.257-7.472.625-.589 1.208.528 1.528.925 1.39 1.718 3.446 2.865 5.416 3.838 7.048 3.478 12.44 2.397 19.403-.563 2.17-.922 3.765-2.264 5.424-3.886.487-.477 1.271-1.56 2.078-1.243 1.333.523 2.247 2.965 2.931 4.106 1.613 2.684 3.32 5.144 4.663 7.977.672 1.417.79 3.195 1.594 4.5.565-1.497-.282-2.646-.714-4.091-1.122-3.757-2.923-7.74-5.065-11.044-.605-.936-1.744-3.53-2.978-3.699-.817-.111-1.787 1.168-2.3 1.656-1.558 1.478-3.268 3.297-5.216 4.267-6.554 3.264-16.015 3.805-21.905-1.064-1.81-1.497-3.04-3.656-4.173-5.66-1.332.376-1.814 1.774-2.49 2.863-1.676 2.698-3.213 5.562-4.654 8.386-2.135 4.186-3.542 8.977-2.554 13.703.78 3.737 2.74 7.068 4.457 10.43.57 1.116.774 2.396 1.402 3.477 2.104 3.626 4.723 6.54 7.559 9.612 2.729 2.957 5.825 4.875 9.423 6.669 1.916.954 3.157 1.966 5.424 1.69 2.916-.357 6.083-2.735 8.172-4.599 5.302-4.728 8.62-10.214 11.773-16.44 1.085-2.142 2.115-4.45 2.795-6.75.16-.54.697-1.777.207-2.271-.547-.55-1 .738-1.11 1.045-.655 1.808-1.279 3.654-2.266 5.317-2.597 4.38-5.044 8.99-8.396 12.885-1.712 1.988-5.212 3.768-6.168 6.135m9.597-48.266h-.417c-5.587 6.275-15.376 10.198-23.574 7.063-2.237-.854-4.507-2.004-6.468-3.364-1.094-.758-1.926-1.917-3.13-2.472-.708 1.802-1.539 3.536-2.291 5.318-.268.634-.77 1.501-.286 2.143 1.869 2.48 6.274 3.745 9.045 4.928 1.38.589 3.24 1.265 3.826 2.746.637 1.613.594 3.615.823 5.317.738 5.503.567 11.02.567 16.566 0 2.516-.617 6.718.63 8.99 2.157 3.93 7.738 2.913 10.36.296.67-.67.355-1.507.294-2.332-.133-1.783-.228-3.527-.228-5.318 0-5.716-.417-11.44-.417-17.18 0-1.899-.818-4.743-.083-6.532.535-1.3 3.08-1.164 4.256-1.476 3.278-.87 6.629-2.333 9.388-4.263.749-.523 2.537-1.452 2.587-2.472.04-.79-.84-1.61-1.244-2.231-1.23-1.883-2.568-3.755-3.638-5.727m-53.408 49.903l-1.46-2.454h-.208l1.669 2.454m44.02-3.273c5.132-4.62 8.872-9.354 12.279-15.338 1.533-2.694 3.315-5.474 3.785-8.59-1.799 0-4.434.152-6.046-.704-1.05-.557-1.734-1.973-.583-2.826.86-.636 2.114-.276 3.082-.186 1.683.157 3.33-.166 5.007-.17.889-3.77-1.644-6.276-2.295-9.817-1.888.717-3.461 2.401-5.216 3.425-3.202 1.868-7.32 3.442-11.057 3.733 0 7.215.234 14.47.414 21.68.062 2.456-.683 6.645.63 8.794m-13.144-.205c-.16-7.643.846-16.222-.696-23.724-.393-1.916.101-4.866-1.127-6.502-1.047-1.394-3.527-2.017-5.061-2.752-2.053-.983-3.976-1.826-5.842-3.134-.497-.35-1.35-1.118-2.004-.737-.912.532-.973 2.213-1.244 3.103-.9 2.96-2.365 5.208-1.623 8.386 1.656 7.08 6.111 14.753 11.06 20.1 1.89 2.043 3.885 4.18 6.538 5.26m55.076-32.314c-1.853.186-4.415 2.137-6.257 1.68-1.627-.405-2.756-3.18-3.795-4.339-1.537-1.712-3.649-2.827-5.013-4.704-1.33-1.828-1.298-4.137-2.176-6.135-.553-1.26-1.786-2.045-2.37-3.273l2.086 1.84h.209c.002-4.346-.49-7.883-1.878-12.066l-1.878 1.227.835 6.136c-1.322-.758-1.064-4.275-1.252-5.727l-2.295.614c.142 6.487 3.338 12.923 3.076 19.43-.136 3.297-1.674 6.782-2.867 9.816l.835.205c.657-1.979.678-5.928 2.574-7.208 1.279-.863 3.553.416 4.573-1.224.645-1.035-1.128-4.043-2.535-3.405-1.214.55-1.168 2.668-1.9 3.656-.73-4.571 4.496-5.821 5.007-.818 1.91.178 3.822 3.617 5.215 4.89.39.356 1.626 1.07 1.507 1.698-.113.582-1.254.817-1.715.992-1.45.55-3.324 1.476-4.146-.423-.657-1.52-.753-3.323-1.279-4.907-1.746.354-2.658.561-4.38 0 .704 1.365 2.666 5.89 1.539 7.3-.81 1.016-2.702.676-3.835.676-3.262-.001-6.53.204-9.805.204.71 1.264 2.476.955 3.755 1.04 1.932.13 3.902.354 5.842.129 1.408-.163 3.277-.714 4.57.076 1.182.724.873 2.086 1.08 3.255.519 2.918 1.011 5.628 1.13 8.59.027.654 1.083 3.512 1.805 3.569 2.026.16 1.7-2.435 1.47-3.57-.594-2.938-1.498-5.778-1.502-8.794-.002-.978-.354-2.183.211-3.056.707-1.091 2.379-1.212 3.545-1.53 2.994-.816 10.001-2.146 10.014-5.844m-63.422-21.884l-2.086 1.84c3.54 10.85 16.68 12.747 26.078 7.747 1.93-1.027 3.663-2.96 5.215-4.474 1.508-1.47 4.1-1.799 4.83-3.886 1-2.855-.448-6.91-2.562-8.96-.735-.712-1.862-.888-2.483-1.702-1.822-2.389-1.9-5.85-3.83-8.146-2.715-3.23-8.76-3.286-12.644-3.28-1.492.002-3.43.11-4.763.838-3.06 1.672-3.627 5.683-5.294 8.365-1.062 1.71-2.073.813-3.273 1.875-1.186 1.05-1.225 2.676-1.712 4.056-.496 1.405-1.413 2.549-1.436 4.09-.01.715.003 2.438.889 2.703 1.047.313 2.024-1.025 3.07-1.066m-21.07 11.453c.634-1.661.243-3.114-.417-4.704h-.209l.626 4.704m-1.043-.818l-.418-4.704c-2.511-.838-4.408-1.432-7.093-1.432.01 2.65 2.841 2.816 4.799 4.063.968.617 1.696 1.57 2.712 2.073m-18.776-.41c.437-5.428 4.127-10.177 5.632-15.338-1.83.038-2.817 1.035-4.172 2.124-1.411 1.134-3.751 3.037-4.259 4.84-.587 2.086 1.459 6.789 2.799 8.375m82.823-1.636l-.208-.205c.2-.852.344-1.736 1.251-2.045l-.625 2.25h-.418m96.385-24.134h-.209c-.603.49-1.158.045-1.878.291-1.252.427-2.22 1.478-3.13 2.368a85.654 85.654 0 00-2.98 3.065c-1.077 1.166-2.101 1.853-3.695 1.366-.412-.125-2.687-.637-2.103-1.429.524-.71 2.998.698 3.98.205 2.602-1.303 4.169-4.57 6.676-6.162 1.03-.655 2.345-1.553 3.338-.522h.21c.586-2.195 1.931-4.285 2.25-6.544.307-2.16-.526-4.09.019-6.34.732-3.023 2.637-5.536 3.384-8.59.8-3.277-.468-5.824-.626-8.999-.088-1.789.935-3.5.713-5.317-.21-1.736-2.215-3.348-3.281-4.704-.964-1.227-1.709-4.33-2.934-5.077-.755-.459-2.015-.24-2.864-.24-1.379 0-3.278-.146-4.59.215-1.333.367-2.41 1.348-3.755 1.758-1.124.343-2.727.157-3.728.721-1.965 1.11-1.446 5.645-2.09 7.531-1.025 2.997-2.733 1.847-4.822 3.174-1.81 1.151-2.128 2.775-2.985 4.598-.365.775-1.173 2.737-2.143 2.913-.607.11-1.658-1.013-2.174-1.303-2.065-1.164-4.28-2.152-6.467-3.072-4.788-2.017-9.945-1.99-15.02-.682-2.823.727-4.837 3.402-7.72 4.202-3.16.877-6.697-.567-9.805.698-2.72 1.108-4.527 4.52-7.72 3.38l1.461-2.046-.209 1.227c1.423-.155 5.005-2.375 5.59-3.717.308-.709-.165-1.82-.042-2.623.459-2.97.83-6.347 1.754-9.203-5.105-.809-3.621 4.261-5.56 6.713-.97 1.226-3.033 1.048-3.824 2.33-.39.635-.3 1.515-.588 2.206-1.043 2.492-2.887 7.077-2.14 9.816.496 1.818 2.286 2.85 2.774 4.704.482 1.832-.323 4.761 1.129 6.238.807.823 2.528 1.044 3.62 1.33 2.194-2.817 3.721-1.282 6.675-1.004 1.559.146 2.708-1.64 4.59-1.413 2.193.266 3.384 2.227 5.633 2.523 2.247.294 4.01-2.55 6.259-2.743 1.552-.133 3.177.976 4.59.8 1.63-.201 2.5-1.486 4.38-1.164 1.987.341 4.348 2.06 6.45 1.48 1.59-.44 2.47-2.739 3.982-3.554 1.917-1.035 3.943-.041 5.633-.738 1.556-.642 2.64-2.353 4.172-3.161 1.506-.794 3.8-.864 5.11-1.863.504-.385.6-1.11 1.028-1.572 1.014-1.098 2.28-1.09 3.668-1.09-.361-5.006 4.35-5.412 7.182-1.986.378.458.574.995.353 1.57-.4 1.043-1.175 1.416-1.028 2.666.164 1.413 1.537 3.107 1.23 4.5-.667 3.03-4.337 2.138-5.653 3.95-.645.887-.078 2.031-.29 3.003-.29 1.338-1.636 2.737-2.664 3.6-2.3 1.932-4.989-.758-7.409.41-.732.352-.457 1.683-.788 2.33-.535 1.048-1.609 1.852-2.616 2.435-3.067 1.776-6.334-.08-9.578.353-1.079.144-2.704 2.847-3.774 3.53-2.04 1.306-4.836 1.871-6.885.323-1.018-.77-1.55-1.994-2.712-2.55a6.155 6.155 0 01-1.26 1.84c-2.535 2.598-6.023.984-8.537-.942-.624-.48-1.014-1.347-1.715-1.703-1.385-.7-2.919 1.126-4.344.936-2.808-.374-4.996-3.252-7.719-3.608.77 1.378 2.604 1.984 3.668 3.157.666.734.674 1.752 1.202 2.561.597.912 1.65 1.274 2.326 2.091.83 1.002.989 1.953 2.193 2.7 2.11 1.308 4.994 1.256 6.882 2.83 1.196.999 2.039 2.284 3.34 3.192 1.202.838 2.625 1.149 3.756 2.118 1.347 1.157 2.526 2.923 4.38 3.32 1.801.385 4.004.838 5.842.448 3.177-.673 6.265-2.74 9.388-3.732 1.456-.463 2.965.07 4.381-.424 2.345-.82 4.031-2.543 6.468-3.26 1.93-.569 4.047-.473 5.841-1.501 5.16-2.955 7.788-9.563 8.554-15.136M-137.843-383.8c1.03-.21 5.403-.328 5.842.41-1.68.765-4.755 1.627-5.842-.41m-14.186-2.25l5.215 1.976 3.13-.544c.194 1.256-1.27 1.404-2.295 1.429-1.856.044-5.683-.72-6.05-2.86m100.974 1.14c-2.982-.371-5.98-.962-8.971-.512-.467.07-1.481-.025-1.024-.754.588-.943 2.588-.697 3.527-.692 3.415.016 6.808 1.304 10.223.458 2.762-.685 4.245-2.058 5.806-4.344.413-.603 1.406-2.82 2.316-2.675.782.125.23 1.094.02 1.447a36.598 36.598 0 01-2.666 3.886c-1.977 2.534-6.075 3.578-9.231 3.186m-87.622-1.754c1.881-.4 5.014-.542 6.884 0-1.35 2.111-5.717 2.396-6.884 0m-12.518-.614c1.83-.453 5.922-.409 6.885 1.432-2.15.674-5.725.95-6.885-1.432m8.136 2.046c-.675-1.374-.418-2.854-.768-4.295-.225-.925-.841-1.607-1.23-2.454-.239-.518-.49-1.418-.082-1.922.395-.488 1.322-.276 1.872-.313 1.349-.088 4.895-.555 5.424 1.007l-6.676-.204c.558 2.747 2.809 5.088 1.878 8.18h-.417m85.953-2.95c-3.167-.422-5.75-1.228-8.971-1.149-.446.011-1.805-.161-1.114-.894.711-.754 3.28-.585 4.243-.493 3.829.363 6.891 1.884 10.849 1.055 2.846-.596 5.324-2.054 7.266-4.158.553-.6 1.963-2.972 2.898-2.827.797.123.106 1.286-.109 1.6-.913 1.33-2.14 2.58-3.38 3.62-3.062 2.57-7.695 3.779-11.682 3.247m-67.386-2.368l-.625-2.659c1.648.07 2.12 1.921.625 2.66m-31.293-5.318h.417c.096.408-.45 4.118-.516 4.14-.614.212-1-.626-1.072-1.074-.176-1.09.636-2.176 1.171-3.066m100.14 3.968c-2.106-.077-3.835-.985-5.842-1.408-2.401-.506-4.683-.31-7.093-.31-.4 0-2.852-.153-1.594-1.018.853-.586 2.885-.21 3.889-.21 1.794 0 3.67-.029 5.424.389 2.524.6 4.606 1.655 7.302 1.18 2.474-.435 4.5-2.829 6.259-4.427.621-.564 1.919-1.906 2.885-1.676 1.4.332-2.089 2.737-2.468 3.069-2.75 2.407-4.844 4.557-8.762 4.412m28.581-.394c-.436-.09-4.268-1.721-2.645-2.181 1.341-.38 2.587 1.57 4.087.816 1.233-.62 2.196-4.088 3.74-3.862 1.123.164-.34 1.744-.584 2.06-1.254 1.632-2.115 3.682-4.598 3.167m-74.48-29.14c-.811.182-1.725.583-2.563.352-1.344-.371-1.976-1.729-3.07-2.468-1.063-.72-2.732-.685-3.963-.447-1.686.327-1.657 2.339-2.443 3.586-1.658 2.631-3.14 5.487-5.017 7.976-.804 1.066-2.383 2.028-2.846 3.272-.478 1.286.611 2.051 1.126 3.068-1.339.351-2.173 2.189-.598 2.963 1.007.494 2.059-.01 3.098.135.578.082.785.32 1.047.788-1.074.195-2.566-.05-3.515.502-1.081.628-.697 2.63.398 3.056 1.363.53 2.936-.488 4.369-.081-1.218.91-3.997.659-4.76 1.887-.975 1.564.33 3.224 1.84 3.68 1.868.567 4.16-.15 5.632-1.34 6.052-4.892 4.96-12.358 7.494-18.953 1.054-2.746 3.747-4.98 3.772-7.976m-51.322-18.202h.418l.834 2.658h.209l-.019-12.475-1.8-12.68-.268-6.34h-.208c-.315.906-.715 1.78-1.102 2.658-.19.434-1.31 4.125-2.015 3.177-.613-.824.601-2.815.942-3.586 1.038-2.347 3.068-5.92 1.34-8.385-.876 1.477-1.764 3.244-2.186 4.908-.096.38-.174 1.67-.89 1.39-1.03-.403.025-2.42.253-3.026.65-1.719 2.153-3.302 2.681-4.967.333-1.049-.136-2.746-.276-3.827-2.002 1.439-2.024 6.258-4.38 6.954.004 6.665 1.426 13.43 2.235 20.043.191 1.564.35 3.137.536 4.703.053.449.279 1.338-.312 1.566-.847.327-.942-1.744-.984-2.18-.267-2.804-.777-5.581-1.043-8.384-.454-4.786-1.33-9.52-1.666-14.317-.233-3.327.195-6.693-.037-10.021-.249-3.558-.816-7.059-.816-10.635-4.011 0-8.823.706-12.726-.205-.637 3.688.367 7.727.2 11.453-.502 11.26-.409 22.682-.409 33.95 0 3.953-.723 7.964-1.34 11.863-.19 1.205-.006 3.223-1.163 3.886.203 2.52 1.32 5.542.417 7.976-1.577-.846-2.978-.096-4.59.409.274 1.482 1.359 2.725 1.98 4.09 1.164 2.563.325 4.987 3.653 5.727-.544.967-1.485.818-2.503.818l.834 10.84.418 6.748c4.14-1.539 4.162-6.298 7.101-8.96 1.969-1.784 4.758-3.808 7.294-4.717 1.54-.551 4.052-.25 5.295-1.341 1.42-1.247 2.053-3.36 2.783-5.024 2.587-5.9 2.571-12.883 2.126-19.225-.127-1.804-1.1-3.746-.816-5.522m5.633 44.79c-.457-1.58-1.94-5.345.417-6.136l.209 6.136h-.626m-40.473-1.841c-.974-1.31-3.407-1.845-4.381-.205l4.381.205m-22.949-31.905c-2.24-2.224 3.298-3.454 3.93-4.782.28-.586-.316-1.207-.437-1.763-.146-.67.164-1.384.263-2.045-2.455 1.123-7.988 3.509-10.323.771-.834-.976-.192-2.285.349-3.225 1.025-1.78 2.233-3.874 3.044-5.727.411-.94-.404-1.788-.657-2.659-.55-1.898-.046-3.666-1.482-5.308-3.372-3.856-10.474.12-14.506.826-.819.144-1.686.65-2.504.665-2.058.037-3.39-1.895-3.963-3.545l.834-.205c.895 5.095 4.492-.23 4.642-2.863.18-3.136-1.065-6.472-1.285-9.612-.352-5.01 0-9.925-.645-14.93h-.209l-1.901 5.93-2.238 7.363-11.226 14.93-4.298 13.908-5.58 11.657c2.762-1.417 5.309.284 7.719 1.817 2.015 1.281 6.457-.606 7.124 2.884.263 1.372-2.05 2.039-2.819 2.792-.799.784-1.114 2.006-1.693 2.938-1.652 2.66-3.124 3.124-2.273 6.544.135.542.154 1.507.62 1.887.49.399 1.408.097 1.962.004 3.58-.602 1.65-5.37 4.022-7.315.882-.722 2.494.516 3.488.72 0-1.099.099-2.225-.306-3.272-.564-1.458-1.887-2.88-1.363-4.5 2.312.958 4.352.37 6.676-.156.732-.165 2.385-.73 3-.126.64.628-.053 2.039-.258 2.737-.715 2.432-2.179 4.294-1.59 6.954.424 1.918 2.004 2.726 2.976 4.294 1.05 1.693 1.6 3.51 2.861 5.113 1.71 2.174 4.054 3.609 6.152 5.384 1.095.928 1.574 3.202 2.745 3.806.976.503 2.303-.476 3.308-.522 1.41-.065 2.58-.561 3.964-.673.924-.074 2.064.196 2.92-.229 2.445-1.213 3.795-4.815 4.833-6.948.616-1.266 1.826-2.207 2.468-3.477.403-.796.116-1.68.605-2.453 1.066-1.684 1.785-2.082 2.208-4.091.21-1 1.078-1.953.684-3.018-.296-.8-1.97-.787-2.639-1.358-1.123-.958-1.443-2.836-1.632-4.214-.195-1.412-.27-2.68.006-4.09.242-1.245.93-2.597.406-3.878-1.459-3.558-7.858.455-7.982 3.06m32.754 31.7l-.208-6.954h-1.878l.417 2.046c-1.173-.223-1.876-1.033-2.92-1.521-2.656-1.242-6.046-.886-7.094 2.134l2.833-.745.222 1.76 2.388 2.376 6.24.904m42.55-.516c-2.915-.27-5.87.082-8.752-.696-.4-.108-3.298-1.162-2.366-1.835.584-.421 2.092.131 2.783.136 2.908.021 5.618-.462 8.34 1.117.665.386 1.191 1.39-.005 1.278m104.739-4.283c-1.05-.18-2.37-.328-3.307-.854-.486-.274-.703-.951 0-1.135 1.905-.496 3.782 1.687 5.81.441 1.509-.926 3.19-2.314 4.302-3.674.661-.809.991-1.878 1.775-2.582.67-.6 1.905-1.463 2.87-1.236.458.108.883.6.501 1.031-.55.622-1.823.538-2.507 1.218-2.656 2.644-4.799 7.589-9.445 6.791m-30.459-6.45c-.987.284-3.922 3.122-2.232 4.073.887.498 1.375-.992 2.23-.876.311.043 3.787 2.778 2.765-.128-.426-1.207-2.03-1.991-2.763-3.069m-16.898 4.5c.824-1.33.626-2.789.626-4.295l-4.173 1.022c.513 1.476 2.128 2.653 3.547 3.273m-50.348-.546l-.07-.136.07.136m-49.792-.272c.409-1.871-.223-6.18-2.086-6.954.304 1.391 1.005 2.662 1.22 4.09.156 1.023-.074 2.2.867 2.864m-1.67-.41v-.204l-1.042-1.022c-.304.855.227 1.163 1.043 1.227m51.321 0c-.854-6.594-7.211-9.089-13.352-7.363-1.286.361-3.343.753-4.172 1.84 4.583-1.262 11.424-.75 15.226 2.328 1.105.895 1.33 2.246 2.298 3.195m1.252-.614c.88-.409 1.965-.736 2.622-1.475.82-.923.716-2.295.716-3.433-.002-3.942-4.464-7.945-7.779-9.78-1.22-.677-3.215-.15-4.53-.055-1.543.11-4.028.03-5.38.838-1.072.641-1.93 2.31-2.715 3.27-2.084 2.554-4.674 4.845-5.883 7.976 1.239-.987 2.134-2.15 3.547-2.975 1.18-.69 3.066-1.082 4.015-2.037 1.005-1.011 1.708-3.31 3.287-3.646 1.907-.406 4.156 2.337 5.19 3.5 1.129 1.27 3.095 1.527 4.338 2.791 1.411 1.433 1.534 3.417 2.572 5.026m81.99-5.317c-.136.984-.614 2.07-.282 3.058.402 1.196 3.288 2.613 4.445 1.9 1.742-1.076 1.208-3.734-.448-4.66-1.014-.57-2.587-.299-3.716-.299m-106.815 4.909c1.564-4.215 4.335-7.204 7.135-10.635.857-1.05 1.882-3.2 3.099-3.797.736-.361 1.692-.32 2.492-.448 2.217-.352 5.326-1.178 7.51-.429.94.323 1.528 1.227 2.298 1.81 2.465 1.863 5.74 4.454 6.556 7.568.317 1.21-.038 2.465-.092 3.68 2.258-1.556 2.94-6.237 2.189-8.793-.332-1.129-1.33-1.954-1.72-3.068-.557-1.594-.63-4.296 1.409-4.704-.125-5.923-1.776-12.22-2.99-17.998-.322-1.529.001-4.63-1.152-5.808-1.027-1.047-3.71-.671-4.829-.101-.512.26-1.797 1.207-2.355.651-.55-.547.59-2.042.639-2.718.15-2.092-1.903-4.84-4.122-4.977-1.004-.062-2.037 1.314-2.715 1.927-2.189 1.976-3.854 4.464-6.07 6.362-.803.69-2.733 2.57-3.819 1.326-1.46-1.672 1.061-3.568 1.241-5.047.128-1.048-.97-2.01-1.086-3.068-.084-.77.365-1.49.239-2.25-.366-2.193-1.194-4.804-2.152-6.749-.325-.66-.644-3.139.412-3.355.929-.19 2.603 1.49 3.307 2 2.396 1.737 4.34 3.22 7.093 4.398.767.328 1.812 1.194 2.694 1.052 1.912-.308 4.336-4.348 3.811-6.14-.263-.898-1.571-1.708-1.461-2.655.321-2.768 5.039-.463 6.013.2l-3.964-24.746h-23.157c1.707 8.108 2.707 16.704 3.511 24.951.172 1.764-.108 3.556.071 5.318.623 6.107 1.753 11.824 1.753 17.998 0 3.682.09 7.358.09 11.044 0 1.25.442 3.195-.835 3.885l-.542 9.204-4.883 11.044 4.381 3.068m66.76-.818l-.834-2.455-2.921 1.227v.614l3.755.614m51.113-6.545c2.395.661 2.983 1.128 3.338 3.477.886-.608 2.954-4.341 2.27-5.402-.843-1.306-3.558-2.781-4.853-1.233-.47.559-.578 2.39-.755 3.158m-124.757 1.023c-.473-1.57-.132-3.29-.523-4.909-.72-2.987-2.344-5.602-1.981-8.794 1.234.401 1.005 2.574 1.255 3.681.755 3.346 2.74 6.456 1.666 10.022h-.418m39.222 0c1.535-1.96 4.504-5.59 4.3-8.181-.076-.945-.933-3.28-2.026-3.465-.685-.115-1.58.27-2.274.336-.52.049-1.49-.249-1.872.193-1.675 1.929 1.273 4.737 1.607 6.413.298 1.508-.347 3.274.265 4.704m-91.377-5.113l-.626-1.637-6.885 2.455-.208-.205c.49-.986.885-2.444 1.698-3.195 1.875-1.731 5.365-2.303 5.395.945 1.622-.436 2.491.73 3.964.984.796.137 1.528-.339 2.273.163 2.012 1.357.402 3.056-1.249 3.639-.62.218-1.231-.071-1.859-.023-1.642.127-3.396.52-5.007.893-.958.223-2.14.925-3.13.782-.98-.142-2.903-.929-3.199-1.94-.219-.746.435-1.448 1.115-1.679 1.282-.435 2.853.174 4.171-.023 1.281-.19 2.267-1.066 3.547-1.16m69.89 4.09c2.184-.553 3.855-.493 6.05-.204v-.204c-1.804-1.331-3.683-3.343-5.49-1.023-.364.467-.641.858-.56 1.432m5.215-5.522c2.772.237 8.785 2.551 10.014 5.113l-.209.204c-2.546-.96-4.962-2.58-7.51-3.65-.957-.402-2.098-.55-2.295-1.667m51.87 4.482c-.755-.561.459-1.786.933-2.07 1.727-1.029 3.872-1.19 5.82-1.51 4.45-.731 8.827-1.293 13.352-1.099 3.711.16 7.11.954 10.849.275 2.16-.392 4.36-1.497 6.048-2.863.394-.32 1.343-1.54 1.957-1.084.782.582-.73 1.79-1.12 2.106a15.395 15.395 0 01-6.05 2.942c-4.678 1.08-9.103-.153-13.77-.353-3.615-.155-7.277.815-10.848 1.25-1.692.207-3.975.416-5.404 1.394-.409.282-1.158 1.465-1.767 1.011m-94.846.018c-.007-2.66-.992-6.193-3.13-7.976-.8 1.26-2.26 2.56-2.455 4.09-.314 2.466 3.64 3.73 5.585 3.886m17.524-44.38c1.437.463 1.628 3.6 2.028 4.908 1.653 5.407 1.938 10.957 1.936 16.566 0 1.48.17 5.823-1.67 6.136l.608-13.09-1.65-9.408h-.209c0 4.423-1.096 9.407-2.218 13.703-.595 2.282-1.632 4.581-1.738 6.954-.158 3.547 1.69 6.275 2.388 9.612.533 2.545.09 5.686-.518 8.181-1.084-.353-.812-1.33-.6-2.25.445-1.942.707-4.203.074-6.135-.884-2.7-2.262-5.286-2.34-8.181-.078-2.83 1.058-5.487 1.745-8.18.89-3.494 1.42-7.113 2.067-10.636.49-2.672-.426-5.553.097-8.18m115.786 32.518c-.431 2.599-6.676 2.706-8.762 2.656-2.57-.062-4.95-1.669-7.51-1.607-2.341.057-4.698 1.028-6.885 1.742a135.997 135.997 0 00-11.891 4.509c-2.174.942-7.578 2.745-9.726.911-.455-.388-.176-.865.35-.953 1.133-.19 2.368.378 3.534.274 2.708-.24 5.224-1.347 7.72-2.338 5.006-1.989 10.74-5.116 16.272-5.305 3.403-.115 6.396 1.681 9.805 1.535 2.454-.106 4.678-1.374 7.093-1.424m-143.95 4.5l-.209 2.25c1.947-.295 3.678-3.177 4.966-4.559.509-.545 1.219-1.181 1.135-1.986-.195-1.876-1.993-3.37-1.72-5.318h.418l2.295 5.113h.417l2.503-1.636-.834 2.045 3.13.41-3.548-20.453c-4.803 1.078-10.04 3.994-12.94 8.011-1.25 1.73-1.569 4.048-2.605 5.896-1.562 2.786-3.722 5.394-4.393 8.59-.234 1.113.119 2.527.119 3.682 1.19-.385 1.775-1.841 2.343-2.864 1.372-2.471 3.018-4.754 4.499-7.158.659-1.069 1.105-3.209 2.546-3.272-1.617 3.333-4.381 6.27-4.381 10.021h.209l1.877-2.454c.182 1.957-1.088 4.705-.64 6.514.233.94 2.311.368 2.869-.005 1.14-.764.045-2.746 1.944-2.828m88.873 2.659c2.128-2.52 1.886-4.362 2.593-7.363.666-2.826 1.582-5.8 2.45-8.59.72-2.309 3.79-1.695 4.435-3.886.632-2.151-.09-4.732.18-6.953.63-5.244.811-10.549-.376-15.748-.292-1.278-.976-2.42-1.304-3.681-1.638-6.276-3.352-11.485-10.481-13.499-1.083 4.59-4.177 8.58-5.956 12.885-1.185 2.867-2.391 6.54-2.769 9.612-.281 2.314.034 4.63-.334 6.954-.542 3.42-2.15 6.274-1.998 9.817 4.481-.852 8.879.488 12.1 3.681 1.29 1.28 2.366 2.609 3.036 4.295.16.403.63 1.566-.126 1.712-.548.106-.759-.749-.901-1.098-.571-1.405-1.463-2.741-2.47-3.886-2.385-2.712-7.636-4.667-11.222-3.477l.513 4.704 1.365 8.59c1.63-.069 3.292-.475 4.798.41 1.097.646 1.744 1.973 2.929 2.45.929.375 2.564-.68 3.21.11.687.842.038 2.04.328 2.961m-96.385-4.09h-.208l-2.086 3.682c1.627-.468 2.099-2.198 2.295-3.682m82.823 2.455c1.455-3.495.574-5.858.06-9.408-.456-3.139-.656-6.279-1.216-9.408-.35-1.97.837-3.882.485-5.727-.674-3.505-2.02-6.992-2.996-10.43-1.932-6.813-3.755-13.658-5.748-20.452-1.073-3.664-1.395-7.695-2.042-11.453-.197-1.146-.121-3.679-.857-4.58-.442-.542-1.839-.38-2.498-.533l-.209.205c3.95 15.713 5.952 32.136 8.883 48.061 1.436 7.808 1.772 16.954 6.138 23.725m79.198-2.463c-.473-.36-.05-.886.32-1.105 1.614-.954 3.302-2.424 4.975-3.198.54-.25 1.46-.553 1.948-.036.739.78-.893 1.154-1.322 1.372-1.147.584-4.37 4.147-5.92 2.967m-53.054-.837c-1.412-.296 1.315-1.898 1.81-1.974 3.723-.57 6.767-.002 10.432-1.358 6.305-2.334 10.945-6.662 18.15-5.55 3.161.488 5.051 2.647 7.72 4.097 1.103.6 3.23.032 4.043.842 1.258 1.255-3.45.802-4.044.573-2.144-.83-3.757-2.688-5.841-3.685-1.963-.938-4.773-.953-6.885-.633-4.218.638-7.596 3.513-11.474 5.085-3.947 1.599-7.106 1.598-11.266 1.793-.872.04-1.827.98-2.645.81m-42-68.487h-1.46l3.354 20.861 8.12 47.04c.686-.002 1.852.137 2.15-.66.439-1.172-.427-3.262-.638-4.453-.64-3.616-1.262-7.234-1.971-10.84-3.399-17.276-6.232-34.657-9.555-51.948m96.407 65.41c-.795-.109-.378-1.012-.115-1.395.684-.995 1.59-1.933 2.595-2.614 2.418-1.635 5.322-1.752 8.137-2.145 1.093-.153 2.687-.476 3.755-.135.622.198 2.78 2.414 1.24 2.66-.69.11-1.305-1.094-2.075-1.213-2.405-.37-5.885.108-8.136.978-1.383.534-2.695 1.449-3.734 2.487-.417.418-.945 1.477-1.667 1.378m-198.842-59.07l-.417-5.318c-.665 1.067-.623 2.399-1.303 3.477-1.368 2.17-3.378 3.833-4.832 5.931-2.857 4.122-4.878 8.79-7.4 13.09-.887 1.51-2.336 2.572-3.235 4.09-2.76 4.661-3.894 10.015-8.064 13.885-2.648 2.457-8.971 1.565-12.3 1.1-1.654-.231-5.013-.297-6.005 1.446-.573 1.004.554 3.4.88 4.43.713 2.258 2.272 2.706 3.716 4.332 2.155 2.43 3.878 5.242 6.21 7.527.83.814 4.054 3.75 5.35 2.925 1.408-.896 1.8-3.784 2.582-5.172 1.861-3.301 3.435-6.592 4.493-10.226.95-3.265 1.49-6.97 3.037-10.021.842-1.658 2.358-3.002 3.46-4.5 1.827-2.485 3.48-5.097 5.334-7.567 1.066-1.422 2.427-2.645 3.111-4.295 1.461-3.523 2.035-7.425 3.298-11.044.434-1.246.868-3.448 2.085-4.09m193.461 57.024c-.613-.088-.352-.862-.167-1.191.655-1.166 1.83-2.08 2.725-3.064 1.45-1.597 3.16-2.957 4.67-4.503 2.09-2.144 3.842-4.882 7.31-4.437 2.033.261 4.31 1.32 5.832 2.658.265.234 2.137 2.35.812 2.35-.812 0-1.644-1.4-2.264-1.841-1.894-1.345-4.835-2.657-7.093-1.426-1.427.778-2.274 2.17-3.356 3.31-1.663 1.753-3.543 3.292-5.135 5.113-.682.78-2.08 3.211-3.333 3.032m-42-7.123c4.9 0 9.558-.33 14.394-.952 3.342-.43 7.106-1.262 10.431-.348 3.049.838 5.904 2.596 8.763 3.896.707.321 2.286 1.609 3.048 1.257 1.667-.77 1.75-4.327 2.929-5.632.66-.73 2.23-1.623 3.202-1.819.668-.134 1.408.135 1.95-.384 1.711-1.64 1.196-5.356 1.895-7.47.334-1.013 1.24-1.998 1.29-3.068.093-1.927-1.985-2.79-2.297-4.5-.85-4.624-1.004-10.152-3.691-14.316-2.629-4.072-7.423-6.547-11.247-9.381-4.016-2.976-7.632-5.98-12.935-4.612-4.936 1.274-8.601 7.279-11.176 11.334-2.726 4.293-4.25 8.838-5.493 13.703-.534 2.095-1.308 4.372-1.385 6.544-.048 1.364.38 2.73.303 4.09-.092 1.58-.662 3.116-.599 4.705.092 2.334.617 4.601.617 6.953m10.849 0c-1.724.328-3.46 1.044-5.216 1.15-3.382.204-6.682-1.139-8.345 2.736 4.905-.607 9.985.449 13.56-3.886m-12.1-9.407l-1.251-.205c-.833 3.958-2.852 9.278-1.878 13.294 5.892-2.7 1.999-8.434 3.13-13.09m-94.716 12.476c.466-10.634.396-21.487-.124-32.11-.145-2.956-.966-6.042-.869-8.998.084-2.564 1.767-5.263 2.314-7.772.752-3.442.557-6.918.557-10.43l-7.51-.205.452 7.158 1.208 9-.146 14.111 1.802 11.453-.726 4.295 1.908 8.385 1.134 5.113m-35.049-10.02c-2 .921-4.773 3.914-4.798 6.135 2.375 0 6.373.287 5.81-3.05-.212-1.26-1.326-1.647-1.011-3.086m132.684 2.863l9.388-2.454c-.09 1.981-5.403 2.88-7.093 3.177-.933.165-1.957.273-2.295-.723m24.826-3.886l5.425.936 5.007-.322c-.342 1.037-1.492 1.14-2.504 1.209-2.031.14-6.817.171-7.927-1.822m-35.466 1.227c.628-.75 2.002-1.447 2.378-2.294.764-1.724-.01-5.467-.231-7.319-.54-4.484-.278-9.022-.891-13.498-.248-1.803.455-4.865-.338-6.46-.526-1.054-3.764-1.966-4.882-2.13 1.114 2.662 1.22 5.223 1.855 7.976.937 4.077 2.418 7.807 2.524 12.067.056 2.309.01 4.662-.267 6.954-.171 1.427-.732 3.34-.148 4.704m21.697-4.09c-1.11.236-2.03-.216-3.13-.178-1.809.063-4.347 1.214-5.632 2.427l2.503.614c.513-2.907 3.642-3.503 4.798-.614l3.13-1.432c-.455 2.833-6.303 3.379-8.554 2.805-.713-.181-2.81-.497-2.912-1.397-.098-.853 1.258-1.435 1.869-1.751 1.508-.78 7.066-3.022 7.928-.475m-120.376 2.046c-4.149-6.755-6.468-14.996-6.468-22.906-.875.445-2.735 1.658-2.909 2.693-.189 1.13 1.543 3.66 1.895 4.874 1.433 4.932 4.07 11.018 2.683 16.157l4.799-.818m-5.425.613l.209-2.454-2.086.614c.336.965.893 1.511 1.878 1.84m13.56-5.317c-2.956.06-6.462.457-9.18 1.636.338.874.999 2.376 1.917 2.792 2.854 1.292 6.874-1.843 7.263-4.428m126.843 3.477v-.41l.209-.204 1.878.409c.306-2.7 4.681-2.91 4.172-.205l2.712-.818v-.204l-4.59-1.337-4.172.519v-.818c3.507-.667 7.41-.094 10.64 1.431v.41c-3.271 1.749-7.317 2.552-10.849 1.227m-60.501-.205c1.508-5.212.97-10.229.453-15.544-.59-6.062-1.052-12.143-1.67-18.202-.419-4.11-.671-9.076-4.316-11.943-1.254-.986-4.172-.168-5.733-.533.062 2.942.875 5.903 1.37 8.795 1.417 8.279 3.704 16.265 6.053 24.337.87 2.993 1.654 6.007 2.53 9 .388 1.323.578 2.91 1.312 4.09m48.818 0c-1.034-3.4-1.14-7.516-1.495-11.044-.126-1.246-.81-2.666-.36-3.886 1.034-2.792 4.92-4.308 7.697-3.2 2.028.809 3.822 2.961 4.798 4.836-2.186.305-3.469-3.829-6.05-4.07-2.107-.195-5.09.668-5.543 3.047-.526 2.773.79 7.002 1.19 9.817.195 1.388.894 3.415-.236 4.5m-16.69-.205c0-1.093.538-4.828-.543-5.495-1.569-.967-3.473 4.208-2.312 5.167.687.568 2.018.328 2.854.328m-111.822-1.227l-.209-1.636c-1.733.302-2.872.854-2.295 2.659l2.504-1.023m13.352-2.659v-2.045c-3.65 0-6.738.928-10.223 1.84l.892 1.68 3.072-.68 6.259-.795m-16.273 1.432c1.486-.997 2.543-1.09 2.295-3.068-1.411.379-3.846 1.445-2.295 3.068m169.402-3.272l-5.007-.205.626 2.25c1.404-.029 4.709-.13 4.381-2.045m-167.316-.614l-.417-1.227c-1.557.366-3.12 1.102-2.713 2.863l3.13-1.636m13.978-.409c-.099-1.746-1.479-1.447-2.92-1.43-2.793.032-5.556.863-8.137 1.84l.626 1.635c3.5-.936 6.75-2.045 10.43-2.045m-50.069.205v-.205l-2.503.818 2.503-.613m35.466-1.841l-.417-1.227c-1.5.402-2.987.902-2.712 2.659l3.129-1.432m165.647 1.346c1.638.2 3.493-2.728 2.936-4.183-.526-1.368-2.694-1.807-3.979-1.987-2.413-.337-4.998 1.439-3.509 3.947.943 1.591 2.842 2.014 4.553 2.223m-151.461-1.96c-.174-3.947-5.393-1.867-7.928-1.092-.808.247-2.638.423-3.104 1.197-.29.481.068 1.242.183 1.736l10.849-1.84m-50.905 1.636c1.421-.392 3.075-.553 4.382-1.256 2.62-1.41 5.887-6.497 5.333-9.584-.423-2.357-3.178-4.432-4.313-6.544-2.366-4.403-3.986-9.611-5.61-14.317h-.209l.618 8.59.044 9.408 1.204 8.999-1.449 4.704m101.391-1.5c1.283.225 3.375-.076 3.958-1.425.618-1.428-.606-5.18-2.288-5.41-1.333-.183-1.864 1.157-2.572 1.994-1.718 2.033-2.806 4.192.902 4.842m-68.22-.138l2.92-1.431-.417-1.227-2.92 1.227.417 1.431m17.316-3.067l-.209-1.023c-2.9-.36-5.593.252-8.345 1.159-1.18.39-2.756.628-2.503 2.113 3.772-.855 7.119-2.25 11.057-2.25m-17.733 1.023l2.712-1.227-.208-1.227c-1.27.242-3.682.753-2.504 2.454m17.107-2.863c-.185-1.581-1.58-1.518-2.92-1.311-2.75.424-5.804 1.434-8.345 2.538l.208 1.023c3.806-.663 7.022-2.75 11.057-2.25m-17.315.613l2.503-1.022v-.205c-.998-.289-3.107-.336-2.503 1.227m16.898-2.863l-.208-.818c-4.203 0-7.158.859-11.057 2.25l.208 1.227 7.51-2.299 3.547-.36m130.39 2.454l3.536-4.499.637-5.113h.417c1.469 2.745-.058 5.938-2.086 7.976-.745.75-1.354 1.799-2.503 1.636m-147.08-1.636l1.669-.204c-.34-1.004-1.834-.919-1.67.204m16.273-2.454l-.208-1.227c-2.763 0-5.696.194-8.345 1.029-1.24.39-2.697.982-2.295 2.448 3.766-1.32 6.804-2.25 10.848-2.25m-15.507.682l-.07-.136.07.136m4.45-.477c3.136-1.617 6.89-2.25 10.432-2.25-1.155-3.32-6.036-1.345-8.345-.362-1.102.47-2.655 1.23-2.086 2.612m122.67-1.023c1.62-5.015 5.233-10.194 11.266-8.94 3.21.668 5.318 3.1 7.51 5.259.94.925 2.464 1.856 1.878 3.272-6.156-1.906-12.678.461-18.985-.818-.336.838-.707 1.364-1.669 1.227m-122.88-1.022c2.412-1.594 5.203-2.657 8.137-2.66-1.965-2.092-9.738-1.091-8.136 2.66m84.075-.205c1.813-2.144 2.981-5.175 3.954-7.772.592-1.586 1.011-3.524 2.305-4.704-1.44-1.14-4.235-2.32-6.05-2.658l-.002 10.635-.207 4.5m56.12-1.637v-.409c-1.481-.827-2.762-2.057-4.381-2.64-3.056-1.1-9.082.175-10.014 3.663l7.093-.816 7.302.202m14.812-3.272h.209c2.534-1.545 6.861-1.924 8.845-4.215.785-.908.334-3.245.334-4.375 0-4.242-.705-8.268-1.043-12.476h-64.673c-.002 3.758-.835 7.469-.835 11.249 0 1.004-.43 3.171.161 4.01.678.959 2.556 1.121 3.594 1.502 2.643.967 5.124 2.396 7.72 3.487 1.685.709 3.344 1.518 5.006 2.283.553.256 1.407.897 2.047.698 1.185-.367 1.974-2.847 2.618-3.8 2.112-3.121 4.517-6.698 7.436-9.141 2.748-2.3 7.602-3.448 11.057-2.08 1.807.714 3.378 2.204 5.007 3.235 4.446 2.812 8.775 5.953 12.517 9.623m-119.75-3.682c.955-2.182 2.144-5.154 3.964-6.749l-.417-3.477h-.209c-.54 1.12-.893 2.412-1.546 3.47-.168.27-.632.889-.999.49-.546-.592.757-2.732 1.026-3.346.766-1.746 2.438-6.088.18-7.561-.699-.456-2.028-.21-2.833-.21l.622 11.248.212 6.135m153.966-17.384h-18.985c-.847 4.28.131 8.698 1.67 12.68 4.257-.616 8.703-2.625 12.725-4.1 1.248-.458 3.612-.99 4.375-2.144.89-1.346.215-4.846.215-6.436m-98.053 0c-4.774 0-10.588.879-15.23-.205 1.081 4.513 5.852 8.305 9.806 10.331.815.418 3.634 2.103 4.437 1.399.688-.602.71-2.106.812-2.936.346-2.832.175-5.737.175-8.59m-124.34-15.543v-4.09l-6.05-.205v-23.315l-5.424.205c.473 1.947.208 4.141.208 6.135v11.044c0 1.248.607 4.68-.334 5.604-.944.925-4.436.327-5.716.327v4.5h11.474l5.842-.205m7.719.205v-7.363c0-.83-.278-2.28.214-3.002.636-.935 5.848-.876 6.336.186.375.816.126 2.141.126 3.02v7.159h5.215v-27.815h-5.215v8.18c0 1.038.315 2.676-.126 3.635-.488 1.062-5.7 1.121-6.336.186-.542-.795-.214-2.49-.214-3.411v-8.59h-5.216v27.815h5.216m30.876 0v-4.5h-9.597v-6.749h9.18v-4.5h-9.18v-7.77h10.014v-4.296h-10.222l-5.216.205c.87 3.585.209 7.976.209 11.657 0 4.93.955 10.957-.209 15.748l5.216.205h9.805m17.942-4.5v-6.749h6.676l2.289-.327.214-4.172h-9.18v-12.067h-5.423v27.815h10.848c.982 0 3.246.411 4.047-.21.651-.506.63-3.79-.15-4.167-.747-.36-2.04-.123-2.854-.123h-6.467m22.949 4.5l7.093-27.815c-1.153 0-4.636-.568-5.427.327-1.21 1.374-.058 5.38-2.502 5.592-1.329.117-5.43.606-6.195-.631-.786-1.276-.29-4.16-1.469-5.077-.976-.76-4.047-.21-5.27-.21.937 6.818 3.574 13.53 5.096 20.247.403 1.78.899 3.55 1.35 5.318.15.588.278 1.642.8 2.039 1.173.894 5.049.21 6.523.21m14.813 0v-27.815h-5.216v27.815h5.216m20.028 0v-4.5h-5.842v-23.315h-5.424v23.316h-5.842v4.499h17.108m7.927 0v-7.363c0-.83-.277-2.28.215-3.002.664-.976 5.643-.828 6.246.17.474.783.215 2.16.215 3.037v7.158h5.216v-27.815h-5.216v7.977c0 1.081.292 2.654-.125 3.669-.49 1.188-5.626 1.397-6.336.356-.542-.796-.215-2.491-.215-3.412v-8.59h-5.215v27.815h5.215m30.877 0v-4.5h-9.597v-6.749h6.05c.762 0 1.946.215 2.645-.122.78-.377.801-3.661.15-4.167-.546-.425-1.727-.21-2.378-.21h-6.467v-12.067c-1.072 0-4.504-.546-5.21.327-.867 1.074-.214 4.663-.214 6.013v15.543c0 1.273-.607 4.588.215 5.604.584.724 2.895.328 3.749.328h11.057m7.719 0v-19.02c0-2.15.371-5.49 3.338-5.45 2.658.038 3.313 3.214 3.338 5.245.077 6.405 0 12.817 0 19.224h5.215v-15.952c0-2.935.34-6.109-1.097-8.794-2.583-4.825-12.042-5.218-14.891-.41-1.398 2.357-1.119 5.158-1.119 7.771v11.044c0 1.994.265 4.189-.208 6.136l5.424.204m20.862 0v-17.18c0-1.312-.65-5.045.334-6.012.572-.558 1.857-.327 2.587-.327h6.885v-4.295h-15.021v27.815h5.215m-105.772-4.908c-.595-3.008-1.297-5.996-1.92-8.998-.16-.773-.876-2.655-.361-3.355.63-.854 4.288-.386 5.202-.122l-2.504 12.475z" clip-path="url(#a)" transform="matrix(.35278 0 0 -.35278 186.353 -6.44)" fill="#3a090b"/></svg>