<svg width="134.54" height="117.982" viewBox="0 0 35.597 31.216" xmlns="http://www.w3.org/2000/svg"><defs><clipPath id="a"><ellipse transform="scale(1 -1)" cx="88.86" cy="379.17" rx="50.452" ry="44.243" fill="red" fill-rule="evenodd" stroke-width=".75"/></clipPath></defs><path transform="matrix(.35278 0 0 -.35278 -13.55 -118.153)" d="M-97.579-307.72v-251.56h381.78v251.56h-381.78m109.11-11.453v-1.636h-1.67v1.636h1.67m160.01 0v-1.636h-1.67v1.636h1.67m-190.26-.205v-1.431h-2.712v-6.954l-.215-2.535-1.663-.328v9.817h-2.712v1.432h7.302m2.712 0v-3.477c1.19.94 3.508 1.609 4.082-.41.614-2.161.09-5.12.09-7.362h-1.669v4.908c-.002 1.16-1.053 3.707-2.257 1.614-.686-1.192.672-6.344-1.089-6.48-1.378-.106-1.035 1.763-1.035 2.617v8.59h1.878m19.193 0v-4.705c1.773 1.905 2.486 4.702 5.424 4.704l-2.834-4.645 3.251-6.603c-2.753.002-3.633 2.656-4.59 4.908H4.02l-.834-4.908h-1.67v11.249h1.67m56.954 0v-1.432l-2.378-.328-.335-2.535v-6.954H55.55v9.817h-2.712v1.432h7.301m2.713 0v-3.477c1.27 1.02 3.565 1.649 4.245-.412.693-2.105.136-5.153.136-7.36h-1.877c0 1.836.077 3.689-.004 5.522-.029.647-.236 1.553-1.043 1.652-.785.097-1.292-.818-1.41-1.447-.335-1.804-.047-3.894-.047-5.727h-1.669v11.25h1.67m19.401-6.545c0-2.016.802-4.695-1.877-4.704v11.249c1.598 0 4.277.502 5.61-.515 1.669-1.27 1.598-4.449-.206-5.574-1.022-.638-2.372-.456-3.527-.456m54.242 6.545v-1.432l-2.378-.328-.334-2.535v-6.954h-1.67v6.954l-.333 2.535-2.587.328v1.432h7.302m2.712 0v-3.477c5.343 3.885 4.381-4.965 4.381-7.772h-1.669c0 1.808.19 3.73-.06 5.522-.086.618-.26 1.518-.996 1.687-.861.198-1.479-.786-1.608-1.482-.336-1.804-.048-3.894-.048-5.727h-1.67v11.25h1.67m19.402-6.545c0-2.016.8-4.695-1.878-4.704v11.249c1.638 0 4.233.487 5.612-.543 1.598-1.195 1.502-4.48-.206-5.546-1.025-.638-2.372-.456-3.528-.456m0 5.318c0-.929-.399-3.01.215-3.763 1.333-1.639 4.658 2.407 1.658 3.58-.584.228-1.258.181-1.873.183m-76.565-.41v-3.272c3.986-1.155 4.125 4.468 0 3.273m-86.161-5.522h-4.381c0-.407-.02-.823.022-1.228.371-3.576 2.797-.018 4.359 0-.11-2.367-2.772-4.192-4.963-2.514-1.117.855-1.308 2.656-1.292 3.946.033 2.588 3.149 6.8 5.69 3.455.772-1.016.565-2.471.565-3.66m23.366-4.09c-2.536.03-1.66 3.264-1.67 5.113-.003.772.008 2.012-1.05 2.115-2.157.209-1.444-4.38-1.453-5.592-.006-.796-.218-2.055-1.394-1.511-.77.355-.483 1.864-.483 2.534 0 1.925-.968 5.9 1.669 5.93v-.817c5.595 3.268 4.38-4.45 4.38-7.772m6.468 7.977c.14.64 1.07.936 1.39.181.278-.651.07-1.733.07-2.431 0-2.041.74-5.831-.521-7.562-.824-1.13-2.8-1.33-4.068-.88-.57.202-1.786 1.1-1.304 1.829.65.982 1.784-.5 2.347-.682 1.719-.558 1.878 1.506 1.878 2.59-5.195-4.17-6.492 7.754-1.878 7.699.758-.01 1.432-.417 2.086-.745m49.235-3.886c-1.078 0-3.185.397-4.106-.21-.95-.625-.201-2.489.772-2.704 1.45-.32 1.405 2.035 3.334 1.482-.582-2.18-3.512-4.348-5.497-2.001-1.142 1.35-.949 3.66-.723 5.274.342 2.456 3.372 3.95 5.338 1.999.986-.979.882-2.57.882-3.84m15.647 4.636c4.801.77 5.255-8.274 1.252-8.887-4.942-.757-5.527 8.2-1.252 8.887m6.885-8.113v-3.477c-.565.002-1.45-.127-1.752.474-.924 1.843-.126 5.855-.126 7.912 0 .746-.219 1.907.126 2.593.401.8 1.392.404 1.752-.14 6.505 4.484 5.995-12.053 0-7.362m12.1 3.477c-1.079 0-3.185.396-4.106-.21-.95-.626-.202-2.489.771-2.704 1.45-.321 1.406 2.035 3.335 1.482-.573-2.143-3.232-4.224-5.342-2.17-.931.909-1.176 2.778-1.087 4.01.189 2.606 3.08 6.515 5.696 3.25.782-.975.732-2.484.733-3.658m41.725 0h-4.59c.004-.41-.004-.823.063-1.228.603-3.59 2.772.3 4.527-.204-.613-2.296-3.578-4.311-5.526-1.83-.977 1.245-.883 3.414-.693 4.898.303 2.377 3.344 4.206 5.326 2.203.975-.984.893-2.573.893-3.84m17.524 2.864c-3.503-.04-2.503-4.541-2.503-6.954h-1.67c0 2.482-.394 5.316.032 7.76.24 1.384 1.554.653 1.638-.397 1.225 1.43 2.495 1.794 2.503-.409m6.259-6.953c-.505.002-1.306-.116-1.663.327-.375.465-.215 1.371-.215 1.922 0 1.555-.578 4.466.125 5.866.436.867 1.334.281 1.544-.344 3.945 2.304 4.59-.796 4.59-4.09 0-.802.382-2.92-.334-3.471-.503-.387-1.3-.153-1.477.433-.55 1.819.553 4.116-.221 5.879-.428.97-1.613.851-2.103 0-.528-.916-.246-2.438-.246-3.455v-3.068m11.892 5.727h-1.878c-.256 2.245-2.199 1.72-2.553-.205-.198-1.077-.253-2.472.296-3.473.983-1.8 2.188-.23 2.466 1.02h1.67c-.456-2.298-3.045-4.905-5.308-2.409-1.102 1.214-1.083 3.343-.916 4.862.438 3.994 5.664 4.256 6.223.205m7.302-1.636h-4.59c.004-.41-.004-.822.063-1.228.603-3.589 2.772.3 4.527-.204-.58-2.17-3.325-4.244-5.343-2.018-1.11 1.226-1.05 3.35-.88 4.881.269 2.413 3.217 4.545 5.33 2.408.974-.984.893-2.573.893-3.84m6.885 2.046h-1.67c-.496 1.416-2.837 1.573-2.226.021.852-2.169 4.824-1.167 3.805-4.722-.894-3.123-5.687-1.692-5.751 1.224h1.46c.376-1.816 3.207-1.913 2.627-.208-.705 2.076-4.521 1.22-3.979 4.298.587 3.325 5.197 2.053 5.733-.613m6.885.204c-1.37-.393-2.959 1.919-3.787.584-.565-.911.58-1.516 1.283-1.797 1.715-.686 2.988-1.66 2.414-3.694-.88-3.107-5.725-1.714-5.752 1.226h1.46c.445-1.666 3.178-2.029 2.604-.208-.663 2.1-4.562 1.158-3.989 4.299.579 3.164 5.178 2.235 5.767-.41m-196.52-6.339h-1.67v8.59l1.455-.328.215-2.331v-5.931m160.01 0h-1.67v6.544c0 .67-.187 1.985.835 1.985 1.023 0 .835-1.315.835-1.985v-6.544m-179.19 7.354c-1.794-.933-.298-2.924 1.371-2.118 1.199.58-.076 2.792-1.371 2.118m78.003-2.037h2.712c-.03 2.69-2.574 2.614-2.712 0m34.632 0h2.712c-.025 2.698-2.573 2.617-2.712 0m44.437-.204c-.002.401.029.828-.048 1.225-.51 2.599-3.618.008-2.328-1.015.538-.427 1.727-.21 2.376-.21m41.328 2.293c-1.988-.696-.687-2.807 1.18-2.228 1.244.385.128 2.686-1.18 2.228m-167.11-.199c-1.785-.67-1.462-6.464.79-5.62 1.777.668 1.495 6.478-.79 5.62m66.99.003c-1.592-.674-1.431-6.866.959-5.995 1.853.674 1.505 7.039-.96 5.995m7.698-.061c-1.505-.76-1.385-6.728.976-5.795 1.712.676 1.25 6.919-.976 5.795m-38.618-33.122c1.94.084 3.497 3.838 4.379 5.317.477.8.894 2.051 2.077 1.602 1.14-.433.74-1.716.543-2.625-.543-2.496-2.287-4.457-3.282-6.749-1.713-3.945-.353-7.92-1.455-11.862-.909-3.25-3.803-5.515-4.46-8.998-.242-1.284-.669-3.003-.579-4.295.114-1.621.938-3.054.155-4.704-1.746-3.68-7.693-3.335-8.226-7.363-1.666.001-3.25.408-4.527 1.54-.722.64-1.06 1.49-1.94 1.937.827-4.497 7.558-5.219 11.265-4.346 1.516.356 2.847 1.224 4.381 1.483-.591-3.077-2.765-7.376-2.295-10.43h.418l2.461 8.794.25 3.068h.21c0-4.478.748-15.965-6.885-13.907l.834 1.227c-1.854.432-3.067-.674-4.794-.642-.582.01-2.335 1.183-2.792 1.583-1.397 1.223-1.997 4.139-2.678 5.808-2.069 5.07-6.188 13.79.876 17.384-.12-1.35-1.858-4.292-.417-5.113.432 2.05.938 5.25 2.712 6.544l-.626-7.771c1.096.894.964 2.376 1.062 3.68.183 2.454.542 4.825 1.336 7.16 1.452 4.268 2.762 8.372 3.2 12.884.327 3.374-.456 6.897.353 10.226.596 2.454 2.314 4.855 3.656 6.954 1.537 2.405 2.864 5.165 4.85 7.264 1.982 2.095 3.542-.315 2.676-2.356-1.73-4.078-5.46-7.069-6.943-11.248-.36-1.016 2.345-3.215 3.302-2.801 2 .864-2.008 2.962-1.84 3.832.45 2.34 3.134 4.604 4.409 6.536.582.882.97 2.261 1.804 2.94 1.938 1.579 2.378-2.1 2.073-3.145-1.01-3.472-3.743-6.34-5.543-9.408m41.099 11.658c-2.453-.251-4.256 3.418-6.885 2.634-2.468-.736-4.372-2.303-6.467-3.679-7.113-4.67-12.644-12.177-15.687-20.02-1.208-3.114-2.86-5.961-2.663-9.408.192-3.349 2.783-7.245 4.184-10.226.94-2 1.658-5.966 3.257-7.472.626-.589 1.208.528 1.529.925 1.389 1.718 3.446 2.865 5.416 3.838 7.047 3.479 12.44 2.397 19.402-.563 2.17-.922 3.765-2.263 5.424-3.886.488-.476 1.272-1.56 2.078-1.243 1.333.523 2.247 2.965 2.932 4.107 1.612 2.684 3.319 5.143 4.662 7.976.672 1.417.79 3.195 1.594 4.5.566-1.497-.282-2.646-.713-4.091-1.123-3.757-2.923-7.74-5.066-11.044-.605-.935-1.744-3.53-2.978-3.698-.817-.112-1.787 1.167-2.3 1.655-1.558 1.478-3.267 3.297-5.216 4.267-6.553 3.264-16.015 3.805-21.905-1.064-1.81-1.497-3.04-3.656-4.173-5.66-1.332.376-1.814 1.775-2.49 2.864-1.676 2.697-3.213 5.56-4.654 8.385-2.135 4.186-3.542 8.977-2.554 13.703.781 3.737 2.74 7.069 4.457 10.43.57 1.116.774 2.396 1.402 3.477 2.104 3.626 4.723 6.54 7.559 9.612 2.73 2.957 5.825 4.875 9.423 6.668 1.916.955 3.157 1.967 5.425 1.69 2.915-.356 6.082-2.734 8.171-4.598 5.302-4.729 8.62-10.214 11.773-16.44 1.085-2.141 2.116-4.45 2.796-6.749.16-.54.697-1.778.206-2.272-.546-.55-.999.738-1.11 1.045-.655 1.808-1.278 3.654-2.265 5.317-2.597 4.38-5.044 8.99-8.397 12.885-1.711 1.988-5.211 3.768-6.167 6.136m9.597-48.266h-.417c-5.587 6.275-15.376 10.198-23.574 7.063-2.237-.855-4.507-2.004-6.468-3.364-1.094-.758-1.925-1.917-3.13-2.472-.708 1.802-1.539 3.536-2.291 5.317-.268.634-.77 1.502-.286 2.144 1.869 2.48 6.274 3.745 9.045 4.928 1.38.589 3.24 1.265 3.826 2.746.637 1.613.594 3.615.823 5.317.738 5.503.567 11.02.567 16.566 0 2.516-.617 6.717.63 8.99 2.157 3.93 7.738 2.912 10.36.295.67-.669.355-1.506.294-2.332-.133-1.782-.227-3.527-.227-5.317 0-5.716-.418-11.44-.418-17.18 0-1.9-.818-4.744-.082-6.533.534-1.3 3.078-1.164 4.255-1.476 3.279-.87 6.629-2.333 9.388-4.262.749-.523 2.537-1.453 2.587-2.472.04-.79-.839-1.611-1.244-2.232-1.23-1.883-2.568-3.754-3.638-5.727m-53.408 49.903l-1.46-2.454h-.209l1.67 2.454m44.02-3.272c5.133-4.621 8.872-9.355 12.28-15.339 1.533-2.693 3.315-5.474 3.784-8.59-1.798 0-4.433.153-6.046-.704-1.05-.557-1.733-1.972-.582-2.825.86-.637 2.114-.277 3.081-.187 1.684.158 3.33-.165 5.007-.17.89-3.769-1.644-6.275-2.295-9.816-1.887.717-3.46 2.4-5.215 3.424-3.203 1.869-7.32 3.442-11.057 3.734 0 7.215.234 14.469.414 21.679.062 2.457-.684 6.646.63 8.794m-13.145-.204c-.16-7.644.846-16.222-.695-23.724-.394-1.917.1-4.866-1.127-6.502-1.047-1.394-3.528-2.018-5.062-2.752-2.053-.983-3.975-1.826-5.841-3.135-.498-.348-1.35-1.117-2.004-.736-.912.532-.974 2.213-1.244 3.103-.9 2.96-2.366 5.208-1.623 8.385 1.655 7.081 6.11 14.753 11.06 20.101 1.89 2.043 3.885 4.18 6.537 5.26m55.076-32.315c-1.852.186-4.414 2.138-6.257 1.68-1.627-.405-2.756-3.18-3.794-4.338-1.538-1.712-3.65-2.827-5.014-4.704-1.329-1.828-1.297-4.138-2.175-6.136-.553-1.26-1.786-2.044-2.37-3.272l2.085 1.84h.21c.001-4.347-.491-7.883-1.879-12.067l-1.877 1.227.834 6.136c-1.322-.758-1.064-4.275-1.251-5.726l-2.295.613c.141 6.487 3.338 12.923 3.075 19.43-.136 3.297-1.674 6.782-2.867 9.816l.835.205c.657-1.979.678-5.928 2.574-7.208 1.28-.863 3.553.416 4.573-1.224.645-1.035-1.128-4.043-2.534-3.405-1.214.55-1.168 2.668-1.9 3.656-.731-4.571 4.495-5.821 5.006-.818 1.911.178 3.822 3.617 5.216 4.89.39.356 1.625 1.07 1.506 1.698-.113.582-1.254.817-1.715.991-1.45.55-3.323 1.477-4.145-.422-.657-1.521-.754-3.323-1.28-4.908-1.746.355-2.657.562-4.38 0 .705 1.366 2.666 5.891 1.54 7.301-.81 1.015-2.703.676-3.835.676-3.263-.001-6.53.204-9.806.204.71 1.263 2.477.955 3.756 1.04 1.931.13 3.9.353 5.841.129 1.409-.163 3.278-.715 4.571.076 1.18.724.872 2.086 1.079 3.254.52 2.92 1.011 5.629 1.13 8.59.028.655 1.083 3.513 1.805 3.57 2.026.16 1.7-2.435 1.47-3.57-.594-2.938-1.497-5.778-1.501-8.794-.002-.978-.355-2.183.21-3.056.708-1.091 2.379-1.212 3.545-1.53 2.994-.816 10.001-2.146 10.014-5.844m-63.422-21.884l-2.086 1.84c3.54 10.85 16.68 12.746 26.078 7.747 1.93-1.028 3.664-2.961 5.216-4.475 1.507-1.47 4.099-1.798 4.83-3.885.998-2.855-.45-6.91-2.563-8.96-.735-.713-1.862-.889-2.483-1.703-1.822-2.388-1.9-5.85-3.83-8.145-2.715-3.231-8.76-3.287-12.645-3.28-1.491.002-3.43.11-4.762.838-3.06 1.672-3.627 5.682-5.294 8.365-1.063 1.71-2.073.812-3.273 1.875-1.187 1.05-1.225 2.676-1.713 4.056-.496 1.405-1.413 2.548-1.435 4.09-.01.715.003 2.438.889 2.702 1.047.313 2.024-1.025 3.07-1.066m-21.07 11.453c.634-1.66.243-3.114-.418-4.704h-.208l.625 4.704m-1.043-.818l-.417-4.704c-2.511-.838-4.409-1.431-7.093-1.431.01 2.65 2.841 2.816 4.798 4.063.969.616 1.696 1.569 2.712 2.072m-18.776-.409c.438-5.428 4.128-10.178 5.633-15.339-1.83.039-2.818 1.036-4.172 2.125-1.411 1.134-3.752 3.037-4.26 4.84-.586 2.085 1.46 6.788 2.8 8.374m82.823-1.636l-.208-.204c.2-.853.344-1.736 1.252-2.045l-.626 2.25h-.417m96.384-24.134h-.209c-.603.49-1.158.045-1.878.29-1.252.428-2.22 1.479-3.13 2.369a85.636 85.636 0 00-2.98 3.065c-1.077 1.166-2.101 1.852-3.695 1.366-.411-.125-2.687-.637-2.103-1.429.524-.71 2.998.697 3.98.205 2.602-1.303 4.169-4.57 6.676-6.163 1.03-.654 2.345-1.552 3.338-.52h.21c.586-2.197 1.93-4.286 2.25-6.545.307-2.161-.526-4.09.019-6.34.732-3.023 2.637-5.536 3.384-8.59.8-3.277-.468-5.824-.626-9-.088-1.788.934-3.499.713-5.317-.21-1.735-2.215-3.347-3.281-4.703-.964-1.228-1.709-4.33-2.934-5.077-.755-.459-2.015-.241-2.864-.241-1.38 0-3.278-.145-4.59.216-1.333.367-2.41 1.348-3.755 1.758-1.124.343-2.727.156-3.728.721-1.965 1.11-1.446 5.645-2.09 7.53-1.025 2.998-2.733 1.848-4.822 3.175-1.81 1.15-2.128 2.774-2.985 4.598-.365.774-1.173 2.736-2.143 2.913-.607.11-1.658-1.013-2.174-1.303-2.065-1.164-4.28-2.152-6.467-3.073-4.788-2.016-9.945-1.988-15.021-.681-2.822.727-4.836 3.402-7.72 4.202-3.16.876-6.696-.567-9.804.698-2.721 1.108-4.527 4.52-7.72 3.38l1.46-2.046-.208 1.227c1.423-.155 5.005-2.375 5.59-3.717.308-.71-.166-1.82-.042-2.623.458-2.97.83-6.347 1.754-9.203-5.105-.81-3.621 4.261-5.56 6.713-.97 1.226-3.033 1.047-3.824 2.329-.39.636-.3 1.515-.588 2.206-1.043 2.492-2.887 7.078-2.14 9.817.496 1.817 2.286 2.85 2.774 4.704.482 1.831-.323 4.761 1.129 6.238.807.822 2.528 1.043 3.62 1.33 2.194-2.817 3.721-1.282 6.675-1.004 1.559.146 2.708-1.64 4.59-1.413 2.193.265 3.384 2.227 5.633 2.522 2.247.295 4.01-2.549 6.259-2.742 1.552-.133 3.177.975 4.59.8 1.63-.202 2.5-1.486 4.38-1.164 1.986.34 4.348 2.059 6.449 1.48 1.592-.44 2.47-2.74 3.983-3.555 1.917-1.034 3.943-.04 5.632-.738 1.556-.641 2.642-2.353 4.173-3.16 1.506-.794 3.799-.864 5.11-1.863.504-.385.6-1.11 1.028-1.573 1.014-1.097 2.28-1.089 3.667-1.089-.36-5.007 4.35-5.412 7.183-1.987.378.458.574.995.353 1.57-.4 1.044-1.175 1.417-1.029 2.667.165 1.413 1.538 3.106 1.231 4.5-.667 3.03-4.337 2.138-5.653 3.95-.645.887-.078 2.03-.29 3.003-.29 1.338-1.636 2.737-2.665 3.6-2.299 1.931-4.988-.758-7.408.41-.732.352-.457 1.683-.788 2.33-.535 1.048-1.609 1.852-2.616 2.435-3.067 1.776-6.334-.08-9.578.352-1.079.145-2.704 2.847-3.774 3.531-2.04 1.305-4.836 1.871-6.885.322-1.018-.77-1.55-1.993-2.712-2.55a6.155 6.155 0 01-1.26 1.84c-2.535 2.599-6.023.985-8.537-.942-.624-.479-1.014-1.346-1.715-1.702-1.385-.7-2.919 1.126-4.344.936-2.808-.375-4.996-3.252-7.719-3.609.77 1.378 2.604 1.985 3.668 3.158.665.734.674 1.752 1.202 2.56.596.912 1.65 1.275 2.326 2.092.83 1.002.989 1.953 2.193 2.7 2.109 1.308 4.994 1.255 6.882 2.83 1.195.999 2.038 2.283 3.34 3.191 1.202.839 2.625 1.15 3.755 2.119 1.348 1.156 2.527 2.923 4.382 3.32 1.8.385 4.003.837 5.84.448 3.178-.674 6.266-2.74 9.389-3.733 1.456-.463 2.965.072 4.381-.424 2.345-.82 4.03-2.543 6.467-3.26 1.93-.568 4.048-.472 5.842-1.5 5.16-2.955 7.788-9.563 8.553-15.136m-120.58 21.065c1.03-.21 5.403-.329 5.842.409-1.68.766-4.755 1.627-5.842-.41m-14.186-2.249l5.216 1.976 3.13-.544c.194 1.256-1.27 1.403-2.295 1.428-1.857.045-5.684-.72-6.05-2.86m100.97 1.14c-2.982-.37-5.98-.962-8.971-.512-.468.07-1.482-.025-1.025-.754.589-.943 2.59-.696 3.528-.692 3.415.016 6.808 1.304 10.223.458 2.762-.684 4.246-2.058 5.806-4.344.413-.603 1.406-2.82 2.316-2.675.782.125.23 1.095.02 1.448a36.595 36.595 0 01-2.665 3.885c-1.978 2.534-6.076 3.579-9.232 3.186m-87.622-1.754c1.881-.4 5.014-.541 6.885 0-1.35 2.112-5.717 2.396-6.885 0m-12.517-.613c1.83-.453 5.922-.41 6.885 1.431-2.151.675-5.725.95-6.885-1.431m8.136 2.045c-.675-1.373-.418-2.854-.768-4.295-.225-.925-.841-1.606-1.23-2.454-.24-.518-.49-1.417-.082-1.922.395-.488 1.322-.276 1.872-.312 1.348-.089 4.895-.556 5.424 1.007l-6.676-.205c.558 2.747 2.809 5.088 1.878 8.181h-.417m85.953-2.95c-3.167-.423-5.75-1.229-8.971-1.15-.447.012-1.805-.16-1.114-.893.711-.755 3.28-.585 4.243-.494 3.828.363 6.891 1.884 10.848 1.056 2.846-.596 5.324-2.055 7.267-4.159.552-.599 1.963-2.972 2.897-2.827.797.124.107 1.287-.108 1.6-.914 1.33-2.14 2.58-3.38 3.62-3.062 2.57-7.696 3.78-11.683 3.247m-67.385-2.367l-.625-2.66c1.648.07 2.12 1.921.625 2.66m-31.294-5.318h.418c.095.409-.45 4.119-.516 4.141-.615.212-1.001-.626-1.073-1.074-.175-1.09.637-2.177 1.172-3.067m100.14 3.969c-2.105-.078-3.835-.986-5.842-1.409-2.401-.506-4.683-.31-7.093-.31-.4 0-2.852-.153-1.594-1.018.853-.586 2.885-.21 3.889-.21 1.794 0 3.67-.028 5.424.39 2.524.6 4.607 1.655 7.302 1.18 2.474-.436 4.5-2.83 6.259-4.427.621-.564 1.919-1.906 2.885-1.677 1.4.332-2.089 2.738-2.468 3.07-2.75 2.406-4.844 4.556-8.762 4.411m28.58-.393c-.435-.09-4.268-1.722-2.645-2.182 1.342-.38 2.587 1.571 4.087.816 1.233-.62 2.197-4.088 3.741-3.862 1.122.165-.34 1.745-.584 2.061-1.254 1.631-2.116 3.682-4.598 3.167m-74.48-29.14c-.812.182-1.726.583-2.564.352-1.344-.371-1.976-1.729-3.07-2.468-1.063-.72-2.732-.686-3.963-.447-1.685.327-1.656 2.339-2.443 3.585-1.658 2.632-3.14 5.488-5.017 7.977-.804 1.066-2.383 2.027-2.846 3.272-.478 1.286.611 2.05 1.127 3.068-1.34.351-2.174 2.189-.6 2.962 1.008.495 2.06-.01 3.1.136.577.082.784.32 1.046.788-1.074.195-2.566-.05-3.515.502-1.08.628-.697 2.63.398 3.055 1.363.53 2.936-.487 4.37-.08-1.22.91-3.998.659-4.762 1.887-.974 1.564.332 3.223 1.84 3.68 1.87.566 4.16-.15 5.633-1.34 6.052-4.892 4.96-12.358 7.494-18.953 1.054-2.747 3.747-4.981 3.772-7.976m-51.322-18.202h.417l.835 2.658h.209l-.02-12.476-1.798-12.68-.269-6.34h-.208c-.315.907-.715 1.78-1.102 2.659-.19.434-1.31 4.125-2.015 3.177-.613-.824.601-2.816.942-3.586 1.038-2.348 3.068-5.92 1.34-8.385-.876 1.477-1.764 3.244-2.186 4.908-.096.379-.174 1.67-.89 1.39-1.03-.403.025-2.42.253-3.026.65-1.719 2.153-3.302 2.681-4.967.333-1.049-.136-2.746-.276-3.827-2.002 1.439-2.024 6.258-4.38 6.953.004 6.666 1.425 13.431 2.234 20.043.192 1.565.351 3.138.536 4.704.053.449.28 1.338-.311 1.566-.847.327-.942-1.744-.984-2.18-.267-2.804-.777-5.582-1.043-8.384-.454-4.786-1.331-9.52-1.666-14.316-.233-3.328.195-6.694-.037-10.021-.249-3.559-.816-7.059-.816-10.635-4.011 0-8.823.706-12.726-.205-.637 3.687.367 7.727.2 11.453-.502 11.26-.409 22.681-.409 33.95 0 3.952-.723 7.964-1.34 11.862-.19 1.206-.006 3.223-1.163 3.886.203 2.521 1.32 5.542.417 7.976-1.577-.846-2.978-.096-4.59.41.274 1.48 1.359 2.725 1.98 4.09 1.164 2.562.325 4.987 3.653 5.726-.544.967-1.485.818-2.503.818l.834 10.84.418 6.75c4.14-1.54 4.162-6.3 7.101-8.962 1.969-1.783 4.759-3.808 7.294-4.716 1.54-.551 4.052-.25 5.295-1.341 1.42-1.247 2.053-3.36 2.783-5.025 2.587-5.9 2.571-12.883 2.126-19.225-.127-1.803-1.1-3.745-.816-5.522m5.633 44.79c-.457-1.579-1.941-5.344.417-6.135l.209 6.135h-.626m-40.473-1.84c-.974-1.31-3.407-1.845-4.38-.205l4.38.205m-22.949-31.905c-2.24-2.224 3.297-3.454 3.93-4.782.28-.586-.316-1.207-.437-1.763-.146-.67.163-1.384.262-2.045-2.455 1.123-7.988 3.509-10.323.771-.833-.976-.192-2.285.35-3.225 1.024-1.78 2.233-3.874 3.043-5.727.412-.94-.404-1.789-.656-2.659-.55-1.899-.046-3.666-1.482-5.308-3.372-3.856-10.474.12-14.506.826-.819.144-1.686.65-2.504.665-2.058.037-3.39-1.895-3.964-3.545l.835-.205c.895 5.095 4.492-.23 4.642-2.863.179-3.136-1.065-6.473-1.285-9.613-.352-5.009 0-9.925-.645-14.93h-.209l-1.901 5.931-2.238 7.363-11.226 14.93-4.299 13.907-5.58 11.658c2.763-1.417 5.31.284 7.72 1.817 2.015 1.281 6.456-.606 7.124 2.884.262 1.372-2.05 2.038-2.82 2.792-.798.784-1.114 2.005-1.692 2.937-1.652 2.661-3.125 3.125-2.273 6.545.135.542.154 1.507.62 1.887.49.399 1.407.097 1.961.004 3.58-.602 1.65-5.371 4.023-7.315.881-.722 2.493.516 3.488.72 0-1.099.098-2.225-.306-3.272-.564-1.458-1.887-2.88-1.363-4.5 2.311.958 4.352.37 6.676-.156.731-.165 2.384-.73 3-.126.64.628-.054 2.039-.259 2.737-.714 2.432-2.178 4.294-1.59 6.954.425 1.918 2.004 2.726 2.977 4.294 1.05 1.693 1.6 3.51 2.861 5.113 1.709 2.174 4.054 3.609 6.151 5.384 1.096.928 1.574 3.202 2.746 3.806.975.503 2.303-.476 3.308-.522 1.41-.065 2.58-.561 3.963-.672.925-.075 2.065.195 2.92-.23 2.446-1.213 3.796-4.815 4.834-6.948.616-1.266 1.826-2.207 2.468-3.476.403-.797.115-1.68.605-2.454 1.066-1.684 1.785-2.082 2.208-4.091.21-1 1.078-1.953.684-3.018-.296-.8-1.97-.787-2.639-1.358-1.124-.958-1.443-2.836-1.633-4.214-.194-1.412-.269-2.68.006-4.09.243-1.244.931-2.597.406-3.878-1.458-3.558-7.858.455-7.981 3.06m32.754 31.7l-.209-6.954h-1.877l.417 2.045c-1.173-.222-1.876-1.032-2.92-1.52-2.657-1.242-6.046-.887-7.094 2.134l2.833-.745.222 1.76 2.388 2.376 6.24.904m42.55-.516c-2.915-.27-5.871.081-8.752-.696-.4-.108-3.298-1.162-2.366-1.835.584-.422 2.092.13 2.783.136 2.908.02 5.618-.462 8.34 1.117.665.386 1.191 1.389-.005 1.278m104.74-4.283c-1.05-.18-2.37-.328-3.306-.854-.486-.274-.704-.951 0-1.135 1.904-.497 3.782 1.686 5.81.441 1.508-.926 3.19-2.314 4.302-3.675.661-.808.99-1.877 1.775-2.58.67-.601 1.905-1.464 2.87-1.237.458.108.883.6.501 1.031-.55.622-1.823.538-2.507 1.217-2.656 2.645-4.799 7.59-9.445 6.792m-30.459-6.45c-.987.284-3.922 3.122-2.232 4.073.886.498 1.375-.992 2.23-.876.311.042 3.787 2.778 2.764-.128-.425-1.207-2.03-1.991-2.762-3.069m-16.899 4.5c.824-1.33.626-2.789.626-4.295l-4.173 1.022c.514 1.476 2.128 2.653 3.547 3.273m-50.348-.546l-.07-.136.07.136m-49.792-.272c.408-1.871-.223-6.18-2.086-6.954.304 1.391 1.005 2.662 1.22 4.09.156 1.023-.075 2.2.867 2.864m-1.67-.41v-.204l-1.042-1.022c-.304.855.227 1.163 1.043 1.227m51.32 0c-.854-6.594-7.21-9.089-13.351-7.363-1.286.361-3.343.753-4.173 1.84 4.583-1.263 11.425-.75 15.226 2.328 1.105.895 1.33 2.246 2.298 3.195m1.252-.614c.88-.409 1.965-.736 2.622-1.475.82-.923.716-2.295.716-3.433-.002-3.942-4.464-7.944-7.779-9.78-1.22-.677-3.215-.15-4.53-.055-1.543.11-4.028.03-5.38.838-1.072.641-1.931 2.31-2.715 3.27-2.084 2.554-4.674 4.845-5.883 7.976 1.239-.987 2.134-2.15 3.547-2.975 1.18-.69 3.066-1.082 4.015-2.037 1.005-1.011 1.708-3.31 3.287-3.646 1.907-.406 4.156 2.337 5.19 3.5 1.129 1.27 3.095 1.527 4.338 2.791 1.411 1.433 1.534 3.417 2.572 5.026m81.99-5.317c-.136.984-.614 2.07-.283 3.058.403 1.196 3.288 2.613 4.446 1.9 1.742-1.076 1.208-3.734-.448-4.66-1.014-.57-2.587-.299-3.716-.299m-106.82 4.909c1.565-4.215 4.335-7.204 7.135-10.635.857-1.05 1.882-3.2 3.099-3.797.736-.361 1.692-.32 2.492-.448 2.217-.352 5.326-1.178 7.51-.429.94.323 1.528 1.228 2.298 1.81 2.465 1.863 5.74 4.454 6.556 7.568.317 1.21-.037 2.465-.092 3.681 2.258-1.557 2.94-6.238 2.189-8.794-.332-1.129-1.33-1.954-1.72-3.068-.556-1.594-.63-4.296 1.409-4.704-.125-5.923-1.775-12.22-2.99-17.998-.322-1.529.001-4.63-1.152-5.808-1.027-1.047-3.71-.672-4.829-.102-.511.261-1.797 1.208-2.355.652-.55-.548.59-2.042.639-2.718.15-2.092-1.903-4.84-4.122-4.977-1.003-.062-2.037 1.314-2.715 1.927-2.189 1.975-3.854 4.463-6.069 6.362-.804.69-2.734 2.569-3.82 1.326-1.46-1.672 1.061-3.568 1.241-5.047.128-1.048-.97-2.011-1.086-3.068-.084-.77.366-1.49.239-2.25-.366-2.193-1.194-4.804-2.152-6.749-.325-.66-.644-3.14.412-3.356.929-.19 2.604 1.49 3.307 2 2.397 1.738 4.34 3.22 7.093 4.399.768.328 1.813 1.194 2.694 1.052 1.912-.309 4.337-4.348 3.812-6.14-.264-.898-1.572-1.708-1.462-2.655.321-2.768 5.039-.464 6.013.2l-3.963-24.746H79.53c1.707 8.108 2.707 16.703 3.51 24.95.173 1.764-.108 3.556.072 5.318.623 6.107 1.752 11.824 1.752 17.998 0 3.682.09 7.359.09 11.044 0 1.25.443 3.196-.835 3.886l-.542 9.203-4.882 11.044 4.381 3.068m66.76-.818l-.835-2.454-2.92 1.227v.614l3.755.613m51.113-6.544c2.395.66 2.983 1.128 3.338 3.476.886-.607 2.954-4.34 2.27-5.401-.843-1.306-3.557-2.782-4.853-1.234-.47.56-.578 2.39-.755 3.159m-124.76 1.022c-.473-1.569-.132-3.29-.522-4.908-.722-2.988-2.345-5.602-1.982-8.795 1.234.402 1.005 2.574 1.255 3.682.756 3.345 2.74 6.456 1.666 10.02h-.417m39.22 0c1.536-1.959 4.505-5.589 4.3-8.18-.075-.945-.932-3.28-2.025-3.465-.685-.115-1.58.27-2.274.336-.52.049-1.49-.249-1.872.193-1.675 1.929 1.273 4.738 1.607 6.413.298 1.509-.347 3.274.265 4.704m-91.377-5.113l-.626-1.636-6.885 2.454-.208-.205c.49-.986.885-2.444 1.699-3.195 1.874-1.73 5.364-2.303 5.394.946 1.622-.437 2.491.729 3.964.983.796.138 1.528-.338 2.273.163 2.012 1.358.402 3.057-1.249 3.639-.62.218-1.231-.07-1.859-.022-1.642.126-3.396.519-5.007.892-.958.223-2.14.925-3.13.782-.98-.141-2.903-.929-3.199-1.939-.219-.746.435-1.449 1.115-1.68 1.282-.435 2.853.174 4.171-.022 1.281-.191 2.267-1.066 3.547-1.16m69.89 4.09c2.184-.554 3.855-.494 6.05-.204v-.205c-1.804-1.331-3.683-3.343-5.49-1.022-.364.466-.641.858-.56 1.431m5.215-5.522c2.772.237 8.785 2.552 10.014 5.113l-.209.205c-2.546-.96-4.962-2.581-7.51-3.651-.957-.402-2.098-.549-2.295-1.667m51.87 4.482c-.755-.561.459-1.786.933-2.069 1.727-1.03 3.872-1.19 5.82-1.51 4.45-.732 8.827-1.294 13.352-1.1 3.712.16 7.11.954 10.848.276 2.162-.393 4.36-1.498 6.048-2.864.395-.32 1.344-1.54 1.957-1.083.783.582-.73 1.79-1.12 2.105a15.395 15.395 0 01-6.05 2.942c-4.677 1.081-9.102-.153-13.77-.353-3.615-.155-7.276.815-10.847 1.251-1.692.206-3.974.415-5.403 1.393-.41.282-1.158 1.465-1.767 1.012m-94.847.017c-.008-2.659-.992-6.193-3.13-7.976-.8 1.26-2.26 2.56-2.455 4.09-.314 2.466 3.64 3.73 5.585 3.886m17.524-44.38c1.436.463 1.628 3.6 2.027 4.908 1.653 5.407 1.939 10.957 1.936 16.566 0 1.48.17 5.822-1.669 6.135l.608-13.089-1.65-9.407h-.21c0 4.422-1.096 9.406-2.217 13.703-.596 2.281-1.632 4.58-1.738 6.953-.159 3.547 1.69 6.275 2.388 9.613.532 2.545.09 5.685-.519 8.18-1.084-.352-.812-1.33-.6-2.25.445-1.942.708-4.202.075-6.135-.885-2.7-2.262-5.285-2.341-8.18-.078-2.83 1.058-5.487 1.745-8.181.891-3.494 1.42-7.112 2.067-10.635.491-2.673-.426-5.554.097-8.181m115.79 32.519c-.431 2.598-6.675 2.706-8.762 2.655-2.57-.061-4.95-1.668-7.51-1.606-2.34.056-4.698 1.027-6.885 1.742a136.054 136.054 0 00-11.892 4.508c-2.174.942-7.577 2.746-9.726.912-.454-.388-.175-.865.35-.953 1.134-.19 2.369.378 3.535.274 2.708-.24 5.224-1.347 7.719-2.338 5.007-1.989 10.74-5.116 16.273-5.305 3.403-.115 6.396 1.681 9.805 1.534 2.454-.105 4.678-1.373 7.094-1.423m-143.95 4.5l-.21 2.249c1.948-.295 3.678-3.176 4.967-4.558.508-.545 1.218-1.182 1.135-1.987-.195-1.875-1.994-3.37-1.72-5.317h.417l2.295 5.113h.418l2.503-1.636-.835 2.045 3.13.409-3.547-20.452c-4.803 1.077-10.04 3.994-12.941 8.01-1.25 1.732-1.568 4.049-2.605 5.897-1.561 2.786-3.722 5.394-4.393 8.59-.233 1.113.12 2.527.12 3.681 1.19-.384 1.775-1.84 2.343-2.863 1.371-2.471 3.018-4.754 4.499-7.158.658-1.07 1.105-3.209 2.546-3.272-1.618 3.333-4.381 6.27-4.381 10.02h.208l1.878-2.454c.181 1.958-1.089 4.706-.64 6.514.232.94 2.31.369 2.868-.005 1.141-.764.045-2.746 1.944-2.828m88.874 2.66c2.128-2.522 1.886-4.363 2.593-7.364.666-2.826 1.582-5.8 2.45-8.59.72-2.309 3.79-1.695 4.435-3.885.632-2.152-.09-4.733.18-6.954.63-5.244.81-10.549-.376-15.748-.292-1.278-.976-2.42-1.304-3.681-1.638-6.276-3.352-11.485-10.481-13.498-1.083 4.589-4.177 8.58-5.956 12.885-1.185 2.866-2.391 6.54-2.769 9.612-.281 2.314.034 4.63-.333 6.954-.543 3.419-2.151 6.274-1.999 9.817 4.481-.852 8.879.487 12.1 3.681 1.29 1.279 2.366 2.608 3.036 4.295.16.403.63 1.565-.126 1.712-.548.105-.759-.749-.9-1.099-.572-1.405-1.464-2.74-2.471-3.885-2.385-2.712-7.636-4.667-11.222-3.477l.513 4.704 1.365 8.59c1.629-.069 3.292-.475 4.798.41 1.097.645 1.744 1.973 2.929 2.45.928.374 2.564-.68 3.21.11.687.842.038 2.04.328 2.96m-96.385-4.089h-.208l-2.086 3.682c1.626-.468 2.099-2.198 2.294-3.682m82.824 2.454c1.455-3.494.574-5.857.06-9.408-.456-3.138-.656-6.278-1.215-9.407-.351-1.97.836-3.883.484-5.727-.674-3.506-2.02-6.992-2.996-10.43-1.932-6.813-3.755-13.658-5.748-20.452-1.073-3.664-1.395-7.695-2.042-11.453-.197-1.146-.121-3.679-.857-4.58-.442-.542-1.839-.38-2.498-.533l-.209.205c3.95 15.714 5.952 32.136 8.883 48.062 1.436 7.808 1.772 16.954 6.138 23.724m79.198-2.463c-.473-.36-.05-.886.32-1.105 1.614-.954 3.302-2.424 4.975-3.198.54-.25 1.46-.553 1.949-.036.738.78-.893 1.154-1.323 1.372-1.147.584-4.37 4.147-5.92 2.968m-53.054-.838c-1.412-.296 1.315-1.898 1.811-1.974 3.722-.57 6.766-.002 10.431-1.358 6.305-2.333 10.944-6.662 18.15-5.55 3.161.488 5.051 2.648 7.72 4.097 1.103.6 3.23.032 4.042.842 1.258 1.255-3.45.802-4.043.573-2.144-.83-3.757-2.688-5.841-3.684-1.963-.939-4.773-.954-6.885-.634-4.218.638-7.596 3.513-11.474 5.085-3.947 1.599-7.105 1.599-11.266 1.793-.872.04-1.827.98-2.645.81m-42-68.487h-1.46l3.354 20.861 8.12 47.04c.686-.003 1.852.136 2.151-.66.438-1.172-.428-3.262-.638-4.453-.641-3.616-1.263-7.234-1.972-10.84-3.398-17.276-6.232-34.658-9.555-51.948m96.407 65.41c-.795-.11-.378-1.013-.115-1.396.684-.995 1.59-1.933 2.596-2.614 2.417-1.635 5.322-1.752 8.136-2.145 1.093-.153 2.687-.476 3.755-.135.622.198 2.781 2.414 1.24 2.66-.689.11-1.304-1.094-2.074-1.213-2.406-.37-5.886.108-8.137.978-1.383.535-2.695 1.449-3.734 2.487-.417.418-.945 1.477-1.667 1.378m-198.84-59.07l-.417-5.318c-.665 1.067-.623 2.399-1.303 3.477-1.368 2.17-3.378 3.833-4.832 5.93-2.857 4.123-4.878 8.792-7.4 13.09-.887 1.51-2.336 2.572-3.235 4.09-2.76 4.662-3.894 10.016-8.065 13.886-2.647 2.457-8.97 1.565-12.3 1.1-1.652-.231-5.012-.297-6.004 1.446-.572 1.004.554 3.4.88 4.43.714 2.258 2.273 2.706 3.716 4.332 2.156 2.43 3.878 5.242 6.21 7.527.83.814 4.054 3.75 5.35 2.925 1.409-.896 1.8-3.784 2.583-5.172 1.86-3.302 3.434-6.592 4.492-10.226.95-3.266 1.49-6.97 3.038-10.021.84-1.658 2.357-3.002 3.459-4.5 1.827-2.484 3.481-5.096 5.334-7.567 1.067-1.421 2.428-2.645 3.112-4.295 1.46-3.523 2.035-7.425 3.297-11.044.434-1.246.868-3.448 2.086-4.09m193.46 57.025c-.614-.088-.353-.863-.167-1.192.655-1.165 1.83-2.08 2.724-3.064 1.45-1.596 3.161-2.957 4.67-4.502 2.09-2.144 3.842-4.883 7.31-4.438 2.034.262 4.31 1.32 5.833 2.659.265.233 2.136 2.35.811 2.35-.811 0-1.644-1.4-2.263-1.842-1.895-1.344-4.836-2.657-7.093-1.425-1.428.778-2.274 2.169-3.357 3.31-1.663 1.752-3.543 3.291-5.134 5.112-.682.78-2.08 3.212-3.334 3.032m-42-7.122c4.9 0 9.558-.33 14.394-.952 3.342-.43 7.106-1.262 10.431-.348 3.048.837 5.904 2.595 8.762 3.895.707.322 2.287 1.61 3.048 1.258 1.667-.77 1.75-4.328 2.93-5.633.659-.73 2.23-1.622 3.202-1.818.668-.135 1.408.135 1.95-.385 1.711-1.638 1.196-5.355 1.895-7.47.333-1.012 1.239-1.997 1.289-3.068.094-1.927-1.984-2.79-2.297-4.5-.849-4.623-1.003-10.151-3.69-14.315-2.63-4.072-7.423-6.548-11.248-9.382-4.016-2.975-7.631-5.98-12.935-4.61-4.936 1.273-8.601 7.278-11.176 11.333-2.726 4.293-4.25 8.838-5.493 13.703-.534 2.095-1.308 4.372-1.385 6.545-.048 1.363.38 2.73.303 4.09-.092 1.58-.661 3.115-.599 4.704.092 2.334.618 4.601.618 6.954m10.848 0c-1.724.327-3.46 1.044-5.216 1.15-3.382.203-6.682-1.14-8.345 2.736 4.905-.608 9.985.448 13.561-3.886m-12.1-9.408l-1.252-.205c-.832 3.958-2.852 9.279-1.877 13.294 5.891-2.7 1.998-8.434 3.129-13.089m-94.715 12.476c.466-10.634.396-21.488-.125-32.109-.145-2.956-.965-6.043-.868-8.999.084-2.563 1.766-5.263 2.314-7.771.751-3.442.557-6.919.557-10.43l-7.51-.205.452 7.158 1.208 9-.146 14.111 1.802 11.453-.726 4.295 1.907 8.385 1.135 5.113m-35.049-10.02c-2 .921-4.773 3.915-4.798 6.135 2.374 0 6.372.287 5.81-3.05-.212-1.26-1.326-1.647-1.012-3.086m132.68 2.864l9.388-2.455c-.09 1.982-5.403 2.88-7.093 3.178-.933.164-1.957.272-2.295-.723m24.826-3.886l5.424.935 5.007-.322c-.342 1.038-1.491 1.14-2.503 1.21-2.032.139-6.818.17-7.928-1.823m-35.466 1.227c.628-.75 2.003-1.447 2.379-2.293.763-1.724-.01-5.467-.232-7.32-.54-4.484-.277-9.022-.89-13.497-.249-1.803.454-4.866-.338-6.46-.526-1.054-3.764-1.966-4.882-2.13 1.114 2.662 1.22 5.223 1.855 7.976.936 4.077 2.417 7.806 2.524 12.067.056 2.309.01 4.662-.267 6.954-.171 1.427-.732 3.34-.148 4.704m21.697-4.09c-1.11.236-2.03-.216-3.13-.178-1.809.063-4.348 1.214-5.633 2.427l2.504.613c.513-2.906 3.642-3.503 4.798-.613l3.13-1.432c-.455 2.833-6.303 3.379-8.554 2.805-.714-.182-2.81-.497-2.912-1.397-.098-.853 1.258-1.435 1.869-1.751 1.508-.78 7.066-3.022 7.928-.475M46.353-456.6c-4.149-6.755-6.468-14.996-6.468-22.906-.875.445-2.735 1.658-2.909 2.693-.189 1.13 1.543 3.66 1.895 4.874 1.433 4.932 4.07 11.018 2.683 16.157l4.798-.818m-5.424.613l.209-2.454-2.086.614c.335.965.893 1.511 1.877 1.84m13.561-5.317c-2.956.06-6.462.457-9.179 1.636.338.874.998 2.376 1.916 2.792 2.855 1.292 6.874-1.844 7.263-4.428m126.84 3.476v-.409l.209-.204 1.878.409c.306-2.7 4.681-2.91 4.172-.205l2.712-.818v-.204l-4.59-1.337-4.172.519v-.818c3.507-.667 7.41-.094 10.64 1.431v.41c-3.271 1.749-7.316 2.552-10.848 1.226m-60.5-.204c1.508-5.212.97-10.228.452-15.543-.59-6.063-1.051-12.143-1.67-18.202-.418-4.11-.671-9.076-4.316-11.943-1.253-.987-4.172-.168-5.733-.533.062 2.941.875 5.903 1.37 8.795 1.417 8.279 3.704 16.265 6.053 24.338.87 2.992 1.654 6.006 2.53 8.998.388 1.324.578 2.911 1.313 4.09m48.818 0c-1.035-3.398-1.142-7.515-1.496-11.043-.125-1.245-.81-2.666-.36-3.886 1.034-2.792 4.92-4.308 7.697-3.2 2.028.809 3.822 2.961 4.798 4.836-2.186.305-3.469-3.829-6.05-4.07-2.107-.195-5.09.668-5.543 3.047-.526 2.773.79 7.002 1.19 9.817.195 1.388.894 3.415-.236 4.5m-16.69-.205c0-1.093.538-4.828-.543-5.495-1.569-.967-3.473 4.208-2.312 5.167.687.568 2.018.328 2.854.328m-111.82-1.227l-.208-1.636c-1.734.302-2.873.855-2.295 2.659l2.503-1.023m13.352-2.659v-2.045c-3.65 0-6.738.928-10.223 1.84l.892 1.68 3.072-.68 6.258-.795m-16.273 1.432c1.487-.997 2.543-1.09 2.295-3.068-1.41.379-3.845 1.445-2.295 3.068m169.4-3.272l-5.007-.205.626 2.25c1.404-.029 4.709-.13 4.381-2.045m-167.32-.614l-.417-1.227c-1.557.366-3.12 1.102-2.712 2.863l3.13-1.636m13.977-.409c-.099-1.745-1.478-1.447-2.92-1.43-2.793.032-5.555.863-8.137 1.84l.626 1.635c3.5-.936 6.75-2.045 10.43-2.045m-50.07.205v-.205l-2.502.818 2.503-.613m35.466-1.841l-.417-1.227c-1.5.402-2.987.902-2.713 2.659l3.13-1.432m165.65 1.346c1.638.2 3.492-2.728 2.935-4.183-.525-1.368-2.693-1.807-3.978-1.987-2.414-.337-4.999 1.439-3.509 3.948.943 1.59 2.842 2.013 4.552 2.222m-151.46-1.96c-.173-3.947-5.393-1.867-7.928-1.092-.808.248-2.638.423-3.104 1.197-.29.481.069 1.242.184 1.736l10.848-1.84M2.954-465.6c1.42-.392 3.074-.553 4.38-1.256 2.622-1.41 5.888-6.496 5.334-9.584-.423-2.357-3.178-4.432-4.313-6.544-2.366-4.403-3.986-9.611-5.61-14.316h-.209l.618 8.59.044 9.407 1.205 9-1.45 4.703m101.39-1.499c1.283.224 3.375-.077 3.958-1.426.618-1.427-.606-5.179-2.288-5.41-1.333-.182-1.864 1.157-2.572 1.995-1.718 2.033-2.806 4.192.902 4.841m-68.22-.137l2.92-1.432-.417-1.227-2.92 1.227.417 1.432m17.316-3.068l-.209-1.022c-2.9-.36-5.593.252-8.345 1.158-1.18.39-2.756.629-2.503 2.114 3.772-.856 7.12-2.25 11.057-2.25m-17.733 1.023l2.712-1.227-.208-1.228c-1.27.243-3.682.754-2.504 2.455m17.107-2.864c-.185-1.58-1.58-1.517-2.92-1.31-2.75.424-5.804 1.433-8.345 2.538l.209 1.022c3.805-.663 7.021-2.749 11.057-2.25m-17.316.614L38-472.553v-.204c-.998-.29-3.107-.336-2.503 1.227m16.899-2.863l-.21-.818c-4.201 0-7.157.858-11.056 2.25l.209 1.226 7.51-2.298 3.547-.36m130.39 2.454l3.536-4.5.636-5.112h.418c1.468 2.745-.059 5.938-2.086 7.976-.745.75-1.354 1.798-2.504 1.636m-147.08-1.636l1.67-.205c-.34-1.003-1.835-.918-1.67.205m16.273-2.454l-.208-1.228c-2.763 0-5.697.194-8.345 1.03-1.24.39-2.697.982-2.295 2.447 3.765-1.32 6.804-2.25 10.848-2.25m-15.508.682l-.07-.136.07.136m4.45-.477c3.136-1.617 6.89-2.249 10.431-2.25-1.154-3.32-6.035-1.345-8.344-.362-1.102.47-2.655 1.23-2.087 2.612m122.67-1.022c1.62-5.016 5.233-10.194 11.266-8.94 3.211.667 5.318 3.1 7.51 5.258.94.925 2.465 1.857 1.878 3.273-6.156-1.906-12.678.46-18.985-.818-.335.837-.707 1.363-1.669 1.227m-122.88-1.023c2.412-1.594 5.202-2.657 8.137-2.659-1.966-2.092-9.739-1.092-8.137 2.659m84.075-.204c1.813-2.144 2.982-5.176 3.954-7.772.592-1.587 1.011-3.525 2.305-4.704-1.44-1.14-4.235-2.32-6.05-2.659l-.002 10.635-.207 4.5m56.12-1.637v-.409c-1.481-.827-2.762-2.056-4.38-2.64-3.057-1.1-9.082.176-10.015 3.663l7.093-.815 7.302.201m14.812-3.272h.209c2.534-1.544 6.861-1.924 8.845-4.215.785-.908.334-3.245.334-4.375 0-4.242-.705-8.268-1.043-12.476h-64.673c-.002 3.759-.834 7.47-.834 11.25 0 1.004-.43 3.17.16 4.01.678.959 2.556 1.121 3.595 1.501 2.643.968 5.123 2.397 7.719 3.487 1.685.71 3.344 1.52 5.007 2.284.553.255 1.406.896 2.046.698 1.185-.367 1.974-2.848 2.619-3.8 2.111-3.121 4.516-6.698 7.435-9.142 2.748-2.3 7.602-3.448 11.057-2.08 1.807.715 3.378 2.205 5.007 3.236 4.446 2.811 8.775 5.953 12.517 9.622m-119.75-3.681c.955-2.182 2.144-5.154 3.964-6.75l-.417-3.476h-.209c-.54 1.12-.893 2.412-1.547 3.469-.167.271-.631.89-.998.491-.546-.592.757-2.732 1.026-3.346.766-1.747 2.438-6.089.18-7.562-.699-.456-2.029-.21-2.834-.21l.623 11.249.212 6.136m153.97-17.385h-18.985c-.847 4.28.131 8.698 1.67 12.68 4.257-.617 8.703-2.626 12.725-4.101 1.248-.458 3.611-.99 4.375-2.143.89-1.346.215-4.846.215-6.437m-98.053 0c-4.774 0-10.588.88-15.23-.204 1.08 4.512 5.852 8.305 9.805 10.33.816.418 3.634 2.103 4.437 1.4.689-.603.71-2.107.812-2.936.346-2.833.175-5.738.175-8.59M7.545-519.592v-4.09l-6.05-.205v-23.315l-5.424.205c.473 1.947.209 4.141.209 6.135v11.044c0 1.248.607 4.68-.335 5.604-.944.924-4.436.327-5.715.327v4.5H1.704l5.841-.205m7.72.205v-7.363c0-.83-.278-2.28.214-3.002.635-.935 5.847-.876 6.335.186.375.816.126 2.14.126 3.02v7.159h5.216v-27.815H21.94v8.18c0 1.037.315 2.675-.126 3.635-.488 1.061-5.7 1.12-6.335.186-.542-.796-.215-2.491-.215-3.412v-8.59H10.05v27.816h5.215m30.876 0v-4.5h-9.597v-6.749h9.18v-4.5h-9.18v-7.771h10.014v-4.295H36.334l-5.215.204c.87 3.586.209 7.977.209 11.658 0 4.93.955 10.956-.21 15.748l5.216.205h9.806m17.942-4.5v-6.749h6.676l2.289-.327.214-4.172h-9.18v-12.067h-5.423v27.815h10.848c.981 0 3.246.411 4.046-.21.652-.506.63-3.79-.149-4.167-.747-.36-2.04-.122-2.854-.122h-6.467m22.949 4.499l7.093-27.815c-1.153 0-4.636-.569-5.427.327-1.21 1.374-.058 5.379-2.502 5.592-1.33.116-5.43.606-6.195-.632-.786-1.275-.29-4.16-1.469-5.076-.976-.76-4.047-.21-5.27-.21.937 6.818 3.574 13.53 5.095 20.246.404 1.78.9 3.55 1.35 5.318.15.589.279 1.642.8 2.039 1.174.894 5.05.21 6.524.21m14.812 0v-27.814h-5.215v27.815h5.215m20.028 0v-4.5h-5.841v-23.315h-5.424v23.315h-5.842v4.5h17.107m7.928 0v-7.363c0-.83-.277-2.28.215-3.003.663-.975 5.643-.828 6.246.17.474.784.215 2.16.215 3.037v7.159h5.216v-27.815h-5.216v7.976c0 1.082.292 2.654-.125 3.669-.49 1.188-5.627 1.397-6.336.356-.543-.796-.215-2.491-.215-3.412v-8.59h-5.216v27.815h5.216m30.876 0v-4.499h-9.597v-6.75h6.05c.762 0 1.947.216 2.646-.122.78-.376.8-3.66.15-4.166-.547-.425-1.728-.21-2.378-.21h-6.468v-12.068c-1.072 0-4.504-.545-5.209.327-.868 1.075-.215 4.664-.215 6.013v15.543c0 1.272-.607 4.588.215 5.604.584.724 2.896.327 3.75.327h11.056m7.72 0v-19.02c0-2.148.37-5.489 3.337-5.448 2.658.037 3.313 3.213 3.338 5.244.077 6.405 0 12.817 0 19.225h5.216v-15.952c0-2.935.34-6.11-1.097-8.794-2.583-4.825-12.042-5.218-14.892-.41-1.398 2.357-1.119 5.157-1.119 7.771v11.044c0 1.994.265 4.189-.208 6.136l5.424.204m20.862 0v-17.18c0-1.313-.651-5.045.334-6.012.571-.559 1.856-.328 2.587-.328h6.884v-4.294h-15.02v27.815h5.215m-105.77-4.908c-.595-3.008-1.297-5.996-1.92-8.998-.16-.773-.875-2.655-.361-3.355.63-.854 4.288-.386 5.202-.122l-2.504 12.476z" clip-path="url(#a)" fill="#3a090b"/></svg>